<svg width="32" height="34" viewBox="0 0 32 34" fill="none" xmlns="http://www.w3.org/2000/svg">
<g id="SVG">
<path id="Vector" d="M15.1099 6.87076C14.8322 6.01486 14.3356 5.39943 13.6743 5.09075C13.072 4.81012 12.3621 4.79141 11.6217 5.03657C10.1439 5.52611 9.4429 6.76242 9.7917 8.263C9.81795 8.37601 9.84954 8.4902 9.8858 8.60131C10.0865 9.21945 10.4449 9.84813 10.8952 10.3712C11.0105 10.5057 11.1301 10.6312 11.2528 10.7469C11.4075 10.8935 11.5673 11.0244 11.7305 11.1386C11.7795 11.1733 11.8296 11.2068 11.8794 11.2381C11.9407 11.2766 12.0114 11.2965 12.0824 11.2965C12.1156 11.2965 12.1487 11.2922 12.1812 11.2836C12.1942 11.2801 12.207 11.2766 12.2201 11.2735C12.288 11.2552 12.3567 11.238 12.4249 11.2213C12.4558 11.2135 12.4863 11.2061 12.5168 11.1991C12.5322 11.1951 12.548 11.1917 12.5635 11.1882C12.5944 11.1807 12.6248 11.1733 12.6557 11.1667C12.6684 11.1636 12.6815 11.1608 12.6943 11.1581C12.7464 11.1464 12.7985 11.1351 12.8509 11.1242C12.886 11.1168 12.9215 11.1094 12.957 11.1024C12.9925 11.095 13.0276 11.0879 13.0631 11.0813C13.1175 11.0708 13.1723 11.0607 13.2271 11.0509C13.2908 11.0392 13.3548 11.0279 13.4193 11.0178C13.4787 11.0081 13.5381 10.9987 13.5979 10.9898C13.6164 10.987 13.6345 10.9843 13.653 10.9816C13.6558 10.9808 13.6588 10.9804 13.6619 10.9804C13.692 10.9757 13.7217 10.9714 13.7518 10.9675C13.8213 10.9578 13.8907 10.9488 13.9602 10.9406C14.0049 10.9352 14.0493 10.9301 14.094 10.925C14.1384 10.9204 14.1832 10.9157 14.2276 10.911C14.3167 10.9021 14.4062 10.8942 14.4953 10.8872C14.6169 10.8779 14.7268 10.8109 14.7921 10.7064C14.9101 10.517 15.0104 10.3042 15.0914 10.075C15.4275 9.13097 15.4464 7.90715 15.1099 6.87076ZM14.231 10.128C14.1654 10.1342 14.0998 10.1409 14.0342 10.1479C14.0015 10.1514 13.9686 10.1549 13.9359 10.1588C13.9031 10.1623 13.8703 10.1662 13.8379 10.1705C13.7942 10.1759 13.7507 10.1814 13.7071 10.1872C13.6785 10.1911 13.6504 10.195 13.6218 10.1989C13.6191 10.1989 13.616 10.1993 13.6129 10.2001C13.5952 10.2024 13.5778 10.2047 13.5601 10.2075C13.557 10.2079 13.5535 10.2083 13.5505 10.2091C13.5153 10.2141 13.4806 10.2192 13.4455 10.2247C13.4104 10.2297 13.3756 10.2351 13.3413 10.241C13.278 10.2507 13.2148 10.2617 13.1515 10.2726C13.1295 10.2765 13.1071 10.2804 13.0851 10.2847C13.0805 10.285 13.0763 10.2858 13.0716 10.287C13.023 10.2959 12.974 10.305 12.9254 10.3143C12.9045 10.3182 12.8837 10.3221 12.8629 10.3263C12.7259 10.3533 12.589 10.3825 12.4532 10.4137C12.4211 10.4211 12.3887 10.4285 12.3567 10.4363C12.2884 10.4523 12.2205 10.4686 12.1526 10.4858C11.9184 10.3194 11.6915 10.1089 11.4777 9.85986C11.0934 9.41316 10.7883 8.88001 10.6189 8.3577C10.5896 8.26768 10.5637 8.17607 10.5429 8.08487C10.1787 6.51726 11.3439 5.94899 11.862 5.7775C12.048 5.71553 12.3224 5.64771 12.6271 5.64771C13.2468 5.64771 13.9918 5.92873 14.3769 7.11361C14.6994 8.10786 14.6342 9.33761 14.231 10.128Z" fill="#100C08"/>
<path id="Vector_2" d="M15.585 26.9039C15.4642 26.6444 15.2743 26.4144 15.022 26.2437C14.353 25.7912 13.4726 25.8984 12.9285 26.4982L11.2976 28.2973L9.6968 30.0633L9.9688 30.3151L9.83535 30.326L9.5957 30.3268C9.5957 30.333 9.5957 30.3393 9.59612 30.3459V30.3506C9.59653 30.3541 9.59689 30.3572 9.59689 30.3607C9.66284 31.1238 10.0244 31.8095 10.6147 32.2904C11.112 32.6958 11.7151 32.9101 12.3428 32.9101C12.4605 32.9101 12.5789 32.9027 12.6974 32.8875L12.7221 32.8844C12.8401 32.8692 12.9443 32.8002 13.0053 32.6969L15.3859 28.6524L15.5124 28.4373C15.7972 27.9544 15.8072 27.3798 15.585 26.9039ZM12.442 32.1283C11.9555 32.1521 11.4836 31.9969 11.0993 31.684C10.7166 31.3717 10.4673 30.9407 10.3867 30.457L13.4976 27.0248C13.7824 26.711 14.2426 26.6549 14.5926 26.8915C14.9665 27.1444 15.0791 27.6484 14.8492 28.0389L12.442 32.1283Z" fill="#100C08"/>
<path id="Vector_3" d="M21.5788 22.589L18.8027 25.824L18.1407 25.3812C17.7078 25.0916 17.1244 25.2152 16.8427 25.6556L16.6491 25.9581L12.8706 23.7426C13.0343 23.252 13.035 22.7184 12.8695 22.2242C12.6997 21.7167 12.5199 21.1714 12.332 20.6086C12.9563 19.2916 14.172 18.2735 15.5703 17.9033C16.9562 17.5365 18.4945 17.8129 19.6728 18.6345C19.7816 19.3322 19.8877 19.9706 19.978 20.4843C20.0783 21.0568 20.3754 21.5748 20.8172 21.947L21.5788 22.589Z" fill="#100C08"/>
<path id="Vector_4" d="M21.9634 22.5574C21.9549 22.4533 21.9056 22.3567 21.8261 22.2896L21.0645 21.6477C20.6929 21.3351 20.4421 20.8978 20.358 20.416C20.3379 20.3026 20.3175 20.1861 20.2971 20.0657C20.2399 19.7316 20.1809 19.3734 20.1219 19.004C20.0991 18.8621 20.0764 18.7183 20.054 18.5737C20.0374 18.4684 19.9788 18.3745 19.892 18.3137C19.6624 18.1535 19.4204 18.0128 19.1693 17.892C18.2934 17.4699 17.3065 17.2898 16.3419 17.3747C16.2582 17.3822 16.1753 17.3915 16.0919 17.4032C16.0915 17.4028 16.0911 17.4032 16.0911 17.4032C16.0194 17.4126 15.9484 17.4239 15.877 17.4367C15.7771 17.4547 15.6771 17.4757 15.5784 17.4995C15.5429 17.5081 15.5074 17.517 15.4723 17.5264C14.2461 17.8511 13.1546 18.6318 12.4265 19.6779C12.2587 19.9187 12.1106 20.1736 11.984 20.4402C11.9408 20.5318 11.9342 20.637 11.9663 20.7333C12.0557 21.0003 12.143 21.2634 12.2282 21.5202C12.3228 21.8051 12.4146 22.0822 12.5041 22.3488C12.641 22.7585 12.6415 23.2091 12.5049 23.6183C12.5045 23.6194 12.5041 23.621 12.5037 23.6222C12.4477 23.7964 12.5195 23.9874 12.677 24.0798L13.0573 24.3027L16.1054 26.0898L16.4553 26.2952C16.5163 26.3307 16.5827 26.3478 16.6486 26.3478C16.7756 26.3478 16.8994 26.2847 16.9731 26.1696L17.1668 25.8672C17.2467 25.7421 17.3702 25.6563 17.5141 25.6259C17.658 25.5955 17.805 25.624 17.9277 25.7062L18.5898 26.149C18.7515 26.257 18.9675 26.2274 19.0944 26.0793L19.3823 25.744L21.6224 23.1334L21.8704 22.8443C21.938 22.7651 21.9715 22.6619 21.9634 22.5574ZM18.3536 25.0561C18.0577 24.8581 17.7035 24.7896 17.3562 24.8632C17.0125 24.9357 16.7173 25.1384 16.5248 25.4346L15.3612 24.7525L14.6925 24.36L13.3201 23.5555C13.42 23.0738 13.3915 22.5672 13.2348 22.0994C13.1457 21.8332 13.0543 21.5565 12.9597 21.2723C12.8907 21.0646 12.8205 20.8526 12.7487 20.6378C13.3448 19.4853 14.4255 18.6095 15.6679 18.2802C15.6856 18.2755 15.703 18.2708 15.7208 18.2665C15.9823 18.2006 16.2497 18.1598 16.5183 18.1422C17.4944 18.0795 18.4902 18.3312 19.3182 18.8644C19.3811 19.2647 19.4448 19.656 19.5069 20.0224C19.5069 20.0243 19.5072 20.0259 19.5077 20.0275C19.5381 20.2091 19.5682 20.3845 19.5979 20.552C19.7141 21.2143 20.0594 21.816 20.5698 22.2463L21.0297 22.6338L20.0246 23.805L19.5177 24.3959L18.7333 25.3099L18.3536 25.0561Z" fill="#100C08"/>
<path id="Vector_5" d="M16.323 25.7466L14.7358 28.2293L15.384 28.6522L16.9713 26.1695L16.323 25.7466Z" fill="#100C08"/>
<path id="Vector_6" d="M25.623 30.3066C25.1056 30.3066 24.5832 30.1581 24.1218 29.8494L18.5897 26.1486L19.0157 25.4989L24.5477 29.1997C25.41 29.7765 26.5706 29.5727 27.1895 28.7354L30.0014 24.9334C30.1063 24.7911 30.1619 24.6223 30.1619 24.4454C30.1619 24.2224 30.0747 24.0139 29.9169 23.8588C29.6171 23.5641 29.1499 23.5482 28.8308 23.8214L26.5802 25.7472C26.0467 26.204 25.2692 26.2071 24.7325 25.7546L21.3318 22.8883L21.826 22.2896L25.2268 25.1559C25.4752 25.3652 25.8345 25.3637 26.0814 25.1524L28.3319 23.2266C28.9558 22.6927 29.8687 22.7242 30.4547 23.2999C30.7634 23.6031 30.9335 24.01 30.9335 24.4454C30.9335 24.7919 30.8252 25.122 30.6195 25.3999L27.8076 29.202C27.2751 29.9223 26.4553 30.3066 25.623 30.3066Z" fill="#100C08"/>
<path id="Vector_7" d="M11.9662 20.7333C11.2798 18.6781 10.5456 16.5816 9.82139 15.1329C9.4784 14.9742 8.17659 14.4418 5.39247 13.3521C4.76821 13.1081 4.19679 12.7569 3.69445 12.309L0.491294 9.45404C0.200379 9.1949 0.0267561 8.83667 0.00283477 8.44539C-0.0210866 8.05445 0.107009 7.67715 0.363585 7.38364C0.639064 7.06873 1.0357 6.88788 1.45239 6.88788C1.75064 6.88788 2.03731 6.97907 2.28193 7.15134L6.03644 9.7943C6.12438 9.85593 6.22276 9.89759 6.32847 9.91709L10.8821 10.7656C11.0136 10.7902 11.1502 10.7812 11.2775 10.7395C11.509 10.6639 11.7467 10.5934 11.9836 10.5302C12.7846 10.3162 13.6095 10.1751 14.4356 10.1104C14.7785 10.0835 15.1277 10.0699 15.4727 10.0695C15.7045 10.0691 15.9256 9.96776 16.0792 9.79122L18.4192 7.09795C18.5839 6.90814 18.6843 6.66456 18.7013 6.41238L18.9787 2.24547C19.0284 1.49324 19.6477 0.910156 20.3919 0.910156C20.3981 0.910156 20.4043 0.910156 20.4101 0.910156C21.1817 0.9199 21.8095 1.56145 21.8095 2.34096C21.8095 2.34798 21.8095 2.35538 21.8091 2.36279C21.8091 2.36513 21.8091 2.36668 21.8091 2.36902L21.7254 6.72731C21.7099 7.52556 21.5078 8.32106 21.1404 9.02808C19.9726 11.2738 19.4536 12.3211 19.3417 12.5862C19.378 13.7145 19.6431 15.9439 20.0536 18.574L19.2912 18.6956C19.0913 17.4149 18.6249 14.2847 18.5705 12.6205C18.5458 12.4833 18.6017 12.3515 18.6345 12.2755C18.6658 12.2027 18.7113 12.1029 18.7746 11.9715C18.883 11.7451 19.0427 11.4227 19.2491 11.0143C19.6388 10.2437 20.1211 9.31182 20.4572 8.66595C20.7689 8.06577 20.941 7.39027 20.9537 6.7125L21.0375 2.35694C21.0375 2.35109 21.0375 2.34525 21.0378 2.3394V2.34135C21.0378 1.98667 20.7519 1.69435 20.4004 1.69006C20.059 1.68617 19.7711 1.95276 19.7484 2.29809L19.471 6.46539C19.4428 6.88788 19.275 7.29516 18.9991 7.61285L16.6591 10.3061C16.3589 10.651 15.9272 10.849 15.4738 10.8494C15.1481 10.8498 14.819 10.8626 14.4953 10.888C13.7156 10.9492 12.9369 11.0825 12.1812 11.2844C11.9577 11.344 11.7336 11.4107 11.5152 11.482C11.2663 11.5631 10.9993 11.5806 10.7424 11.533L6.18803 10.6849C5.97351 10.6448 5.77445 10.561 5.59543 10.4355L1.84054 7.79211C1.72594 7.71146 1.59168 7.66897 1.45239 7.66897C1.25716 7.66897 1.07119 7.75353 0.942329 7.90127C0.82195 8.03887 0.762145 8.2154 0.773333 8.39857C0.784521 8.5818 0.865932 8.74939 1.00213 8.87099L4.20528 11.726C4.63895 12.1126 5.13243 12.4155 5.67143 12.6263C6.46122 12.9354 7.60172 13.3836 8.54856 13.764C9.07253 13.9745 9.48344 14.1421 9.7693 14.2629C9.93523 14.3331 10.0587 14.3868 10.1463 14.4274C10.2609 14.4804 10.4376 14.5622 10.4893 14.74C11.2428 16.2351 11.9959 18.383 12.6981 20.485L11.9662 20.7333Z" fill="#100C08"/>
<path id="Vector_8" d="M10.252 30.6047L9.98041 30.3269H9.5957C9.5957 30.2723 9.6069 30.2169 9.62889 30.167L12.4374 23.7933C12.4624 23.7372 12.4841 23.6803 12.5045 23.6187L13.236 23.8666C13.2079 23.9516 13.1759 24.0342 13.1415 24.1117L10.3388 30.4726C10.3196 30.5217 10.2902 30.5669 10.252 30.6047Z" fill="#100C08"/>
<path id="Vector_9" d="M15.2586 14.7797C15.1455 14.7797 15.0352 14.7295 14.9607 14.6375L12.0651 11.0829L12.6608 10.5875L14.8948 13.3294L14.9545 10.4515L15.7262 10.4678L15.6444 14.3978C15.6409 14.5607 15.5375 14.7045 15.3851 14.7579C15.3435 14.7727 15.301 14.7797 15.2586 14.7797Z" fill="#100C08"/>
<path id="Vector_10" d="M15.6343 14.3023L14.8827 14.4789L15.6656 17.8785L16.4172 17.7019L15.6343 14.3023Z" fill="#100C08"/>
<path id="Vector_11" d="M20.2589 20.1974L19.5057 20.0267C19.7415 18.965 20.752 18.4704 21.6494 18.4513C21.9608 18.4447 22.2656 18.4778 22.56 18.5094C22.9952 18.5565 23.4065 18.601 23.7915 18.5152C24.6593 18.3219 25.4776 17.4142 26.0366 16.0251C26.2693 15.4466 26.4557 14.8215 26.6355 14.217C26.8446 13.515 27.0606 12.7889 27.3562 12.1056C27.793 11.0965 28.4222 10.1701 29.1754 9.42644C29.9339 8.6777 30.8225 8.10981 31.7457 7.78436L32 8.52024C30.3371 9.10685 28.8656 10.5642 28.063 12.4178C27.786 13.0578 27.5769 13.7613 27.3743 14.4411C27.1891 15.0631 26.9978 15.7058 26.7516 16.3185C26.3662 17.2766 25.4903 18.935 23.9578 19.2764C23.4493 19.3898 22.9555 19.3364 22.4778 19.2846C22.195 19.2538 21.9276 19.2254 21.6656 19.2308C21.0691 19.2437 20.4028 19.5473 20.2589 20.1974Z" fill="#100C08"/>
<path id="Vector_12" d="M15.0583 25.1778L14.4471 24.7019C15.7744 22.9627 16.1375 20.9134 15.6602 17.8499C15.6278 17.6421 15.7644 17.4461 15.9689 17.4063C16.1734 17.367 16.3721 17.4983 16.4176 17.7034C17.0013 20.3112 17.5932 22.163 20.3936 24.0646L19.9629 24.7116C18.1789 23.5002 17.2155 22.283 16.6012 20.9348C16.4847 22.6046 15.9793 23.9714 15.0583 25.1778Z" fill="#100C08"/>
</g>
</svg>
