<svg width="32" height="33" viewBox="0 0 32 33" fill="none" xmlns="http://www.w3.org/2000/svg">
<g id="SVG">
<g id="Group">
<path id="Vector" fill-rule="evenodd" clip-rule="evenodd" d="M9.83068 25.0859C4.88924 25.0859 0.869141 21.0662 0.869141 16.125C0.869141 14.1499 1.49954 12.2772 2.69085 10.7086C3.84433 9.1907 5.48099 8.06107 7.30023 7.52669C8.12168 7.28505 8.9736 7.16276 9.82985 7.16358C10.6899 7.16358 11.5405 7.28571 12.3591 7.52607C14.1783 8.06046 15.815 9.19008 16.9682 10.7079C18.1606 12.2767 18.79 14.1499 18.79 16.125C18.7904 16.5685 18.7577 17.0136 18.6929 17.4495C18.6757 17.5431 18.6229 17.6264 18.5454 17.6817C18.468 17.737 18.3721 17.7601 18.278 17.7461C18.1839 17.7321 18.0989 17.682 18.041 17.6065C17.9831 17.5309 17.9568 17.4359 17.9677 17.3413C18.0275 16.9412 18.0574 16.5321 18.0574 16.125C18.0574 12.4974 15.6293 9.24991 12.1522 8.22906C11.398 8.00786 10.6159 7.89583 9.82985 7.89638C9.03867 7.89638 8.25693 8.00823 7.50687 8.22947C4.02999 9.25135 1.60173 12.4974 1.60173 16.125C1.60173 20.6617 5.29326 24.3531 9.83068 24.3531C12.8108 24.3531 15.5652 22.7353 17.0186 20.1313C17.0659 20.0465 17.1449 19.984 17.2383 19.9574C17.3316 19.9308 17.4317 19.9423 17.5166 19.9894C17.6934 20.0881 17.7572 20.3112 17.6585 20.488C16.0759 23.3244 13.0758 25.0859 9.83068 25.0859Z" fill="#100C08"/>
<path id="Vector_2" fill-rule="evenodd" clip-rule="evenodd" d="M9.83174 7.89685C9.13575 7.89685 8.42207 8.72834 7.87309 10.1773C7.27394 11.7605 6.94373 13.8726 6.94373 16.125C6.94373 18.3769 7.27374 20.4893 7.87309 22.0719C8.42207 23.5215 9.13554 24.3523 9.83174 24.3523C10.5275 24.3523 11.2412 23.5217 11.7896 22.0721C12.3895 20.4893 12.7189 18.3769 12.7189 16.125C12.7189 13.8726 12.3893 11.7607 11.7896 10.1773C11.2412 8.72814 10.5275 7.89685 9.83174 7.89685ZM9.83174 25.0851C8.79916 25.0851 7.86035 24.1074 7.188 22.3314C6.55821 20.668 6.21094 18.4632 6.21094 16.125C6.21094 13.786 6.55821 11.5819 7.188 9.91759C7.86035 8.14235 8.79916 7.16406 9.83153 7.16406C10.8641 7.16406 11.8029 8.14235 12.4753 9.9178C13.1051 11.5819 13.4517 13.786 13.4517 16.125C13.4517 18.4632 13.1051 20.668 12.4753 22.3314C11.8029 24.1074 10.8641 25.0851 9.83174 25.0851Z" fill="#100C08"/>
<path id="Vector_3" fill-rule="evenodd" clip-rule="evenodd" d="M9.83068 19.9089C7.4898 19.9089 5.2836 19.5444 3.61774 18.8823C1.84538 18.1775 0.869141 17.1978 0.869141 16.1253C0.869141 15.0522 1.84476 14.0733 3.61774 13.3685C5.28319 12.7056 7.4896 12.3412 9.83047 12.3412C12.1716 12.3412 14.3773 12.7056 16.0434 13.3685C17.8158 14.0733 18.792 15.0524 18.792 16.1253C18.792 16.2225 18.7534 16.3157 18.6847 16.3844C18.616 16.4531 18.5228 16.4917 18.4256 16.4917C18.3284 16.4917 18.2352 16.4531 18.1665 16.3844C18.0978 16.3157 18.0592 16.2225 18.0592 16.1253C18.0592 15.3837 17.2253 14.6274 15.7724 14.049C14.1913 13.4207 12.0805 13.074 9.83047 13.074C7.58006 13.074 5.47009 13.4207 3.88812 14.0492C2.43528 14.6274 1.60173 15.3837 1.60173 16.1253C1.60194 16.8665 2.43507 17.6234 3.88874 18.2009C5.46988 18.8301 7.58006 19.1761 9.83047 19.1761C12.0659 19.1761 14.1662 18.8346 15.7438 18.2131C15.7886 18.1954 15.8364 18.1868 15.8845 18.1876C15.9326 18.1885 15.9801 18.1988 16.0242 18.218C16.0683 18.2372 16.1082 18.2649 16.1416 18.2996C16.175 18.3342 16.2012 18.3751 16.2188 18.4199C16.2364 18.4647 16.2451 18.5124 16.2442 18.5605C16.2434 18.6086 16.2331 18.6561 16.2139 18.7002C16.1947 18.7443 16.167 18.7842 16.1324 18.8176C16.0978 18.851 16.0569 18.8773 16.0122 18.8949C14.3508 19.5489 12.1555 19.9089 9.83068 19.9089ZM7.40324 8.2446C7.35511 8.24465 7.30744 8.23521 7.26296 8.21682C7.21848 8.19842 7.17807 8.17144 7.14404 8.1374C7.11 8.10337 7.08302 8.06295 7.06462 8.01848C7.04623 7.974 7.03679 7.92633 7.03684 7.8782V6.28287C7.03728 5.97179 7.16109 5.67359 7.38111 5.45369C7.60113 5.23378 7.89939 5.11013 8.21047 5.10986H11.4503C11.7613 5.11018 12.0594 5.23388 12.2793 5.4538C12.4992 5.67371 12.6228 5.97188 12.6231 6.28287V7.87779C12.6231 7.92592 12.6137 7.97359 12.5953 8.01806C12.5769 8.06254 12.5499 8.10296 12.5159 8.13699C12.4818 8.17102 12.4414 8.19801 12.397 8.2164C12.3525 8.2348 12.3048 8.24424 12.2567 8.24418C12.2085 8.24424 12.1609 8.2348 12.1164 8.2164C12.0719 8.19801 12.0315 8.17102 11.9975 8.13699C11.9634 8.10296 11.9365 8.06254 11.9181 8.01806C11.8997 7.97359 11.8902 7.92592 11.8903 7.87779V6.28307C11.8903 6.04004 11.6929 5.84306 11.4503 5.84306H8.21026C8.09349 5.84306 7.98149 5.8894 7.89884 5.97189C7.81619 6.05438 7.76965 6.1663 7.76943 6.28307V7.87861C7.76946 7.92672 7.76 7.97437 7.74159 8.01882C7.72319 8.06328 7.6962 8.10367 7.66216 8.13768C7.62813 8.17169 7.58773 8.19866 7.54326 8.21704C7.4988 8.23542 7.45136 8.24466 7.40324 8.2446Z" fill="#100C08"/>
<path id="Vector_4" fill-rule="evenodd" clip-rule="evenodd" d="M9.83145 5.84255C9.73425 5.84255 9.64104 5.80395 9.57229 5.73525C9.50355 5.66654 9.4649 5.57335 9.46484 5.47615L9.46505 2.82624C9.46389 2.77741 9.47251 2.72884 9.4904 2.68339C9.50829 2.63793 9.53508 2.59651 9.56921 2.56157C9.60334 2.52662 9.64411 2.49885 9.68913 2.47989C9.73414 2.46093 9.7825 2.45117 9.83134 2.45117C9.88019 2.45117 9.92854 2.46093 9.97356 2.47989C10.0186 2.49885 10.0593 2.52662 10.0935 2.56157C10.1276 2.59651 10.1544 2.63793 10.1723 2.68339C10.1902 2.72884 10.1988 2.77741 10.1976 2.82624L10.1978 5.47615C10.1978 5.67847 10.0336 5.84255 9.83145 5.84255Z" fill="#100C08"/>
<path id="Vector_5" fill-rule="evenodd" clip-rule="evenodd" d="M6.08631 1.14295V2.07787C6.08631 2.17926 6.12658 2.2765 6.19825 2.34822C6.26993 2.41993 6.36715 2.46025 6.46854 2.4603H13.1928C13.2943 2.46025 13.3916 2.41995 13.4633 2.34826C13.5351 2.27656 13.5755 2.17932 13.5757 2.07787V1.14295H6.08631ZM13.1928 3.19289H6.46854C6.1729 3.19262 5.88945 3.07506 5.6804 2.86601C5.47135 2.65696 5.35379 2.37351 5.35352 2.07787V0.776349C5.35349 0.728235 5.36295 0.680588 5.38135 0.636133C5.39976 0.591679 5.42675 0.551291 5.46078 0.517279C5.49481 0.483267 5.53522 0.456298 5.57968 0.437917C5.62415 0.419536 5.6718 0.410102 5.71991 0.410156H13.9423C13.9904 0.410129 14.038 0.41959 14.0825 0.437996C14.1269 0.456402 14.1673 0.483393 14.2014 0.517424C14.2354 0.551455 14.2623 0.591859 14.2807 0.636323C14.2991 0.680788 14.3085 0.72844 14.3085 0.776554V2.07807C14.3081 2.37379 14.1904 2.65727 13.9812 2.86631C13.7721 3.07536 13.4885 3.19268 13.1928 3.19289ZM24.8349 5.22535L25.4994 5.66824C25.5434 5.69744 25.5803 5.73568 25.6084 5.78009L25.9113 6.26862L26.2139 5.7803C26.2419 5.73568 26.2787 5.69764 26.3227 5.66845L26.9875 5.22556L26.3227 4.7835C26.2789 4.75431 26.2418 4.71619 26.2137 4.67165L25.9113 4.18311L25.6084 4.67165C25.5804 4.71622 25.5433 4.75435 25.4994 4.7835L24.8349 5.22535ZM25.9113 7.32957C25.849 7.3296 25.7877 7.31373 25.7332 7.28348C25.6787 7.25322 25.6329 7.20957 25.6 7.15666L25.0276 6.23429L23.9703 5.53069C23.92 5.4973 23.8787 5.45198 23.8501 5.39876C23.8215 5.34554 23.8066 5.28607 23.8066 5.22566C23.8066 5.16526 23.8215 5.10579 23.8501 5.05257C23.8787 4.99935 23.92 4.95402 23.9703 4.92064L25.0276 4.21725L25.6 3.29488C25.6327 3.24182 25.6785 3.19802 25.733 3.16764C25.7874 3.13726 25.8487 3.12132 25.9111 3.12132C25.9734 3.12132 26.0347 3.13726 26.0892 3.16764C26.1436 3.19802 26.1894 3.24182 26.2222 3.29488L26.7946 4.21725L27.852 4.92064C27.9024 4.95404 27.9437 4.99938 27.9722 5.05261C28.0008 5.10584 28.0157 5.16531 28.0157 5.22572C28.0156 5.28612 28.0007 5.34559 27.9721 5.3988C27.9435 5.45201 27.9022 5.49732 27.8518 5.53069L26.7948 6.23429L26.2222 7.15666C26.1893 7.20951 26.1435 7.25312 26.0891 7.28338C26.0347 7.31363 25.9735 7.32953 25.9113 7.32957ZM20.7544 4.70824C20.0093 5.45965 19.5915 6.47515 19.592 7.53333C19.592 9.7457 21.3922 11.5452 23.6045 11.5452C24.6626 11.546 25.6782 11.1285 26.4296 10.3835C26.0859 10.4609 25.7347 10.5 25.3825 10.5001C22.7663 10.5001 20.6372 8.37161 20.6372 5.75521C20.6372 5.40218 20.6766 5.05038 20.7544 4.70824ZM23.6047 12.278C20.9883 12.278 18.8593 10.1495 18.8593 7.53333C18.8587 6.67657 19.0903 5.83567 19.5295 5.10002C19.9686 4.36436 20.5989 3.76143 21.3533 3.35533C21.4226 3.31777 21.5021 3.30361 21.5801 3.31495C21.658 3.32629 21.7302 3.36252 21.7859 3.41824C21.9004 3.53338 21.9266 3.70898 21.8497 3.85146C21.5349 4.43674 21.3701 5.09089 21.37 5.75542C21.37 7.96779 23.1703 9.76791 25.3825 9.76791C26.0466 9.76791 26.7049 9.60178 27.2858 9.28822C27.3552 9.25073 27.4348 9.23662 27.5128 9.24799C27.5908 9.25935 27.6631 9.29559 27.7189 9.35131C27.7747 9.40704 27.811 9.47927 27.8225 9.55729C27.834 9.63531 27.82 9.71494 27.7825 9.78436C27.3763 10.5386 26.7733 11.1688 26.0377 11.6078C25.3021 12.0469 24.4614 12.2785 23.6047 12.278ZM19.407 31.6774H26.5882V31.589C26.5878 31.4381 26.5379 31.2914 26.4462 31.1716C26.3544 31.0517 26.2259 30.9653 26.0803 30.9255L23.907 30.3385C23.8292 30.3174 23.7606 30.2714 23.7116 30.2075C23.6626 30.1436 23.6359 30.0654 23.6358 29.9848V25.9072C23.6358 25.822 23.6656 25.7385 23.7203 25.6732L30.299 17.7619H15.6972L22.2747 25.6732C22.3293 25.7388 22.3592 25.822 22.3592 25.9074V29.9846C22.3592 30.1501 22.2477 30.2951 22.0882 30.3383L19.9147 30.9255C19.769 30.9652 19.6405 31.0517 19.5488 31.1715C19.457 31.2914 19.4071 31.4381 19.4068 31.589L19.407 31.6774ZM26.9546 32.4102H19.0406C18.9925 32.4103 18.9448 32.4008 18.9003 32.3824C18.8558 32.364 18.8154 32.337 18.7814 32.303C18.7474 32.269 18.7204 32.2286 18.702 32.1841C18.6836 32.1396 18.6741 32.0919 18.6742 32.0438V31.589C18.6747 31.2771 18.7776 30.974 18.9671 30.7263C19.1566 30.4787 19.4223 30.3001 19.7232 30.2182L21.6264 29.7042V26.0396L15.0166 18.0894C14.9374 17.9953 14.8869 17.8804 14.8712 17.7583C14.8556 17.6363 14.8753 17.5123 14.9282 17.4012C14.98 17.2895 15.0628 17.1951 15.1668 17.1291C15.2707 17.0631 15.3915 17.0284 15.5146 17.0291H30.4822C30.7361 17.0291 30.9607 17.1716 31.0682 17.4012C31.121 17.5123 31.1408 17.6363 31.1251 17.7583C31.1095 17.8804 31.059 17.9953 30.9798 18.0894L24.3686 26.0396V29.7042L26.2713 30.2182C26.5723 30.3 26.8381 30.4785 27.0277 30.7262C27.2174 30.9739 27.3203 31.277 27.3207 31.589V32.0438C27.3207 32.2461 27.1567 32.4102 26.9546 32.4102Z" fill="#100C08"/>
<path id="Vector_6" fill-rule="evenodd" clip-rule="evenodd" d="M24.0019 26.2738H21.9924C21.8974 26.2706 21.8073 26.2306 21.7412 26.1622C21.6751 26.0939 21.6381 26.0025 21.6381 25.9074C21.6381 25.8123 21.6751 25.7209 21.7412 25.6525C21.8073 25.5842 21.8974 25.5442 21.9924 25.541H24.0019C24.099 25.541 24.1922 25.5796 24.261 25.6483C24.3297 25.717 24.3683 25.8102 24.3683 25.9074C24.3683 26.0046 24.3297 26.0978 24.261 26.1665C24.1922 26.2352 24.099 26.2738 24.0019 26.2738ZM25.4459 21.2772C24.388 21.2772 23.2405 21.1259 22.217 20.6596C20.0842 19.6871 17.6841 19.8186 16.7514 19.9198C16.656 19.928 16.5612 19.8986 16.4873 19.8378C16.4133 19.777 16.3661 19.6897 16.3557 19.5946C16.3453 19.4994 16.3725 19.4039 16.4316 19.3286C16.4907 19.2533 16.5769 19.2041 16.6718 19.1915C17.6649 19.0834 20.2227 18.9448 22.5209 19.9924C24.6004 20.9407 27.3108 20.4406 28.3795 20.1813C28.4263 20.17 28.4749 20.168 28.5224 20.1754C28.57 20.1828 28.6156 20.1995 28.6567 20.2245C28.6978 20.2496 28.7336 20.2825 28.762 20.3214C28.7904 20.3602 28.8108 20.4043 28.8222 20.4511C28.8336 20.4979 28.8356 20.5464 28.8282 20.594C28.8208 20.6416 28.8041 20.6872 28.779 20.7283C28.754 20.7694 28.7211 20.8052 28.6822 20.8336C28.6433 20.862 28.5992 20.8824 28.5524 20.8938C27.921 21.047 26.7517 21.2772 25.4459 21.2772Z" fill="#100C08"/>
</g>
</g>
</svg>
