<svg width="32" height="34" viewBox="0 0 32 34" fill="none" xmlns="http://www.w3.org/2000/svg">
<g id="SVG">
<path id="Vector" d="M27.1404 2.82521C24.1561 1.59015 20.1996 0.910156 16 0.910156C11.8004 0.910156 7.84391 1.59015 4.85953 2.82521C1.7258 4.12187 0 5.90405 0 7.84343C0.00140468 8.27798 0.0874519 8.70802 0.253333 9.10962C0.59693 9.9581 1.283 10.7546 2.29247 11.4771C2.34703 11.5156 2.40837 11.5435 2.47327 11.5592L7.94513 19.4106L7.93179 19.424C7.75793 19.5986 7.64972 19.828 7.62542 20.0732C7.60113 20.3185 7.66222 20.5646 7.79846 20.7699L10.2812 24.4933C10.4756 24.7858 10.7394 25.0257 11.0491 25.1915C11.3588 25.3572 11.7047 25.4437 12.056 25.4433H12.1497L12.2667 25.611V26.51H10.6327C10.398 26.5097 10.1663 26.5612 9.95384 26.6607C9.74145 26.7603 9.55354 26.9054 9.40367 27.0859L7.32753 29.5772L7.1245 29.4755C6.94584 29.3865 6.74898 29.3401 6.54933 29.34C6.26767 29.3396 5.99372 29.4317 5.76946 29.6021C5.54519 29.7724 5.38301 30.0117 5.30781 30.2831C5.23261 30.5545 5.24853 30.8431 5.35315 31.1045C5.45776 31.366 5.64528 31.5859 5.88693 31.7306L7.72557 32.8339C7.82756 32.8951 7.94708 32.9205 8.06513 32.906C8.18317 32.8915 8.29298 32.8379 8.37713 32.7539L9.08267 32.0483L10.3922 32.8341C10.4942 32.8953 10.6137 32.9207 10.7318 32.9062C10.8498 32.8917 10.9596 32.8382 11.0438 32.7541L12.1035 31.6945L12.6088 31.2306C12.7582 31.4215 12.9492 31.5758 13.1671 31.6819C13.385 31.7881 13.6242 31.8433 13.8667 31.8433H18.6667C19.2322 31.8427 19.7745 31.6177 20.1745 31.2177C20.5744 30.8178 20.7993 30.2755 20.8 29.71V25.264C21.1739 25.1007 21.4927 24.8331 21.7184 24.4932L23.3771 22.0059L23.3775 22.0052L24.2012 20.77C24.3358 20.5671 24.397 20.3243 24.3748 20.0819C24.3526 19.8395 24.2484 19.6118 24.0793 19.4367L28.8212 12.6985L27.9489 12.0846L24.283 17.2939L25.4745 9.74725C26.9116 10.2206 28.1449 10.804 29.0869 11.4777C29.1774 11.5425 29.2859 11.5772 29.3972 11.5772C29.5085 11.5772 29.617 11.5425 29.7076 11.4777C30.717 10.7551 31.4031 9.95863 31.7463 9.11104C31.9124 8.70903 31.9986 8.27845 32 7.84343C32 5.90405 30.2742 4.12187 27.1404 2.82521ZM5.26734 3.8108C8.12545 2.62814 11.9371 1.97682 16 1.97682C20.0629 1.97682 23.8745 2.62814 26.7327 3.8108C29.1088 4.794 30.5819 6.06659 30.8773 7.36266C29.9051 6.28879 28.3266 5.35093 26.2169 4.60527C23.3671 3.59814 19.7387 3.04348 16 3.04348C12.2613 3.04348 8.63289 3.59814 5.78313 4.60527C3.67333 5.35093 2.09487 6.28879 1.12273 7.36266C1.41813 6.06659 2.8912 4.79406 5.26734 3.8108ZM6.13861 5.61079C7.43953 5.16168 8.77576 4.8222 10.1333 4.59593V7.78079C9.41002 7.90127 8.70667 8.04337 8.03141 8.20811C7.26738 8.39442 6.54418 8.60811 5.86667 8.84426V5.70959C5.95633 5.67639 6.04699 5.64332 6.13861 5.61079ZM11.2 4.4312C12.6145 4.23938 14.0393 4.13356 15.4667 4.11433V7.31389C14.0396 7.33285 12.615 7.43549 11.2 7.62139V4.4312ZM16.5333 4.11433C17.9607 4.13356 19.3855 4.23938 20.8 4.4312V7.62139C19.385 7.43549 17.9604 7.33285 16.5333 7.31389V4.11433ZM21.8667 4.59593C23.2242 4.82227 24.5605 5.16181 25.8615 5.61099C25.9532 5.64344 26.0439 5.6763 26.1333 5.70959V8.84426C25.4558 8.60787 24.7325 8.39442 23.9686 8.20811C23.2933 8.04343 22.59 7.90127 21.8667 7.78079V4.59593ZM1.33333 8.9101C1.84 7.8951 3.04373 6.93925 4.8 6.14598V9.25196C4.03943 9.56325 3.30887 9.94328 2.6174 10.3874C2.0172 9.913 1.58667 9.41795 1.33333 8.9101ZM9.14951 20.8729L8.68628 20.178L9.51716 19.3472L9.98038 20.042L9.14951 20.8729ZM19.7333 25.9766V26.51H13.3333V25.9766H19.7333ZM15.9083 27.5766H17.5083C17.3977 27.8883 17.1933 28.1582 16.9233 28.3491C16.6533 28.5401 16.3307 28.6429 16 28.6433V28.11C16.0001 27.9283 15.9691 27.7479 15.9083 27.5766ZM10.2231 27.7686C10.2731 27.7085 10.3357 27.6601 10.4065 27.6269C10.4773 27.5937 10.5545 27.5766 10.6327 27.5766H11.6613L9.99407 29.5774L9.79105 29.4758C9.50726 29.3339 9.18098 29.302 8.87508 29.3864L10.2231 27.7686ZM7.91733 31.705L6.43538 30.8158C6.4067 30.7986 6.38234 30.775 6.36409 30.747C6.3459 30.7189 6.33428 30.687 6.33019 30.6537C6.32616 30.6206 6.32966 30.5868 6.34056 30.5551C6.35147 30.5235 6.36948 30.4948 6.39313 30.4711C6.42584 30.4385 6.46797 30.417 6.51354 30.4095C6.55911 30.4021 6.60587 30.4091 6.64729 30.4295L7.19834 30.7054L7.60812 30.9788L8.13796 31.3321C8.15793 31.3625 8.17938 31.3921 8.20184 31.4205L7.91733 31.705ZM10.584 31.705L9.1021 30.8159C9.07336 30.7987 9.04889 30.7752 9.03064 30.7471C9.01233 30.7191 9.00071 30.6872 8.99662 30.654C8.99253 30.6207 8.99609 30.587 9.00705 30.5553C9.01796 30.5236 9.03597 30.4949 9.05973 30.4712C9.09239 30.4385 9.13452 30.4169 9.18021 30.4095C9.22584 30.402 9.27265 30.4092 9.31401 30.4299L9.86513 30.7055L10.8962 31.3928L10.584 31.705ZM10.923 30.1287L12.8897 27.7687C12.9396 27.7086 13.0023 27.6601 13.0731 27.6269C13.1439 27.5937 13.2211 27.5765 13.2993 27.5766H14.4C14.5414 27.5768 14.677 27.6331 14.7769 27.733C14.8769 27.833 14.9332 27.9686 14.9333 28.11V28.6433H13.8667C13.8034 28.6432 13.7401 28.6469 13.6773 28.6544C13.6716 28.6549 13.666 28.6556 13.6604 28.6562C13.3014 28.7024 12.9687 28.8693 12.7171 29.1295C12.4655 29.3897 12.3099 29.7278 12.2758 30.0882L11.681 30.6341L10.923 30.1287ZM18.6667 30.7766H13.8667C13.7257 30.7763 13.5906 30.7203 13.4907 30.6208C13.3908 30.5213 13.3342 30.3864 13.3333 30.2454C13.3333 30.2401 13.3338 30.2348 13.3339 30.2295C13.3369 30.0929 13.3924 29.9625 13.489 29.8658C13.5688 29.7851 13.6727 29.7324 13.785 29.7158C13.7903 29.7153 13.7957 29.7145 13.8009 29.7139C13.8228 29.7112 13.8447 29.7098 13.8667 29.71H18.1333C18.2748 29.71 18.4104 29.6537 18.5105 29.5538C18.6105 29.4537 18.6667 29.3181 18.6667 29.1766V27.5766H19.7333V29.71C19.733 29.9928 19.6205 30.2639 19.4206 30.4638C19.2206 30.6638 18.9495 30.7763 18.6667 30.7766ZM20.8309 23.9014C20.6761 24.1351 20.4351 24.2981 20.1607 24.3548C20.0894 24.3694 20.0168 24.3768 19.944 24.3769H18.6667C18.5477 24.3769 18.4321 24.4166 18.3383 24.4899C18.2445 24.5632 18.1779 24.6657 18.1492 24.7812L18.1169 24.91H13.8831L13.8507 24.7807C13.8219 24.6653 13.7553 24.5628 13.6616 24.4897C13.5678 24.4164 13.4523 24.3766 13.3333 24.3766H12.056C11.8805 24.3768 11.7076 24.3334 11.5529 24.2505C11.3982 24.1676 11.2664 24.0476 11.1693 23.9014L9.75324 21.778L10.5608 20.97L11.8093 23.051C11.8567 23.1299 11.9237 23.1953 12.0039 23.2407C12.084 23.2861 12.1746 23.31 12.2667 23.31H14.5912C14.98 23.6537 15.4811 23.8433 16 23.8433C16.5189 23.8433 17.02 23.6537 17.4088 23.31H19.7333C19.8254 23.31 19.916 23.2862 19.9961 23.2408C20.0763 23.1954 20.1433 23.1301 20.1906 23.0511L21.4392 20.97L22.247 21.7778L20.8309 23.9014ZM14.9333 21.1767H17.0667V21.71C17.0667 21.9929 16.9543 22.2642 16.7543 22.4642C16.5542 22.6643 16.2829 22.7766 16 22.7766C15.7171 22.7766 15.4458 22.6643 15.2457 22.4642C15.0457 22.2642 14.9333 21.9929 14.9333 21.71V21.1767ZM14.9333 20.11C14.9333 19.8271 15.0457 19.5558 15.2457 19.3558C15.4458 19.1557 15.7171 19.0434 16 19.0434C16.2829 19.0434 16.5542 19.1557 16.7543 19.3558C16.9543 19.5558 17.0667 19.8271 17.0667 20.11H14.9333ZM23.3137 20.178L22.8505 20.8729L22.0196 20.042L22.4828 19.3473L23.3137 20.178ZM23.0237 18.4289C22.7891 18.2901 22.5102 18.2466 22.2444 18.3074C21.9787 18.3682 21.7464 18.5286 21.5954 18.7555L20.8896 19.8142C20.8868 19.8185 20.8844 19.8229 20.8818 19.8271C20.8799 19.8301 20.8778 19.8327 20.876 19.8357L19.4314 22.2434H18.0658C18.1108 22.0691 18.1335 21.8899 18.1333 21.71V20.11C18.1333 19.5442 17.9086 19.0016 17.5085 18.6015C17.1084 18.2015 16.5658 17.9767 16 17.9767C15.4342 17.9767 14.8916 18.2015 14.4915 18.6015C14.0914 19.0016 13.8667 19.5442 13.8667 20.11V21.71C13.8665 21.8899 13.8892 22.0691 13.9342 22.2434H12.5686L10.4046 18.7554C10.2536 18.5285 10.0213 18.3681 9.75556 18.3073C9.48984 18.2465 9.2109 18.29 8.97624 18.4288L7.70809 10.3971L6.6544 10.5638L7.70157 17.196L3.4632 11.1147C6.24036 9.41576 10.9524 8.37676 16 8.37676C19.0559 8.37676 21.9886 8.75786 24.4438 9.43525L23.0237 18.4289ZM29.3826 10.3874C28.6911 9.94322 27.9606 9.56319 27.2 9.2519V6.14592C28.9564 6.93925 30.16 7.89505 30.6667 8.9101C30.4133 9.41765 29.9831 9.91282 29.3826 10.3874Z" fill="#100C08"/>
</g>
</svg>
