<svg width="32" height="34" viewBox="0 0 32 34" fill="none" xmlns="http://www.w3.org/2000/svg">
<g id="SVG">
<path id="Vector" d="M23.6183 0.915851C23.0609 0.872386 22.5089 1.08228 22.0549 1.51044C21.6008 1.93861 21.2721 2.55909 21.1236 3.26817C20.9576 4.08642 21.044 4.95791 21.3638 5.69265C21.6836 6.42739 22.211 6.9658 22.8311 7.19045C23.452 7.40829 24.1132 7.29421 24.6705 6.873C25.2279 6.45179 25.6364 5.7576 25.807 4.94158C25.8993 4.48425 25.9136 4.00571 25.849 3.54022C25.7844 3.07473 25.6424 2.63382 25.4332 2.24908C25.2241 1.86435 24.9529 1.5453 24.6391 1.31481C24.3253 1.08432 23.9768 0.948076 23.6183 0.915851ZM10.8326 0.915851C10.2748 0.872031 9.72249 1.08211 9.26833 1.51086C8.8141 1.93962 8.48563 2.56099 8.3379 3.27083C8.17209 4.08804 8.25855 4.95849 8.57849 5.69195C8.89843 6.42542 9.42584 6.96224 10.0453 7.18518C10.6658 7.40467 11.327 7.2919 11.8846 6.87158C12.4421 6.45121 12.8508 5.75739 13.0213 4.94158C13.1132 4.48422 13.1273 4.00574 13.0624 3.5404C12.9975 3.07506 12.8553 2.63438 12.6459 2.24992C12.4366 1.86545 12.1653 1.54672 11.8514 1.31654C11.5376 1.08637 11.189 0.950441 10.8306 0.918504L10.8326 0.915851ZM23.5479 2.31611C23.7502 2.33047 23.9475 2.40451 24.1252 2.53276C24.3029 2.66101 24.4565 2.84019 24.5746 3.05708C24.6927 3.27397 24.7723 3.52302 24.8075 3.78585C24.8427 4.04868 24.8327 4.31858 24.7781 4.57561C24.7321 4.80306 24.6524 5.01627 24.5436 5.20292C24.4347 5.38958 24.2988 5.54598 24.1438 5.6631C23.9888 5.78022 23.8177 5.85574 23.6405 5.8853C23.4632 5.91486 23.2832 5.89787 23.1109 5.83531C22.9376 5.7751 22.7751 5.67014 22.6328 5.52652C22.4906 5.3829 22.3714 5.20348 22.2823 4.99869C22.1931 4.7939 22.1357 4.56782 22.1134 4.33357C22.0911 4.09932 22.1044 3.86158 22.1525 3.63415C22.233 3.23548 22.4162 2.88604 22.6708 2.64562C22.9253 2.40519 23.2353 2.28871 23.5479 2.31611ZM10.7621 2.31611C10.9645 2.33047 11.1618 2.40451 11.3395 2.53276C11.5172 2.66101 11.6708 2.84019 11.7889 3.05708C11.907 3.27397 11.9865 3.52302 12.0218 3.78585C12.057 4.04868 12.047 4.31858 11.9924 4.57561C11.9464 4.80335 11.8667 5.01683 11.7577 5.20369C11.6487 5.39055 11.5126 5.54709 11.3574 5.66424C11.2021 5.7814 11.0308 5.85683 10.8533 5.8862C10.6758 5.91556 10.4956 5.89826 10.3232 5.83531C10.1503 5.77479 9.98821 5.66971 9.84634 5.52615C9.70447 5.38259 9.5856 5.20339 9.49665 4.99893C9.4077 4.79447 9.35046 4.5688 9.32818 4.335C9.30584 4.10119 9.31899 3.86388 9.36682 3.6368C9.44729 3.2379 9.6304 2.88815 9.88486 2.64728C10.1394 2.40642 10.4494 2.28936 10.7621 2.31611ZM9.06679 8.3149C8.96782 8.31922 8.8717 8.3597 8.78922 8.43181C8.70673 8.50393 8.64107 8.60485 8.59964 8.72331L5.54719 17.4351H4.28474C3.11288 17.4351 2.15848 18.7001 2.15848 20.2436C2.15848 21.7871 3.11288 23.0494 4.28474 23.0494H9.68089L9.06276 24.4099C8.71935 24.3072 8.35982 24.3565 8.03988 24.5502C7.71988 24.7439 7.45736 25.0712 7.29292 25.4813L5.57136 29.8359C5.37745 30.3312 5.33973 30.9074 5.46639 31.4392C5.59306 31.971 5.87388 32.4155 6.24788 32.6762C6.62465 32.9308 7.06234 32.9798 7.46631 32.8125C7.87028 32.6453 8.208 32.2752 8.40634 31.7824L10.1279 27.4252C10.2675 27.0664 10.3261 26.6623 10.2968 26.261C10.2676 25.8597 10.1516 25.4777 9.96279 25.1604L10.9192 23.0494H23.4633L22.8995 24.4072C22.5579 24.3092 22.2014 24.3611 21.8844 24.5551C21.5673 24.749 21.3072 25.0743 21.1438 25.4813L19.4222 29.8359C19.2284 30.3316 19.191 30.908 19.318 31.4398C19.4452 31.9716 19.7264 32.4159 20.1007 32.6762C20.4773 32.9299 20.9145 32.9785 21.318 32.8112C21.7215 32.644 22.0588 32.2745 22.2572 31.7824L23.9807 27.4252C24.1212 27.0632 24.1794 26.6554 24.1483 26.2508C24.1172 25.8463 23.9982 25.4622 23.8056 25.1445L24.6774 23.0494H29.8601C31.032 23.0494 31.9905 21.7844 31.9905 20.2436C31.9905 18.7028 31.032 17.4325 29.8601 17.4325H27.0151L28.3883 14.1334C28.9984 14.0273 29.4313 13.9133 29.4313 13.9133C30.1944 13.7913 29.9608 12.2638 29.2219 12.5395L29.0326 12.582L29.7917 10.7574C29.8595 10.5946 29.8754 10.403 29.836 10.2246C29.7965 10.0463 29.7049 9.89599 29.5813 9.80669C29.4577 9.71733 29.3122 9.69635 29.1768 9.74832C29.0414 9.80029 28.9273 9.921 28.8594 10.0838L27.7218 12.8207L27.4299 12.8604C26.4453 12.9665 25.2754 12.9135 24.758 12.5926C24.3351 12.3301 23.6546 11.3462 23.1673 10.4259C22.678 9.50832 22.3357 8.68088 22.3357 8.68088C22.2881 8.56746 22.2176 8.47353 22.132 8.40959C22.0464 8.34565 21.949 8.31413 21.8507 8.31851C21.7523 8.3229 21.6568 8.36301 21.5746 8.43448C21.4926 8.50595 21.427 8.60592 21.3854 8.72331L18.3289 17.4351H13.4562L14.9019 14.2369C15.8704 14.1175 16.6456 13.9133 16.6456 13.9133C17.4007 13.7807 17.1691 12.269 16.4322 12.5395C16.4322 12.5395 16.0838 12.6271 15.5865 12.7173L16.4644 10.7813C16.5004 10.702 16.5243 10.6142 16.5347 10.5228C16.545 10.4315 16.5416 10.3383 16.5246 10.2486C16.5076 10.159 16.4773 10.0747 16.4355 10.0004C16.3938 9.92616 16.3413 9.86352 16.2811 9.81593C16.221 9.76841 16.1543 9.73694 16.0849 9.72337C16.0155 9.70974 15.9448 9.7143 15.8767 9.7367C15.8087 9.7591 15.7447 9.79893 15.6883 9.85398C15.6319 9.90897 15.5843 9.97807 15.5482 10.0573L14.2716 12.8843C13.3777 12.9426 12.4253 12.8737 11.9703 12.5926C11.5474 12.3301 10.8668 11.3462 10.3776 10.4259C10.0791 9.86393 9.8035 9.28147 9.55206 8.68088C9.50495 8.56716 9.43484 8.47276 9.34957 8.40817C9.2643 8.34358 9.1651 8.31134 9.06679 8.3149ZM9.15336 10.4895C9.29831 10.7999 9.29831 10.8423 9.50773 11.2321C10.0353 12.2266 10.6897 13.3484 11.5212 13.8603C12.1374 14.2395 12.8824 14.3297 13.6213 14.3244L12.2159 17.4351H6.71905L9.15336 10.4895ZM21.9391 10.4895C22.084 10.7999 22.084 10.8423 22.2935 11.2321C22.821 12.2266 23.4734 13.3484 24.307 13.8603C25.1184 14.3641 26.1573 14.3747 27.1097 14.2926L25.8009 17.4351H19.5048L21.9391 10.4895ZM4.28474 18.838H11.5836L10.3151 21.6465H4.28474C4.14434 21.6491 4.00501 21.6143 3.875 21.5445C3.745 21.4747 3.62699 21.3711 3.52799 21.2399C3.429 21.1089 3.35103 20.9528 3.29874 20.7812C3.24645 20.6096 3.22091 20.4258 3.22362 20.2409C3.22362 19.4533 3.68673 18.838 4.28474 18.838ZM12.822 18.838H25.2171L24.0492 21.6465H11.5515L12.822 18.838ZM26.4312 18.838H29.8601C30.4582 18.838 30.9253 19.4533 30.9253 20.2436C30.9253 21.0312 30.4582 21.6465 29.8581 21.6465H25.2613L26.4312 18.838ZM14.7388 24.4364C14.1831 24.4683 13.5207 24.7016 12.6045 25.2108C11.9139 25.5555 12.3508 26.916 13.0193 26.505C13.873 26.0303 14.4267 25.8632 14.7851 25.8419C15.0488 25.8072 15.3135 25.8914 15.5362 26.0806C15.9892 26.4227 16.6738 27.2608 18.1396 27.2608C18.8665 27.282 18.8665 25.8367 18.1396 25.8552C16.9436 25.8552 16.7281 25.3619 16.0677 24.8607C15.6649 24.5541 15.2035 24.4068 14.7388 24.4364ZM28.0581 24.4364C27.5023 24.4683 26.8399 24.7016 25.9238 25.2108C25.3016 25.59 25.6942 26.8206 26.3345 26.505C27.1883 26.0303 27.746 25.8632 28.1064 25.8419C28.37 25.8076 28.6347 25.8918 28.8574 26.0806C29.3105 26.4227 29.989 27.2608 31.4549 27.2608C32.1817 27.282 32.1817 25.8367 31.4549 25.8552C30.2588 25.8552 30.0474 25.3619 29.387 24.8607C28.9842 24.5541 28.5228 24.4068 28.0581 24.4364ZM2.05579 24.6698C1.59269 24.6698 1.06314 24.8342 0.36043 25.2055C-0.277848 25.5662 0.10673 26.8285 0.757091 26.5103C1.38731 26.1788 1.78599 26.0754 2.05579 26.0754C2.3256 26.0754 2.48064 26.1549 2.71622 26.3087C3.18536 26.6163 3.91224 27.2608 5.34987 27.2608C6.07674 27.282 6.07674 25.8367 5.34987 25.8552C4.12567 25.8552 3.78942 25.4468 3.19342 25.0543C2.84279 24.8089 2.45281 24.6771 2.05579 24.6698ZM8.74868 25.7491C8.8205 25.7586 8.89031 25.7866 8.95401 25.8313C9.22382 26.017 9.32249 26.4227 9.18359 26.7781L7.46003 31.1327C7.42874 31.2161 7.38501 31.2903 7.33144 31.3509C7.27781 31.4114 7.21547 31.4571 7.14815 31.4851C7.08083 31.5131 7.00984 31.5228 6.93956 31.5138C6.86927 31.5048 6.80113 31.477 6.7392 31.4324C6.67615 31.3908 6.62021 31.3328 6.5747 31.2619C6.52919 31.191 6.49505 31.1088 6.47431 31.02C6.45363 30.9313 6.44681 30.838 6.45428 30.7456C6.46169 30.6533 6.48332 30.564 6.51769 30.483L8.23722 26.1284C8.34394 25.8632 8.54127 25.7253 8.74868 25.7491ZM22.6015 25.7491C22.6734 25.7586 22.7432 25.7866 22.8069 25.8313C23.0767 26.017 23.1754 26.4227 23.0344 26.7781L21.3129 31.1327C21.2816 31.2161 21.2379 31.2903 21.1843 31.3509C21.1307 31.4114 21.0683 31.4571 21.001 31.4851C20.9336 31.5131 20.8627 31.5228 20.7924 31.5138C20.7221 31.5048 20.654 31.477 20.5921 31.4324C20.5288 31.391 20.4727 31.3332 20.427 31.2625C20.3812 31.1917 20.3469 31.1094 20.326 31.0207C20.3051 30.9319 20.2981 30.8385 20.3054 30.7461C20.3127 30.6537 20.3342 30.5641 20.3685 30.483L22.0901 26.131C22.1948 25.8632 22.3941 25.7253 22.6015 25.7491ZM13.6716 27.945C13.1179 27.9768 12.4555 28.2076 11.5374 28.7141C10.8668 29.0721 11.2917 30.3981 11.9541 30.0109C12.8059 29.5388 13.3596 29.3691 13.72 29.3479C13.9836 29.3136 14.2483 29.3977 14.471 29.5866C14.924 29.9287 15.6066 30.7667 17.0744 30.7667C17.7691 30.7455 17.7691 29.3851 17.0744 29.3638C15.8764 29.3638 15.661 28.8679 15.0005 28.3693C14.5978 28.0625 14.1364 27.9151 13.6716 27.945ZM26.9929 27.945C26.4372 27.9768 25.7748 28.2076 24.8586 28.7141C24.2023 29.0774 24.615 30.3742 25.2694 30.0109C26.1231 29.5388 26.6788 29.3691 27.0412 29.3479C27.3042 29.3138 27.5682 29.3979 27.7903 29.5866C28.2433 29.9287 28.9239 30.7667 30.3897 30.7667C31.0844 30.7455 31.0844 29.3851 30.3897 29.3638C29.1937 29.3638 28.9803 28.8679 28.3218 28.3693C27.919 28.0627 27.4577 27.9154 26.9929 27.945ZM1.81619 28.1837C1.38127 28.1837 0.902062 28.3534 0.320161 28.7353C-0.354361 29.1358 0.149014 30.4617 0.797357 29.9897C1.2806 29.6715 1.60075 29.5866 1.81619 29.5866C2.03163 29.5866 2.16855 29.6555 2.35983 29.7987C2.73837 30.0851 3.30819 30.7667 4.28474 30.7667C4.97939 30.7455 4.97939 29.3851 4.28474 29.3638C3.66457 29.3638 3.43906 28.9979 2.88536 28.5815C2.56176 28.3272 2.19295 28.19 1.81619 28.1837Z" fill="#100C08"/>
</g>
</svg>
