<svg width="35" height="40" viewBox="0 0 35 40" fill="none" xmlns="http://www.w3.org/2000/svg">
<g id="SVG">
<g id="Group">
<path id="Vector" d="M3.33752 1.42141C3.19377 1.54641 3.16253 1.63391 3.13752 1.95891C3.11878 2.1839 3.14377 2.41515 3.18753 2.52765C3.38753 3.01515 4.17503 3.01515 4.37503 2.52765C4.41878 2.41515 4.44377 2.1839 4.42502 1.95891C4.38753 1.47141 4.20628 1.27766 3.78127 1.27766C3.58127 1.27766 3.45627 1.32141 3.33752 1.42141Z" fill="#100C08"/>
<path id="Vector_2" d="M0.19375 3.25266C0.03125 3.39016 0 3.45891 0 3.69641C0 4.05891 0.0625 4.16516 0.4 4.36516C0.793747 4.59641 1.1375 4.5839 1.38125 4.34641C1.73125 3.99641 1.5875 3.4839 1.05625 3.21516C0.718752 3.04016 0.425 3.05266 0.19375 3.25266Z" fill="#100C08"/>
<path id="Vector_3" d="M6.48749 3.21518C6.1625 3.39018 6 3.62143 6 3.91518C6 4.47768 6.62502 4.71518 7.15622 4.35893C7.50003 4.12768 7.55622 4.04018 7.5625 3.72768C7.5625 3.17768 7.0375 2.92768 6.48749 3.21518Z" fill="#100C08"/>
<path id="Vector_4" d="M3.23131 3.27768C2.73756 3.40268 2.26256 3.71518 1.93131 4.13393C1.33131 4.88394 1.34381 6.18394 1.95631 6.95893C3.00631 8.28392 5.11256 8.05268 5.86256 6.52768C6.10006 6.04643 6.13131 5.22143 5.93756 4.69643C5.75006 4.19643 5.24381 3.65893 4.75006 3.44019C4.32506 3.24643 3.63756 3.17768 3.23131 3.27768ZM4.30631 4.69643C4.87506 5.12143 4.90631 5.85268 4.37506 6.29643C3.68756 6.87768 2.58756 6.16518 2.82506 5.29018C2.90006 5.02143 3.13756 4.73393 3.40631 4.61518C3.65006 4.50268 4.09381 4.54018 4.30631 4.69643Z" fill="#100C08"/>
<path id="Vector_5" d="M23.3624 3.77142C21.9249 4.24018 21.0874 5.77768 21.4687 7.24643C21.6937 8.0964 22.2437 8.75265 23.0437 9.14017L23.5312 9.3714H25.8124H28.0937L28.4999 9.17768C28.9937 8.94638 29.4374 8.50888 29.6749 8.03393C29.825 7.71515 29.8437 7.62143 29.8437 6.99643C29.8437 6.36518 29.8312 6.27768 29.6625 5.93393C29.425 5.45892 29.0062 5.04018 28.5312 4.80268C28.2312 4.65892 28.0562 4.61517 27.6374 4.59643C27.35 4.58392 26.9999 4.60893 26.8499 4.64643C26.5812 4.70893 26.5812 4.70893 26.2812 4.42767C26.1187 4.26518 25.7687 4.03393 25.5062 3.90893C25.0687 3.70268 24.9812 3.68393 24.3749 3.67142C23.8687 3.65893 23.6374 3.67768 23.3624 3.77142ZM24.9062 5.08392C25.1937 5.21517 25.5187 5.52767 25.7125 5.87768C25.9624 6.32143 26.3249 6.39018 26.8499 6.08392C27.2749 5.84643 27.6312 5.82767 28.0124 6.04018C28.4874 6.30268 28.7125 6.99643 28.4749 7.45268C28.3562 7.67764 28.0687 7.94017 27.8562 8.02139C27.7437 8.06517 26.9749 8.09019 25.7875 8.09019H23.8999L23.5687 7.92142C22.8687 7.57768 22.5312 6.75892 22.7812 6.02143C23.0687 5.17142 24.1062 4.71517 24.9062 5.08392Z" fill="#100C08"/>
<path id="Vector_6" d="M16.0307 4.90556C14.2658 5.36623 13.0865 6.85151 13.0703 8.63067C13.0621 9.58376 13.4524 10.6719 13.9567 11.1405L14.1519 11.3153L13.8917 11.4741L13.6314 11.625L13.4688 11.4026C13.0783 10.8784 12.81 10.6481 12.2975 10.4018C11.8177 10.1715 11.6794 10.1398 11.0612 10.1398C10.4432 10.1398 10.313 10.1715 9.82502 10.4018C9.20691 10.6958 8.76768 11.1326 8.49113 11.7283C8.26342 12.2127 8.16582 13.0149 8.27968 13.4836C8.34477 13.7616 8.33664 13.8251 8.20653 13.8966C7.99501 14.0316 7.94624 14.2381 7.31187 17.8044C6.70995 21.1879 6.67744 21.5612 6.95398 22.1013C7.40128 22.9671 7.85677 23.2133 9.38579 23.4595L10.5001 23.6343L10.4595 24.079C10.435 24.3173 10.37 25.1433 10.3212 25.9058L10.2317 27.2958L9.18253 29.4165C7.91373 31.9819 7.83238 32.2599 8.08448 33.1972L8.19021 33.6102H7.64531H7.09222L3.69252 35.7229C1.81372 36.8825 0.219599 37.9071 0.146399 37.9945C0.0487997 38.0978 0 38.2883 0 38.5108C0 38.7967 0.0487997 38.9079 0.235866 39.0985C0.496131 39.3526 0.919066 39.4083 1.2444 39.2335C1.342 39.1859 2.82225 38.2725 4.53025 37.2082L7.63718 35.2782H13.7615C18.4138 35.2702 19.9266 35.2463 20.0567 35.1749C20.1543 35.1193 21.4556 33.9438 22.944 32.5617L25.6605 30.036H29.1254C32.517 30.036 32.5983 30.036 32.8097 29.8692C33.1188 29.6309 34.4771 27.9074 34.5339 27.6771C34.6723 27.1687 34.2412 26.6604 33.6719 26.6604C33.2896 26.6604 33.1107 26.8113 32.4112 27.7247L31.9232 28.3601L30.1583 28.3681H28.3933L28.2632 27.9471C28.1981 27.7247 27.5638 25.5961 26.8562 23.2292L25.5711 18.9242L25.7988 18.829C26.0916 18.7098 26.6528 18.1062 26.8155 17.7409C27.027 17.2563 26.9862 16.4144 26.7341 15.9299C26.3519 15.1912 25.7501 14.8101 24.8228 14.7147L24.2941 14.6671L24.0258 13.7536C23.6598 12.5384 23.6028 12.4193 23.3345 12.2842C22.944 12.0856 22.6269 12.1333 22.3178 12.4351C21.9762 12.7688 21.9681 12.9196 22.2771 13.9363L22.513 14.7147L22.3259 14.6909C22.204 14.675 21.5695 14.1428 20.683 13.3168L19.2353 11.9666L19.8046 11.4106C20.6748 10.5607 20.9757 9.84584 20.9839 8.6068C20.9921 6.12078 18.5032 4.25427 16.0307 4.90556ZM17.7062 6.56556C18.6171 6.82767 19.2759 7.71726 19.2759 8.67035C19.2678 10.5766 16.9987 11.5694 15.5509 10.2986C14.5505 9.42497 14.5179 8.01115 15.4858 7.08979C16.0958 6.50997 16.8685 6.3273 17.7062 6.56556ZM11.5493 11.9189C11.8828 12.0856 12.1999 12.5781 12.1999 12.9196C12.1999 13.4995 11.6306 14.0713 11.0612 14.0713C10.5164 14.0713 9.92269 13.4915 9.92269 12.9594C9.92269 12.6178 10.2642 12.0698 10.5733 11.9109C10.9311 11.7283 11.1914 11.7283 11.5493 11.9189ZM17.3484 12.7052C17.5192 12.7767 18.4626 13.5868 19.4467 14.5082C20.439 15.4216 21.3256 16.2159 21.4232 16.2714C21.537 16.3429 22.0982 16.3667 23.2287 16.3747C24.6683 16.3747 24.8879 16.3906 25.0343 16.5097C25.2864 16.7321 25.319 16.9545 25.1238 17.1928L24.9611 17.4072H21.9599H18.9668L18.0722 16.6606C17.5842 16.2556 17.0799 15.8981 16.9579 15.8664C16.657 15.7949 16.2259 15.9457 16.0714 16.1761C15.925 16.3906 15.9006 16.8671 16.0226 17.0895C16.0632 17.1689 16.3885 17.4787 16.7302 17.7726C17.0799 18.0665 17.3727 18.3365 17.389 18.3683C17.4378 18.4795 16.413 19.1705 15.7379 19.4802C15.3801 19.6471 14.7945 19.8535 14.4366 19.9409C13.7615 20.1157 12.753 20.2745 12.6961 20.2189C12.6392 20.1633 13.6639 14.3731 13.794 14.0237C14.03 13.3724 14.7132 12.8164 15.4858 12.6337C15.982 12.5226 17.023 12.5623 17.3484 12.7052ZM10.6871 15.7393C11.1752 15.8267 11.59 15.9141 11.6143 15.9379C11.6469 15.9696 10.8173 20.9576 10.679 21.5215C10.5977 21.871 10.3618 21.9345 9.63801 21.8075C9.28013 21.7518 8.90598 21.6803 8.80838 21.6565C8.40985 21.5612 8.40985 21.4659 8.95481 18.3921C9.44275 15.636 9.47533 15.5089 9.62982 15.5407C9.72742 15.5646 10.1992 15.6519 10.6871 15.7393ZM23.8956 19.3294C24.1071 20.0522 26.5389 28.1854 26.5715 28.2648C26.6041 28.3363 26.5064 28.3681 26.2462 28.3681H25.8801L25.7907 28.0027C25.628 27.3752 25.441 27.1052 23.5133 24.7383L21.6509 22.4428L20.3414 21.8313C19.3979 21.3865 19.0319 21.18 19.0319 21.0767C19.0319 21.0052 19.1052 20.5287 19.1946 20.0283C19.284 19.5279 19.3572 19.107 19.3572 19.0911C19.3572 19.0831 20.3658 19.0752 21.5939 19.0752H23.8224L23.8956 19.3294ZM17.2426 21.2039C17.0881 22.1251 17.1369 22.1808 18.6741 22.9194C19.3898 23.2609 20.0974 23.5945 20.2519 23.6581C20.4715 23.7455 20.9351 24.2617 22.2771 25.9297C23.3751 27.2878 24.0502 28.1933 24.1071 28.3759C24.2047 28.7493 24.1233 29.0353 23.8062 29.3688C23.4727 29.7262 22.9115 29.8216 22.4967 29.6071C22.3422 29.5277 21.602 28.6937 20.6748 27.542L19.1052 25.612L17.7631 24.9687L16.4211 24.3173L14.7864 24.0393C13.0458 23.7455 12.7693 23.6422 12.4684 23.2053C12.2813 22.9433 12.2081 22.2443 12.3464 22.0457C12.3789 21.998 12.7693 21.9107 13.2166 21.8631C14.583 21.7121 16.1771 21.2435 16.9987 20.7511C17.1532 20.6637 17.2914 20.6081 17.3076 20.624C17.324 20.6399 17.2995 20.902 17.2426 21.2039ZM12.7937 25.3816C13.0295 25.4451 13.485 25.5405 13.8103 25.5881L14.396 25.6835V26.0091C14.396 26.1918 14.3553 26.7557 14.3228 27.264L14.2495 28.1933L13.0947 30.5205C11.7364 33.2687 11.7119 33.3164 11.354 33.4831C10.614 33.8246 9.8087 33.3957 9.70304 32.6014C9.67046 32.3394 9.8087 32.0217 10.7766 30.0757L11.8909 27.8518L11.9722 26.7001C12.0698 25.2783 12.0861 25.1592 12.2487 25.2228C12.3139 25.2466 12.5578 25.3181 12.7937 25.3816ZM17.633 26.7716C17.8851 26.8986 18.3324 27.3911 19.5117 28.8366C20.7806 30.4014 21.1385 30.7905 21.4719 30.9733L21.8785 31.2036L20.5854 32.4029L19.2922 33.6102H16.3967C14.8026 33.6102 13.5012 33.5943 13.5012 33.5784C13.5012 33.5705 14.0462 32.4585 14.7132 31.1241L15.925 28.6937L15.9738 27.9948C16.0063 27.6135 16.047 27.0257 16.0795 26.6922L16.1203 26.0806L16.714 26.3427C17.0393 26.4936 17.454 26.6842 17.633 26.7716Z" fill="#100C08"/>
<path id="Vector_7" d="M0.53125 6.65892C0.14375 6.85892 0 7.05267 0 7.37142C0 7.92763 0.475 8.1714 1.03125 7.8964C1.4 7.71515 1.5625 7.50892 1.5625 7.24017C1.5625 6.94017 1.45 6.73392 1.21875 6.62142C0.950003 6.49642 0.831251 6.50267 0.53125 6.65892Z" fill="#100C08"/>
<path id="Vector_8" d="M6.34375 6.61519C5.99375 6.7652 5.88125 7.32769 6.14375 7.61519C6.31875 7.80897 6.73128 8.02772 6.92501 8.02772C7.11873 8.02772 7.41877 7.86523 7.49998 7.72148C7.53128 7.65275 7.56251 7.48394 7.56251 7.34644C7.56251 7.0527 7.40629 6.8527 7.03125 6.65894C6.74376 6.50895 6.60629 6.50269 6.34375 6.61519Z" fill="#100C08"/>
<path id="Vector_9" d="M3.44375 8.30267C3.21875 8.42766 3.13125 8.64641 3.125 9.07764C3.125 9.43393 3.14375 9.4964 3.30625 9.65889C3.55 9.8964 3.96875 9.91515 4.225 9.6964C4.36875 9.57141 4.4 9.48392 4.425 9.15892C4.44375 8.9339 4.41875 8.70267 4.375 8.59016C4.2375 8.25889 3.775 8.11515 3.44375 8.30267Z" fill="#100C08"/>
<path id="Vector_10" d="M29.5501 17.0339C29.3938 17.0964 28.4438 18.2277 28.2626 18.5714C28.1313 18.8089 28.175 19.0714 28.3688 19.2901C28.5251 19.4652 28.5938 19.4964 28.8313 19.4964C29.1626 19.4964 29.2751 19.4089 29.7938 18.7276L30.1438 18.2776H30.8814C31.5813 18.2776 31.6251 18.2714 31.8063 18.1151C31.9688 17.9777 32.0001 17.9089 32.0001 17.6714C32.0001 17.0714 31.7876 16.9651 30.5813 16.9714C30.1063 16.9714 29.6438 17.0026 29.5501 17.0339Z" fill="#100C08"/>
<path id="Vector_11" d="M26.9875 20.1276C26.7625 20.2464 26.6875 20.3964 26.6875 20.7151C26.6875 20.9214 26.725 21.0152 26.8687 21.159C27.275 21.559 27.9375 21.2839 27.9375 20.7151C27.9375 20.3902 27.8563 20.2401 27.625 20.1214C27.4 20.0026 27.2063 20.0026 26.9875 20.1276Z" fill="#100C08"/>
</g>
</g>
</svg>
