<svg width="32" height="33" viewBox="0 0 32 33" fill="none" xmlns="http://www.w3.org/2000/svg">
<g id="SVG">
<path id="Vector" d="M2.80828 17.6612C2.4821 17.6612 2.21162 17.9431 2.21162 18.283C2.24344 19.1038 3.37311 19.1038 3.40494 18.283C3.40494 17.9431 3.13445 17.6612 2.80828 17.6612ZM7.06447 13.715C7.06447 13.375 6.79396 13.0932 6.46779 13.0932C5.6802 13.1263 5.6802 14.3036 6.46779 14.3367C6.79396 14.3367 7.06447 14.0631 7.06447 13.715ZM2.80828 10.1086C3.13445 10.1086 3.40494 9.82669 3.40494 9.48678C3.37311 8.66604 2.24344 8.66604 2.21162 9.48678C2.21162 9.83499 2.47415 10.1086 2.80828 10.1086ZM4.0732 15.5223C4.0732 15.1824 3.80271 14.9005 3.47654 14.9005C2.68895 14.9337 2.68895 16.1109 3.47654 16.1441C3.80271 16.1441 4.0732 15.8622 4.0732 15.5223ZM1.78203 12.2724C1.45585 12.2724 1.18536 12.5543 1.18536 12.8942C1.21719 13.715 2.34686 13.715 2.37868 12.8942C2.37868 12.5543 2.1082 12.2724 1.78203 12.2724ZM0.596658 15.2321C0.270486 15.2321 0 15.514 0 15.8539C0.0318219 16.6747 1.1615 16.6747 1.19332 15.8539C1.19332 15.514 0.922833 15.2321 0.596658 15.2321ZM1.10581 8.00275C1.43198 8.00275 1.70247 7.72091 1.70247 7.381C1.67065 6.5602 0.540972 6.5602 0.50915 7.381C0.50915 7.72921 0.77168 8.00275 1.10581 8.00275Z" fill="#100C08"/>
<path id="Vector_2" d="M25.4973 18.482C25.2506 17.5535 24.1289 17.2882 23.2299 17.0727C23.0311 17.0229 22.8322 16.9815 22.6731 16.9317C22.1878 16.7908 21.5514 16.8074 20.7637 16.9815C21.5832 14.8093 21.3843 12.7947 20.1591 10.9791C21.5354 10.8962 25.0279 11.2029 25.3143 10.5894C25.4336 10.4485 25.4893 10.2744 25.4734 10.092C25.3541 8.95623 23.7709 8.16862 20.7717 7.7541C20.1751 7.67119 18.7192 7.80382 17.8043 7.91161C17.9077 7.36441 17.868 6.78408 17.6691 6.28665C17.0088 4.63683 15.8314 4.67828 14.8767 4.90213C13.8504 5.14255 13.3652 5.90528 13.4368 7.18201C10.6524 7.09081 7.93163 8.45875 5.01195 11.4268C5.87114 8.66604 8.09868 5.2752 10.6206 3.66684C15.4018 0.259422 22.7288 1.12164 26.5395 3.71658C28.6715 5.04307 29.8171 6.46906 29.825 6.48559C29.9921 6.70118 30.2944 6.72607 30.4933 6.55196C30.7002 6.37786 30.724 6.0628 30.5569 5.85554C26.3883 0.756855 16.8894 -1.79663 10.0955 2.83778C6.3087 5.25033 3.97774 10.4734 3.5561 13.1347C3.50041 13.4331 3.73907 13.7233 4.02547 13.715C4.16071 13.715 4.288 13.657 4.38347 13.5492C7.66905 9.73549 10.6046 8.0194 13.572 8.18521C13.6436 8.52512 13.7312 8.82355 13.8504 9.08056C13.1584 9.95937 11.0501 12.6704 10.5012 13.5658C10.0796 14.2539 9.92049 15.7296 9.90455 16.882C9.89661 17.8519 9.92843 20.679 11.4241 20.7205C12.1639 20.6873 12.5537 19.9992 12.7765 19.0458C12.9117 19.5101 12.9674 19.8749 12.9038 20.0158C12.5219 20.7868 11.9014 21.6158 11.5911 22.5444C11.249 22.818 10.1989 23.6553 8.9897 24.7414C6.99284 26.5322 5.5211 28.099 4.61418 29.4007C3.73907 30.6526 3.30948 31.4982 3.73112 32.0619C3.89818 32.2941 4.1448 32.4102 4.54257 32.4102C5.45745 32.4102 7.1679 31.7801 10.5649 30.4038C16.8338 27.8586 20.899 24.3683 24.0494 21.2925C25.2268 20.1236 25.6961 19.2282 25.4973 18.482ZM19.6023 17.2716C19.5943 17.2965 19.5864 17.3131 19.5784 17.3379C19.3159 17.4291 19.0852 17.5203 18.9022 17.6032C18.7033 17.1473 18.409 16.4509 18.2499 16.0861C18.1146 15.2819 17.6929 14.5109 16.977 13.7399C17.4702 12.7533 18.3453 11.4102 19.0613 11.1366C20.5172 12.9523 20.6922 14.9668 19.6023 17.2716ZM16.5235 22.0801C16.794 22.3703 17.0645 22.702 17.2395 22.9507C16.802 22.8678 16.078 22.6273 15.3939 22.3206C15.9825 21.0106 16.603 19.5433 16.6269 19.0707C16.6429 18.8468 16.5792 18.5318 16.4917 18.1836C16.8974 18.0426 17.4145 17.8105 17.7884 17.4208C17.9316 17.7607 18.0828 18.1006 18.1703 18.3079C17.9953 18.7639 17.1838 20.2479 16.4678 21.4749C16.3405 21.6739 16.3644 21.9226 16.5235 22.0801ZM15.0756 5.87212C15.9348 5.67315 16.4042 5.73947 16.7781 6.66799C16.969 7.14888 16.9293 7.77063 16.6826 8.24322C16.5394 8.50853 16.2769 8.84844 15.7837 8.93964C15.3302 9.02254 15.0358 9.00595 14.8847 8.89816C14.8449 8.87333 14.8131 8.83185 14.7812 8.79036C14.646 8.62456 14.5187 8.15202 14.4312 7.60482C14.1925 6.07938 14.7653 5.93845 15.0756 5.87212ZM11.4161 19.7256C10.5808 19.2282 10.7956 14.7844 11.2968 14.0963C11.79 13.2839 13.755 10.7635 14.5028 9.81016C14.9483 10.0423 15.4893 10.0008 15.9507 9.91789C16.5315 9.81016 17.0327 9.47025 17.3747 8.96447C18.2657 8.85673 20.0796 8.67433 20.6445 8.74894C22.7685 9.03913 23.9778 9.52826 24.3755 9.95107C22.9992 10.1003 20.4137 9.85987 19.1806 10.0837C17.7486 10.2413 16.5633 12.4299 16.1178 13.3171L14.2721 13.1844L14.829 12.3387C14.9802 12.1149 14.9245 11.7998 14.7096 11.6506C14.4949 11.4931 14.1925 11.5511 14.0494 11.775L11.9093 15.0249C11.8457 15.1161 11.8218 15.2238 11.8298 15.3316L11.9412 17.4457C11.9969 18.8883 11.5911 19.6593 11.4161 19.7256ZM12.8322 16.625L12.7685 15.4394L13.6357 14.1212L16.1893 14.3119C16.8338 14.9751 17.2077 15.6218 17.3111 16.2602C17.3111 16.4426 17.2395 16.8654 16.1893 17.2302C15.9984 16.6996 15.8075 16.2353 15.7359 16.0695C15.4575 15.4809 14.6301 15.8622 14.8608 16.4758C15.0438 16.8986 15.2267 17.3794 15.37 17.8105C15.012 18.4986 14.4789 18.8385 13.6993 18.8468C13.4686 17.968 13.0311 17.0312 12.8322 16.625ZM13.3095 21.2594C13.6118 20.7122 13.8743 20.4386 13.8584 19.8417C14.5824 19.8003 15.1949 19.5267 15.6643 19.0541C15.545 19.7256 13.9619 23.1828 13.4766 24.1445C13.1265 24.8243 13.6039 25.7197 13.6675 26.4244C13.1981 26.2171 12.6253 25.2637 12.3469 24.1362C12.14 23.1414 12.8481 22.0553 13.3095 21.2594ZM23.3732 20.5713C20.2944 23.589 16.3166 27.0047 10.1989 29.4836C8.47255 30.1883 5.33812 31.4567 4.53462 31.4236C5.64839 28.8452 9.63409 25.4295 11.3604 23.987C11.5195 25.3134 12.7128 27.8918 14.0891 27.3363C14.8449 26.9964 14.6062 26.0845 14.4551 25.4793C14.3835 25.2139 14.2562 24.7248 14.3278 24.6004C14.3358 24.5839 14.6221 24.0035 14.9881 23.216C15.4813 23.4398 16.8497 23.987 17.5338 23.9704C17.8919 23.9704 18.1862 23.8626 18.3374 23.5642C18.4885 23.274 18.4964 22.8263 17.4702 21.6656C18.5044 19.8915 18.9261 19.0458 19.0772 18.5898C19.8727 18.2333 21.5514 17.6281 22.4185 17.8851C22.6015 17.9431 22.8083 17.9846 23.0231 18.0343C23.572 18.1587 24.4869 18.3742 24.5824 18.7307C24.6062 18.8634 24.6142 19.3609 23.3732 20.5713Z" fill="#100C08"/>
<path id="Vector_3" d="M29.6103 12.9771C29.9205 12.9771 30.1592 12.6621 30.0717 12.3553C28.7669 7.26491 25.1074 4.50418 20.1353 3.05333C19.8807 2.97872 19.6182 3.13624 19.5466 3.40154C19.475 3.66683 19.6261 3.94042 19.8807 4.01504C25.0359 5.49904 28.0669 8.31783 29.1488 12.6123C29.2045 12.8279 29.4034 12.9771 29.6103 12.9771ZM26.3246 17.8851C26.5633 17.9763 26.8497 17.8437 26.9372 17.5867C27.6373 15.5389 27.4384 13.7233 26.3485 12.1895C26.1894 11.9656 25.8951 11.9242 25.6802 12.0817C25.4654 12.2475 25.4257 12.5543 25.5768 12.7782C26.4758 14.0466 26.627 15.514 26.0303 17.2468C25.9428 17.5038 26.0701 17.7939 26.3246 17.8851ZM29.9682 23.4149C31.4161 20.9526 31.9253 17.8851 31.4718 14.3202C31.44 14.0466 31.2013 13.8559 30.9388 13.8891C30.6763 13.9222 30.4933 14.171 30.5251 14.4445C30.9547 17.8271 30.5013 20.5961 29.1488 22.8926C27.9237 24.9984 25.9587 26.6565 23.1584 27.9664C22.9197 28.0825 22.8083 28.3726 22.9197 28.6214C23.0311 28.8784 23.3175 28.9862 23.5482 28.8701C26.5315 27.4773 28.6317 25.6948 29.9682 23.4149ZM31.623 24.1445C31.3684 24.0864 31.1138 24.2605 31.0581 24.5258C30.6683 26.4244 29.467 27.6845 27.3827 28.3726C27.1281 28.4555 26.9929 28.7374 27.0725 28.9944C27.152 29.2598 27.4305 29.4007 27.6691 29.3178C30.0717 28.5219 31.5275 26.9799 31.9889 24.7248C32.0446 24.4595 31.8855 24.2025 31.623 24.1445Z" fill="#100C08"/>
</g>
</svg>
