<svg width="32" height="34" viewBox="0 0 32 34" fill="none" xmlns="http://www.w3.org/2000/svg">
<g id="SVG">
<path id="Vector" d="M31.977 1.42753C31.9569 1.33604 31.9237 1.25086 31.8795 1.17684C31.8352 1.10282 31.7807 1.04142 31.719 0.996136C31.6573 0.950854 31.5897 0.922581 31.52 0.912931C31.4503 0.903282 31.3799 0.912444 31.3128 0.939896L25.2438 3.42261C22.2449 4.64997 19.1306 5.27334 15.9995 5.27297C15.2929 5.27297 14.5787 5.23869 13.8711 5.17478L13.8388 5.04296C13.8034 4.89817 13.7355 4.77222 13.6447 4.68298C13.5538 4.59373 13.4448 4.5457 13.3329 4.54569H11.1995C11.0771 4.54578 10.9585 4.60334 10.8635 4.70869C9.47503 4.40252 8.10264 3.97294 6.75521 3.4227L0.686227 0.939987C0.550735 0.884532 0.40464 0.904745 0.280079 0.996177C0.155518 1.08761 0.0626936 1.24277 0.0220274 1.42753C-0.018639 1.61229 -0.00381667 1.81151 0.0632334 1.98136C0.130284 2.15122 0.24407 2.2778 0.379559 2.33325L6.44866 4.81596C7.71817 5.33469 9.00919 5.74979 10.3149 6.05905L10.1891 6.40223C10.1521 6.50322 10.1328 6.61459 10.1328 6.7275C10.1328 6.8404 10.1521 6.95181 10.1891 7.05279L10.6662 8.35377V12.3255L9.0662 15.5982V14.7275C9.20765 14.7275 9.34329 14.6508 9.44332 14.5145C9.54335 14.3781 9.59953 14.1931 9.59953 14.0002V12.5456C9.59953 11.5813 9.31858 10.6563 8.81849 9.97439C8.31841 9.29243 7.64012 8.90932 6.93286 8.90932C6.22561 8.90932 5.54735 9.29243 5.04726 9.97439C4.54716 10.6563 4.26622 11.5813 4.26622 12.5456V14.0002C4.26622 14.1931 4.32241 14.3781 4.42242 14.5145C4.52244 14.6508 4.6581 14.7275 4.79954 14.7275V16.182C4.79998 16.654 4.8845 17.1187 5.04582 17.5363C5.20715 17.9539 5.44046 18.3119 5.72568 18.5792C5.55748 18.825 5.40419 19.089 5.26734 19.3686C5.11819 19.6736 5.01749 20.0179 4.97175 20.3791C4.926 20.7404 4.93621 21.1107 5.00172 21.4664C5.06723 21.8219 5.18659 22.1548 5.35213 22.4437C5.51766 22.7327 5.72571 22.9711 5.96285 23.1438C5.98063 23.1787 6.00054 23.2115 6.02246 23.2417L10.0414 28.7219C10.3378 29.1284 10.6904 29.4507 11.0788 29.6701C11.4672 29.8895 11.8837 30.0016 12.3041 30.0001H12.3307C13.1058 30.0002 13.8546 29.6165 14.4379 28.9205L17.5749 25.1773L20.9555 29.7871L23.0888 32.6962C23.1383 32.7637 23.1972 32.8173 23.2619 32.8539C23.3265 32.8904 23.3959 32.9092 23.466 32.9092C23.536 32.9092 23.6053 32.8904 23.67 32.8539C23.7348 32.8173 23.7935 32.7637 23.8431 32.6962L27.0431 28.3326C27.0926 28.2651 27.1319 28.1849 27.1587 28.0966C27.1855 28.0084 27.1993 27.9138 27.1993 27.8183C27.1993 27.7228 27.1855 27.6282 27.1587 27.54C27.1319 27.4517 27.0926 27.3715 27.0431 27.304L26.3431 26.3495L27.1722 22.9578C27.2034 22.8297 27.208 22.6921 27.1852 22.5607C27.1625 22.4293 27.1134 22.309 27.0433 22.2135L25.9767 20.759C25.8975 20.651 25.7955 20.5797 25.685 20.5552C25.5745 20.5308 25.4612 20.5544 25.361 20.6226L23.4469 21.9274L19.155 19.4676C18.7168 18.933 18.1783 18.5751 17.5995 18.4339V16.182C17.5995 16.0293 17.5643 15.8806 17.4988 15.7567C17.4334 15.6329 17.341 15.5403 17.2348 15.492L16.0815 14.9678C16.0815 14.9678 16.5329 11.8662 16.5329 11.8184V6.72086C19.5886 6.65469 22.6231 6.01371 25.5503 4.81606L31.6194 2.33325C31.6865 2.3058 31.749 2.2606 31.8033 2.20022C31.8575 2.13985 31.9026 2.06548 31.9358 1.98138C31.969 1.89727 31.9897 1.80507 31.9968 1.71004C32.0039 1.61501 31.9971 1.51901 31.977 1.42753ZM15.4662 6.72041V11.7464L15.3297 12.6773L14.1959 8.18203L14.3432 7.78014C14.3745 7.69468 14.3932 7.60171 14.3982 7.50642C14.4031 7.41113 14.3943 7.31548 14.3721 7.22488L14.2346 6.66196C14.6449 6.69166 15.0554 6.71114 15.4662 6.72041ZM7.60386 23.3411C8.19918 23.1553 8.74377 22.7436 9.17464 22.1535L10.622 20.1799L12.0849 22.6734L9.59953 26.0625L7.60386 23.3411ZM6.15479 20.1755C6.38833 19.6972 6.68403 19.2812 7.02738 18.9481C7.03681 18.9395 7.04593 18.9305 7.05494 18.9209C7.27165 18.7152 7.50483 18.5439 7.74999 18.4104L8.93772 17.7624L9.91195 19.0911L8.42039 21.125C8.21737 21.4033 7.97595 21.624 7.70993 21.7742C7.44398 21.9244 7.15882 22.0012 6.87094 22.0002C6.71515 22.0002 6.56226 21.9425 6.42863 21.8334C6.29494 21.7242 6.18555 21.5676 6.11206 21.3803C6.03852 21.193 6.00368 20.982 6.01126 20.7698C6.01879 20.5576 6.06833 20.3522 6.15479 20.1755ZM11.3348 19.0664L13.7668 14.4229C13.8315 14.2995 13.8662 14.1518 13.8662 14.0002V11.347L14.81 15.0891L14.161 15.5315C14.0724 15.5919 13.9979 15.6848 13.9458 15.7997C13.8938 15.9145 13.8662 16.0469 13.8662 16.182V17.3814L12.1062 20.3813L11.3348 19.0664ZM11.6434 12.9492C11.7018 12.8297 11.7329 12.6892 11.7329 12.5456V8.18203C11.7329 8.06914 11.7135 7.95774 11.6765 7.85676L11.2625 6.7275L11.5291 6.00023H12.9484L12.9713 6.09369L12.9734 6.10223L13.2904 7.39898L12.8558 8.58405C12.8188 8.68502 12.7995 8.79637 12.7995 8.90932V13.7672L10.5981 17.9697L9.75248 16.8165L11.6434 12.9492ZM5.33288 12.5456C5.33288 11.967 5.50144 11.4121 5.8015 11.0029C6.10158 10.5937 6.50851 10.3638 6.93286 10.3638C7.35722 10.3638 7.76415 10.5937 8.06424 11.0029C8.36427 11.4121 8.53286 11.967 8.53286 12.5456V13.2729H5.33288V12.5456ZM7.99953 14.7275V16.182C7.99953 16.3789 7.9702 16.5737 7.91331 16.7547L7.35384 17.0598C7.09778 17.1996 6.8515 17.3708 6.61814 17.5714C6.40054 17.4793 6.21026 17.2949 6.07497 17.045C5.93968 16.795 5.86655 16.4927 5.86621 16.182V14.7275H7.99953ZM17.2483 23.6346L13.7357 27.8255C13.3469 28.2896 12.8476 28.5455 12.3309 28.5456H12.3042C12.024 28.5466 11.7464 28.4719 11.4874 28.3256C11.2285 28.1793 10.9934 27.9645 10.7958 27.6935L10.3538 27.091L13.1595 23.2648L15.5995 20.4926C15.983 20.0574 16.466 19.8188 16.965 19.8184H17.0283C17.3086 19.8173 17.5862 19.8921 17.8451 20.0383C18.1041 20.1846 18.3391 20.3995 18.5368 20.6704L22.7119 26.3638L21.3328 28.2443L17.9767 23.6677C17.881 23.5372 17.7525 23.4612 17.6173 23.455C17.482 23.4489 17.3501 23.5131 17.2483 23.6346ZM23.4661 31.1535L22.0871 29.2728L23.7543 26.9994L24.9221 26.4686L25.9119 27.8183L23.4661 31.1535ZM25.4942 22.1578L26.0559 22.9239L25.4995 25.1992L25.443 25.1222C25.373 25.0267 25.2848 24.9597 25.1884 24.9286C25.092 24.8976 24.9912 24.9038 24.8972 24.9465L23.9995 25.3547V23.1769L25.4942 22.1578ZM22.9328 24.6079L21.1652 22.1975L22.9328 23.2106V24.6079ZM16.5329 18.4044C15.938 18.5152 15.3779 18.8517 14.9164 19.3753L12.8764 21.6934L12.7897 21.5454L14.8164 18.0908C14.8919 17.9618 14.9329 17.8016 14.9329 17.6366V16.6315L15.5071 16.24L16.5329 16.7062V18.4044Z" fill="white"/>
</g>
</svg>
