<svg xmlns="http://www.w3.org/2000/svg" xmlns:xlink="http://www.w3.org/1999/xlink" width="500" zoomAndPan="magnify" viewBox="0 0 375 374.999991" height="500" preserveAspectRatio="xMidYMid meet" version="1.0"><defs><g/><clipPath id="5466c0e1d3"><path d="M 53.570312 90.722656 L 321.429688 90.722656 L 321.429688 291.617188 L 53.570312 291.617188 Z M 53.570312 90.722656 " clip-rule="nonzero"/></clipPath><clipPath id="74d4db5f13"><path d="M 186 141 L 238 141 L 238 163 L 186 163 Z M 186 141 " clip-rule="nonzero"/></clipPath><clipPath id="0b7be42b84"><path d="M 150.597656 124.542969 L 246.613281 90.757812 L 280.042969 185.761719 L 184.027344 219.546875 Z M 150.597656 124.542969 " clip-rule="nonzero"/></clipPath><clipPath id="a58006bdf8"><path d="M 150.597656 124.542969 L 246.613281 90.757812 L 280.042969 185.761719 L 184.027344 219.546875 Z M 150.597656 124.542969 " clip-rule="nonzero"/></clipPath><clipPath id="ad4bb40622"><path d="M 182 98 L 266 98 L 266 162 L 182 162 Z M 182 98 " clip-rule="nonzero"/></clipPath><clipPath id="7c98ec0d21"><path d="M 150.597656 124.542969 L 246.613281 90.757812 L 280.042969 185.761719 L 184.027344 219.546875 Z M 150.597656 124.542969 " clip-rule="nonzero"/></clipPath><clipPath id="847c6f5dc6"><path d="M 150.597656 124.542969 L 246.613281 90.757812 L 280.042969 185.761719 L 184.027344 219.546875 Z M 150.597656 124.542969 " clip-rule="nonzero"/></clipPath><clipPath id="70e440240a"><path d="M 198 107 L 260 107 L 260 169 L 198 169 Z M 198 107 " clip-rule="nonzero"/></clipPath><clipPath id="365a2a3596"><path d="M 150.597656 124.542969 L 246.613281 90.757812 L 280.042969 185.761719 L 184.027344 219.546875 Z M 150.597656 124.542969 " clip-rule="nonzero"/></clipPath><clipPath id="16db617177"><path d="M 150.597656 124.542969 L 246.613281 90.757812 L 280.042969 185.761719 L 184.027344 219.546875 Z M 150.597656 124.542969 " clip-rule="nonzero"/></clipPath><clipPath id="b6118a6a94"><path d="M 190.203125 111.941406 L 247.136719 91.910156 L 271.433594 160.957031 L 214.5 180.992188 Z M 190.203125 111.941406 " clip-rule="nonzero"/></clipPath><clipPath id="01bf6c0599"><path d="M 176 101 L 238 101 L 238 220 L 176 220 Z M 176 101 " clip-rule="nonzero"/></clipPath><clipPath id="5860acf543"><path d="M 150.597656 124.542969 L 246.613281 90.757812 L 280.042969 185.761719 L 184.027344 219.546875 Z M 150.597656 124.542969 " clip-rule="nonzero"/></clipPath><clipPath id="564ce154ae"><path d="M 150.597656 124.542969 L 246.613281 90.757812 L 280.042969 185.761719 L 184.027344 219.546875 Z M 150.597656 124.542969 " clip-rule="nonzero"/></clipPath><clipPath id="7277ea8589"><path d="M 150.613281 124.589844 L 218.714844 100.628906 L 252.175781 195.726562 L 184.078125 219.691406 Z M 150.613281 124.589844 " clip-rule="nonzero"/></clipPath><clipPath id="70174f2f0b"><path d="M 185 114 L 247 114 L 247 215 L 185 215 Z M 185 114 " clip-rule="nonzero"/></clipPath><clipPath id="d7fbb3f954"><path d="M 150.597656 124.542969 L 246.613281 90.757812 L 280.042969 185.761719 L 184.027344 219.546875 Z M 150.597656 124.542969 " clip-rule="nonzero"/></clipPath><clipPath id="25fdd60872"><path d="M 150.597656 124.542969 L 246.613281 90.757812 L 280.042969 185.761719 L 184.027344 219.546875 Z M 150.597656 124.542969 " clip-rule="nonzero"/></clipPath><clipPath id="64a89f6d59"><path d="M 183 116 L 251 116 L 251 214 L 183 214 Z M 183 116 " clip-rule="nonzero"/></clipPath><clipPath id="57a8e4afcc"><path d="M 150.597656 124.542969 L 246.613281 90.757812 L 280.042969 185.761719 L 184.027344 219.546875 Z M 150.597656 124.542969 " clip-rule="nonzero"/></clipPath><clipPath id="34854d5d53"><path d="M 150.597656 124.542969 L 246.613281 90.757812 L 280.042969 185.761719 L 184.027344 219.546875 Z M 150.597656 124.542969 " clip-rule="nonzero"/></clipPath><clipPath id="71e127989e"><path d="M 130 142 L 182 142 L 182 163 L 130 163 Z M 130 142 " clip-rule="nonzero"/></clipPath><clipPath id="629a520342"><path d="M 92.082031 174.1875 L 139.246094 83.988281 L 228.496094 130.65625 L 181.332031 220.855469 Z M 92.082031 174.1875 " clip-rule="nonzero"/></clipPath><clipPath id="5362521f1f"><path d="M 92.082031 174.1875 L 139.246094 83.988281 L 228.496094 130.65625 L 181.332031 220.855469 Z M 92.082031 174.1875 " clip-rule="nonzero"/></clipPath><clipPath id="19c00e6f93"><path d="M 110 98 L 196 98 L 196 157 L 110 157 Z M 110 98 " clip-rule="nonzero"/></clipPath><clipPath id="8b6c54613c"><path d="M 92.082031 174.1875 L 139.246094 83.988281 L 228.496094 130.65625 L 181.332031 220.855469 Z M 92.082031 174.1875 " clip-rule="nonzero"/></clipPath><clipPath id="34f996818b"><path d="M 92.082031 174.1875 L 139.246094 83.988281 L 228.496094 130.65625 L 181.332031 220.855469 Z M 92.082031 174.1875 " clip-rule="nonzero"/></clipPath><clipPath id="2a298828eb"><path d="M 118 101 L 196 101 L 196 162 L 118 162 Z M 118 101 " clip-rule="nonzero"/></clipPath><clipPath id="d5b409f7bb"><path d="M 92.082031 174.1875 L 139.246094 83.988281 L 228.496094 130.65625 L 181.332031 220.855469 Z M 92.082031 174.1875 " clip-rule="nonzero"/></clipPath><clipPath id="ff8454f088"><path d="M 92.082031 174.1875 L 139.246094 83.988281 L 228.496094 130.65625 L 181.332031 220.855469 Z M 92.082031 174.1875 " clip-rule="nonzero"/></clipPath><clipPath id="e043eabdc1"><path d="M 112.445312 137.957031 L 140.414062 84.46875 L 205.28125 118.390625 L 177.3125 171.875 Z M 112.445312 137.957031 " clip-rule="nonzero"/></clipPath><clipPath id="84e089fb0c"><path d="M 119 111 L 182 111 L 182 221 L 119 221 Z M 119 111 " clip-rule="nonzero"/></clipPath><clipPath id="11f06e13bf"><path d="M 92.082031 174.1875 L 139.246094 83.988281 L 228.496094 130.65625 L 181.332031 220.855469 Z M 92.082031 174.1875 " clip-rule="nonzero"/></clipPath><clipPath id="ee629f4921"><path d="M 92.082031 174.1875 L 139.246094 83.988281 L 228.496094 130.65625 L 181.332031 220.855469 Z M 92.082031 174.1875 " clip-rule="nonzero"/></clipPath><clipPath id="0c8a8155b8"><path d="M 92.125 174.207031 L 125.578125 110.234375 L 214.917969 156.949219 L 181.464844 220.921875 Z M 92.125 174.207031 " clip-rule="nonzero"/></clipPath><clipPath id="314b301ff1"><path d="M 141 102 L 182 102 L 182 214 L 141 214 Z M 141 102 " clip-rule="nonzero"/></clipPath><clipPath id="f8233dca78"><path d="M 92.082031 174.1875 L 139.246094 83.988281 L 228.496094 130.65625 L 181.332031 220.855469 Z M 92.082031 174.1875 " clip-rule="nonzero"/></clipPath><clipPath id="d244559db9"><path d="M 92.082031 174.1875 L 139.246094 83.988281 L 228.496094 130.65625 L 181.332031 220.855469 Z M 92.082031 174.1875 " clip-rule="nonzero"/></clipPath><clipPath id="3f191061d6"><path d="M 111 103 L 194 103 L 194 215 L 111 215 Z M 111 103 " clip-rule="nonzero"/></clipPath><clipPath id="d9480e59f8"><path d="M 92.082031 174.1875 L 139.246094 83.988281 L 228.496094 130.65625 L 181.332031 220.855469 Z M 92.082031 174.1875 " clip-rule="nonzero"/></clipPath><clipPath id="ca3a45cce4"><path d="M 92.082031 174.1875 L 139.246094 83.988281 L 228.496094 130.65625 L 181.332031 220.855469 Z M 92.082031 174.1875 " clip-rule="nonzero"/></clipPath><clipPath id="2be6b8e292"><path d="M 101 165 L 126 165 L 126 215 L 101 215 Z M 101 165 " clip-rule="nonzero"/></clipPath><clipPath id="553cb48e88"><path d="M 82.589844 250.164062 L 53.601562 152.59375 L 150.148438 123.910156 L 179.132812 221.484375 Z M 82.589844 250.164062 " clip-rule="nonzero"/></clipPath><clipPath id="d767c4b5c1"><path d="M 82.589844 250.164062 L 53.601562 152.59375 L 150.148438 123.910156 L 179.132812 221.484375 Z M 82.589844 250.164062 " clip-rule="nonzero"/></clipPath><clipPath id="32f47f65ea"><path d="M 82.589844 250.164062 L 53.601562 152.59375 L 150.148438 123.910156 L 179.132812 221.484375 Z M 82.589844 250.164062 " clip-rule="nonzero"/></clipPath><clipPath id="c07de259ed"><path d="M 60 136 L 123 136 L 123 219 L 60 219 Z M 60 136 " clip-rule="nonzero"/></clipPath><clipPath id="a06b98b156"><path d="M 82.589844 250.164062 L 53.601562 152.59375 L 150.148438 123.910156 L 179.132812 221.484375 Z M 82.589844 250.164062 " clip-rule="nonzero"/></clipPath><clipPath id="aeaa11ca0f"><path d="M 82.589844 250.164062 L 53.601562 152.59375 L 150.148438 123.910156 L 179.132812 221.484375 Z M 82.589844 250.164062 " clip-rule="nonzero"/></clipPath><clipPath id="8472d9cade"><path d="M 82.589844 250.164062 L 53.601562 152.59375 L 150.148438 123.910156 L 179.132812 221.484375 Z M 82.589844 250.164062 " clip-rule="nonzero"/></clipPath><clipPath id="829ca05368"><path d="M 68 141 L 132 141 L 132 202 L 68 202 Z M 68 141 " clip-rule="nonzero"/></clipPath><clipPath id="0034e4c86d"><path d="M 82.589844 250.164062 L 53.601562 152.59375 L 150.148438 123.910156 L 179.132812 221.484375 Z M 82.589844 250.164062 " clip-rule="nonzero"/></clipPath><clipPath id="520083d0b0"><path d="M 82.589844 250.164062 L 53.601562 152.59375 L 150.148438 123.910156 L 179.132812 221.484375 Z M 82.589844 250.164062 " clip-rule="nonzero"/></clipPath><clipPath id="86057f1952"><path d="M 82.589844 250.164062 L 53.601562 152.59375 L 150.148438 123.910156 L 179.132812 221.484375 Z M 82.589844 250.164062 " clip-rule="nonzero"/></clipPath><clipPath id="66adb1f5ae"><path d="M 71.976562 210.027344 L 54.804688 152.230469 L 124.828125 131.429688 L 142 189.226562 Z M 71.976562 210.027344 " clip-rule="nonzero"/></clipPath><clipPath id="bac572ad2b"><path d="M 62 165 L 180 165 L 180 225 L 62 225 Z M 62 165 " clip-rule="nonzero"/></clipPath><clipPath id="48ffd6c82a"><path d="M 82.589844 250.164062 L 53.601562 152.59375 L 150.148438 123.910156 L 179.132812 221.484375 Z M 82.589844 250.164062 " clip-rule="nonzero"/></clipPath><clipPath id="ab194edab5"><path d="M 82.589844 250.164062 L 53.601562 152.59375 L 150.148438 123.910156 L 179.132812 221.484375 Z M 82.589844 250.164062 " clip-rule="nonzero"/></clipPath><clipPath id="5ff2bd2b25"><path d="M 82.589844 250.164062 L 53.601562 152.59375 L 150.148438 123.910156 L 179.132812 221.484375 Z M 82.589844 250.164062 " clip-rule="nonzero"/></clipPath><clipPath id="55cc19ea07"><path d="M 82.636719 250.152344 L 62.101562 181.023438 L 158.539062 152.371094 L 179.078125 221.5 Z M 82.636719 250.152344 " clip-rule="nonzero"/></clipPath><clipPath id="c4db55fa98"><path d="M 77 153 L 174 153 L 174 219 L 77 219 Z M 77 153 " clip-rule="nonzero"/></clipPath><clipPath id="62d1876f50"><path d="M 82.589844 250.164062 L 53.601562 152.59375 L 150.148438 123.910156 L 179.132812 221.484375 Z M 82.589844 250.164062 " clip-rule="nonzero"/></clipPath><clipPath id="d9dc0c78a3"><path d="M 82.589844 250.164062 L 53.601562 152.59375 L 150.148438 123.910156 L 179.132812 221.484375 Z M 82.589844 250.164062 " clip-rule="nonzero"/></clipPath><clipPath id="7f5220f19f"><path d="M 82.589844 250.164062 L 53.601562 152.59375 L 150.148438 123.910156 L 179.132812 221.484375 Z M 82.589844 250.164062 " clip-rule="nonzero"/></clipPath><clipPath id="6d63e152c7"><path d="M 77 152 L 173 152 L 173 219 L 77 219 Z M 77 152 " clip-rule="nonzero"/></clipPath><clipPath id="1cfce9abcb"><path d="M 82.589844 250.164062 L 53.601562 152.59375 L 150.148438 123.910156 L 179.132812 221.484375 Z M 82.589844 250.164062 " clip-rule="nonzero"/></clipPath><clipPath id="7d441b151c"><path d="M 82.589844 250.164062 L 53.601562 152.59375 L 150.148438 123.910156 L 179.132812 221.484375 Z M 82.589844 250.164062 " clip-rule="nonzero"/></clipPath><clipPath id="f962a30243"><path d="M 82.589844 250.164062 L 53.601562 152.59375 L 150.148438 123.910156 L 179.132812 221.484375 Z M 82.589844 250.164062 " clip-rule="nonzero"/></clipPath><clipPath id="885e0385ef"><path d="M 242 165 L 266 165 L 266 215 L 242 215 Z M 242 165 " clip-rule="nonzero"/></clipPath><clipPath id="805b62abf4"><path d="M 228.242188 127.355469 L 321.328125 168.535156 L 280.582031 260.640625 L 187.5 219.460938 Z M 228.242188 127.355469 " clip-rule="nonzero"/></clipPath><clipPath id="7f7774ab63"><path d="M 228.242188 127.355469 L 321.328125 168.535156 L 280.582031 260.640625 L 187.5 219.460938 Z M 228.242188 127.355469 " clip-rule="nonzero"/></clipPath><clipPath id="11933c525d"><path d="M 250 143 L 307 143 L 307 227 L 250 227 Z M 250 143 " clip-rule="nonzero"/></clipPath><clipPath id="d8d71a77e0"><path d="M 228.242188 127.355469 L 321.328125 168.535156 L 280.582031 260.640625 L 187.5 219.460938 Z M 228.242188 127.355469 " clip-rule="nonzero"/></clipPath><clipPath id="9b0ed1ef29"><path d="M 228.242188 127.355469 L 321.328125 168.535156 L 280.582031 260.640625 L 187.5 219.460938 Z M 228.242188 127.355469 " clip-rule="nonzero"/></clipPath><clipPath id="0530ff63fb"><path d="M 245 150 L 307 150 L 307 228 L 245 228 Z M 245 150 " clip-rule="nonzero"/></clipPath><clipPath id="c1cf14943a"><path d="M 228.242188 127.355469 L 321.328125 168.535156 L 280.582031 260.640625 L 187.5 219.460938 Z M 228.242188 127.355469 " clip-rule="nonzero"/></clipPath><clipPath id="1391b7f3ac"><path d="M 228.242188 127.355469 L 321.328125 168.535156 L 280.582031 260.640625 L 187.5 219.460938 Z M 228.242188 127.355469 " clip-rule="nonzero"/></clipPath><clipPath id="2fcffd74bd"><path d="M 265.722656 145.3125 L 320.921875 169.734375 L 291.308594 236.675781 L 236.109375 212.253906 Z M 265.722656 145.3125 " clip-rule="nonzero"/></clipPath><clipPath id="e0b027a947"><path d="M 187 153 L 293 153 L 293 220 L 187 220 Z M 187 153 " clip-rule="nonzero"/></clipPath><clipPath id="3c8da2690c"><path d="M 228.242188 127.355469 L 321.328125 168.535156 L 280.582031 260.640625 L 187.5 219.460938 Z M 228.242188 127.355469 " clip-rule="nonzero"/></clipPath><clipPath id="341624a0d8"><path d="M 228.242188 127.355469 L 321.328125 168.535156 L 280.582031 260.640625 L 187.5 219.460938 Z M 228.242188 127.355469 " clip-rule="nonzero"/></clipPath><clipPath id="ed9f694260"><path d="M 228.222656 127.402344 L 294.242188 156.605469 L 253.457031 248.804688 L 187.4375 219.597656 Z M 228.222656 127.402344 " clip-rule="nonzero"/></clipPath><clipPath id="64ef3b7c07"><path d="M 194 175 L 305 175 L 305 220 L 194 220 Z M 194 175 " clip-rule="nonzero"/></clipPath><clipPath id="25bbeb590b"><path d="M 228.242188 127.355469 L 321.328125 168.535156 L 280.582031 260.640625 L 187.5 219.460938 Z M 228.242188 127.355469 " clip-rule="nonzero"/></clipPath><clipPath id="3098927b9c"><path d="M 228.242188 127.355469 L 321.328125 168.535156 L 280.582031 260.640625 L 187.5 219.460938 Z M 228.242188 127.355469 " clip-rule="nonzero"/></clipPath><clipPath id="d1de9a27e3"><path d="M 194 145 L 303 145 L 303 227 L 194 227 Z M 194 145 " clip-rule="nonzero"/></clipPath><clipPath id="6595f14742"><path d="M 228.242188 127.355469 L 321.328125 168.535156 L 280.582031 260.640625 L 187.5 219.460938 Z M 228.242188 127.355469 " clip-rule="nonzero"/></clipPath><clipPath id="6b19dde0c5"><path d="M 228.242188 127.355469 L 321.328125 168.535156 L 280.582031 260.640625 L 187.5 219.460938 Z M 228.242188 127.355469 " clip-rule="nonzero"/></clipPath></defs><rect x="-37.5" width="450" fill="#ffffff" y="-37.499999" height="449.999989" fill-opacity="1"/><g clip-path="url(#5466c0e1d3)"><path fill="#fffbfb" d="M 53.570312 90.722656 L 321.429688 90.722656 L 321.429688 291.617188 L 53.570312 291.617188 Z M 53.570312 90.722656 " fill-opacity="1" fill-rule="nonzero"/></g><g clip-path="url(#74d4db5f13)"><g clip-path="url(#0b7be42b84)"><g clip-path="url(#a58006bdf8)"><path fill="#f9b53f" d="M 205.222656 142.96875 C 209.425781 143.796875 213.992188 145.226562 218.671875 147.535156 C 228.234375 152.292969 234.210938 158.824219 237.339844 162.792969 C 235.199219 162.96875 232.210938 163.101562 228.609375 162.890625 C 223.097656 162.542969 216.167969 161.371094 208.773438 158.21875 C 197.519531 153.457031 190.40625 146.425781 186.871094 142.390625 C 190.28125 141.9375 197.046875 141.355469 205.222656 142.96875 " fill-opacity="1" fill-rule="nonzero"/></g></g></g><g clip-path="url(#ad4bb40622)"><g clip-path="url(#7c98ec0d21)"><g clip-path="url(#847c6f5dc6)"><path fill="#f14947" d="M 265.886719 151.890625 C 265.824219 150.800781 264.886719 149.957031 263.789062 150 L 255.335938 150.453125 C 254.246094 150.515625 253.398438 151.453125 253.445312 152.550781 C 253.507812 153.640625 254.445312 154.484375 255.542969 154.441406 L 263.996094 153.988281 C 264.1875 153.984375 264.386719 153.9375 264.554688 153.875 C 265.375 153.589844 265.929688 152.796875 265.886719 151.890625 Z M 234.609375 111.355469 L 234.898438 100.695312 C 234.917969 99.597656 234.0625 98.679688 232.964844 98.660156 C 231.859375 98.621094 230.949219 99.496094 230.929688 100.59375 L 230.640625 111.257812 C 230.621094 112.351562 231.476562 113.269531 232.574219 113.289062 C 232.828125 113.285156 233.078125 113.261719 233.289062 113.1875 C 234.03125 112.929688 234.59375 112.21875 234.609375 111.355469 Z M 191.976562 124.15625 C 192.65625 123.296875 192.488281 122.027344 191.636719 121.367188 L 185.371094 116.496094 C 184.511719 115.816406 183.242188 115.984375 182.582031 116.835938 C 181.902344 117.695312 182.070312 118.960938 182.921875 119.625 L 189.1875 124.496094 C 189.746094 124.917969 190.460938 125.007812 191.070312 124.796875 C 191.417969 124.695312 191.726562 124.476562 191.976562 124.15625 Z M 217.785156 161.226562 C 217.421875 161.355469 217.027344 161.386719 216.625 161.273438 C 215.566406 161.003906 214.921875 159.902344 215.191406 158.847656 C 215.871094 156.214844 217.589844 151.378906 221.363281 148.679688 C 225.84375 145.5 230.980469 145.210938 235.945312 144.917969 C 237.28125 144.832031 238.542969 144.773438 239.796875 144.632812 C 242.542969 144.351562 245.371094 143.886719 247.3125 142.414062 C 249.421875 140.816406 250.75 138.085938 251.757812 135.613281 C 252.171875 134.589844 253.347656 134.113281 254.351562 134.53125 C 255.371094 134.941406 255.851562 136.117188 255.433594 137.121094 C 254.210938 140.09375 252.585938 143.425781 249.710938 145.589844 C 246.992188 147.636719 243.523438 148.238281 240.203125 148.574219 C 238.859375 148.703125 237.5 148.796875 236.175781 148.855469 C 231.570312 149.128906 227.230469 149.375 223.667969 151.890625 C 221.652344 153.324219 219.96875 156.203125 219.035156 159.804688 C 218.875 160.5 218.390625 161.015625 217.785156 161.226562 " fill-opacity="1" fill-rule="nonzero"/></g></g></g><g clip-path="url(#70e440240a)"><g clip-path="url(#365a2a3596)"><g clip-path="url(#16db617177)"><g clip-path="url(#b6118a6a94)"><path fill="#446db7" d="M 250.773438 168.046875 C 251.703125 167.464844 251.992188 166.226562 251.410156 165.300781 L 248.738281 161.046875 C 248.15625 160.117188 246.925781 159.84375 245.992188 160.410156 C 245.0625 160.992188 244.769531 162.226562 245.355469 163.15625 L 248.027344 167.410156 C 248.523438 168.21875 249.511719 168.535156 250.367188 168.230469 C 250.507812 168.203125 250.652344 168.132812 250.773438 168.046875 Z M 259.238281 127.703125 C 259.621094 126.667969 259.113281 125.523438 258.078125 125.136719 C 256.421875 124.503906 253.789062 123.890625 250.644531 124.484375 C 247.050781 125.148438 244.617188 127.097656 243.484375 128.199219 C 242.707031 128.964844 242.683594 130.234375 243.449219 131.011719 C 244.214844 131.789062 245.484375 131.8125 246.261719 131.046875 C 247.074219 130.25 248.808594 128.871094 251.378906 128.394531 C 253.605469 127.972656 255.492188 128.421875 256.679688 128.878906 C 257.128906 129.0625 257.613281 129.042969 258.03125 128.894531 C 258.582031 128.699219 259.035156 128.285156 259.238281 127.703125 Z M 209.4375 160.105469 C 208.863281 160.304688 208.226562 160.25 207.699219 159.902344 C 206.78125 159.304688 206.519531 158.074219 207.117188 157.15625 C 209.828125 152.953125 211.0625 148.929688 210.730469 145.195312 C 210.34375 140.757812 207.953125 137.539062 205.40625 134.136719 C 202.648438 130.425781 199.503906 126.230469 199.027344 120.136719 C 198.722656 116.414062 199.4375 112.617188 201.128906 108.855469 C 201.589844 107.859375 202.757812 107.40625 203.753906 107.871094 C 204.75 108.332031 205.203125 109.496094 204.742188 110.492188 C 203.328125 113.640625 202.722656 116.785156 202.976562 119.816406 C 203.371094 124.761719 205.914062 128.164062 208.589844 131.757812 C 211.347656 135.46875 214.210938 139.289062 214.691406 144.851562 C 215.089844 149.5 213.660156 154.363281 210.441406 159.320312 C 210.195312 159.707031 209.835938 159.964844 209.4375 160.105469 " fill-opacity="1" fill-rule="nonzero"/></g></g></g></g><g clip-path="url(#01bf6c0599)"><g clip-path="url(#5860acf543)"><g clip-path="url(#564ce154ae)"><g clip-path="url(#7277ea8589)"><path fill="#3ba27a" d="M 186.78125 136.308594 C 186.65625 135.21875 185.675781 134.433594 184.585938 134.558594 L 178.257812 135.289062 C 177.167969 135.414062 176.382812 136.398438 176.507812 137.488281 C 176.636719 138.574219 177.617188 139.363281 178.707031 139.234375 L 185.035156 138.503906 C 185.179688 138.496094 185.332031 138.445312 185.464844 138.398438 C 186.320312 138.09375 186.894531 137.230469 186.78125 136.308594 Z M 208.78125 158.238281 C 205.542969 156.878906 202.667969 155.324219 200.113281 153.722656 C 197.96875 152.359375 196.042969 150.964844 194.371094 149.609375 C 191.046875 146.90625 188.554688 144.320312 186.882812 142.429688 L 185.855469 170.433594 L 185.597656 177.46875 L 184.078125 219.691406 L 189.191406 214.234375 L 193.558594 209.578125 L 215.574219 186.054688 L 220.394531 180.917969 L 237.34375 162.808594 C 231.898438 163.25 221.007812 163.40625 208.78125 158.238281 Z M 217.976562 118.578125 C 217.386719 118.785156 216.695312 118.707031 216.144531 118.300781 C 215.253906 117.652344 215.058594 116.417969 215.707031 115.527344 C 216.308594 114.695312 217.675781 112.441406 217.269531 109.460938 C 216.957031 107.179688 215.746094 105.617188 215.039062 104.882812 C 214.285156 104.078125 214.316406 102.828125 215.117188 102.074219 C 215.921875 101.320312 217.171875 101.351562 217.925781 102.15625 C 218.945312 103.230469 220.742188 105.546875 221.207031 108.929688 C 221.816406 113.335938 219.816406 116.644531 218.925781 117.878906 C 218.675781 118.203125 218.335938 118.449219 217.976562 118.578125 " fill-opacity="1" fill-rule="nonzero"/></g></g></g></g><g clip-path="url(#70174f2f0b)"><g clip-path="url(#d7fbb3f954)"><g clip-path="url(#25fdd60872)"><path fill="#f9b53f" d="M 216.316406 179.660156 C 214.453125 180.3125 213.460938 182.351562 214.121094 184.234375 C 214.394531 185.015625 214.917969 185.644531 215.554688 186.0625 L 220.375 180.925781 C 219.46875 179.683594 217.820312 179.128906 216.316406 179.660156 Z M 185.855469 170.429688 L 185.597656 177.46875 C 186.226562 177.613281 186.875 177.578125 187.523438 177.347656 C 189.386719 176.691406 190.378906 174.65625 189.714844 172.773438 C 189.148438 171.15625 187.503906 170.195312 185.855469 170.429688 Z M 222.566406 165.464844 C 220.703125 166.121094 219.714844 168.179688 220.371094 170.042969 C 221.027344 171.90625 223.066406 172.902344 224.949219 172.238281 C 226.8125 171.582031 227.808594 169.542969 227.144531 167.660156 C 226.488281 165.796875 224.449219 164.804688 222.566406 165.464844 Z M 197.667969 182.4375 C 195.804688 183.09375 194.8125 185.128906 195.476562 187.011719 C 196.132812 188.878906 198.167969 189.871094 200.050781 189.207031 C 201.9375 188.546875 202.910156 186.511719 202.246094 184.628906 C 201.585938 182.746094 199.535156 181.78125 197.667969 182.4375 Z M 188.996094 207.421875 C 187.132812 208.078125 186.136719 210.113281 186.800781 212 C 187.203125 213.140625 188.101562 213.933594 189.179688 214.261719 L 193.558594 209.578125 C 192.882812 207.71875 190.859375 206.765625 188.996094 207.421875 Z M 194.363281 149.589844 C 193.453125 150.527344 193.09375 151.9375 193.5625 153.269531 C 194.21875 155.132812 196.257812 156.125 198.140625 155.464844 C 199.035156 155.148438 199.742188 154.492188 200.132812 153.714844 C 197.96875 152.359375 196.042969 150.964844 194.363281 149.589844 Z M 244.976562 114.933594 C 242.097656 114.835938 236.453125 115.261719 231.035156 119.003906 C 224.078125 123.828125 222.042969 130.933594 221.503906 133.773438 C 221.289062 134.855469 221.992188 135.890625 223.074219 136.109375 C 223.4375 136.171875 223.796875 136.152344 224.121094 136.039062 C 224.765625 135.8125 225.273438 135.25 225.410156 134.539062 C 225.859375 132.179688 227.546875 126.28125 233.304688 122.289062 C 237.769531 119.179688 242.464844 118.855469 244.835938 118.917969 C 245.941406 118.957031 246.851562 118.078125 246.898438 116.996094 C 246.941406 115.910156 246.078125 114.972656 244.976562 114.933594 " fill-opacity="1" fill-rule="nonzero"/></g></g></g><g clip-path="url(#64a89f6d59)"><g clip-path="url(#57a8e4afcc)"><g clip-path="url(#34854d5d53)"><path fill="#3a5471" d="M 250.074219 166.730469 C 250.195312 166.648438 250.230469 166.507812 250.148438 166.386719 L 247.246094 161.847656 C 247.160156 161.730469 247.019531 161.691406 246.902344 161.777344 C 246.78125 161.863281 246.746094 162.003906 246.828125 162.125 L 249.730469 166.660156 C 249.789062 166.769531 249.910156 166.8125 250.027344 166.769531 C 250.039062 166.746094 250.058594 166.738281 250.074219 166.730469 Z M 190.699219 123.195312 C 190.785156 123.078125 190.777344 122.933594 190.660156 122.84375 L 184.253906 117.765625 C 184.140625 117.679688 184 117.707031 183.90625 117.804688 C 183.816406 117.917969 183.828125 118.066406 183.941406 118.152344 L 190.347656 123.234375 C 190.414062 123.296875 190.503906 123.304688 190.578125 123.28125 C 190.628906 123.242188 190.667969 123.226562 190.699219 123.195312 Z M 223.164062 134.109375 C 223.671875 131.730469 225.492188 125.722656 231.300781 121.328125 C 236.910156 117.046875 243.023438 116.796875 245.378906 116.867188 C 245.503906 116.863281 245.617188 116.761719 245.632812 116.625 C 245.652344 116.492188 245.523438 116.367188 245.394531 116.367188 C 242.40625 116.265625 236.535156 116.707031 231.003906 120.917969 C 225.085938 125.417969 223.210938 131.570312 222.675781 134.003906 C 222.640625 134.144531 222.726562 134.265625 222.867188 134.300781 C 222.910156 134.304688 222.957031 134.3125 222.992188 134.296875 C 223.070312 134.269531 223.132812 134.207031 223.164062 134.109375 Z M 210.820312 159.058594 C 210.863281 158.9375 210.8125 158.785156 210.6875 158.742188 C 206.074219 156.925781 201.671875 154.5625 197.632812 151.710938 C 194.652344 149.617188 191.84375 147.226562 189.28125 144.621094 C 189.183594 144.527344 189.03125 144.515625 188.9375 144.613281 C 188.84375 144.710938 188.832031 144.863281 188.929688 144.960938 C 191.515625 147.574219 194.332031 149.984375 197.34375 152.109375 C 201.417969 154.996094 205.851562 157.390625 210.503906 159.191406 C 210.554688 159.21875 210.621094 159.21875 210.675781 159.195312 C 210.734375 159.175781 210.804688 159.128906 210.820312 159.058594 Z M 221.96875 171.960938 C 222.054688 171.847656 222.019531 171.6875 221.910156 171.617188 C 220.40625 170.566406 219.996094 168.488281 221.011719 166.996094 C 221.503906 166.269531 222.304688 165.75 223.214844 165.601562 C 224.140625 165.445312 225.078125 165.671875 225.832031 166.242188 C 225.949219 166.328125 226.089844 166.300781 226.175781 166.183594 C 226.261719 166.066406 226.234375 165.929688 226.121094 165.839844 C 225.246094 165.1875 224.199219 164.933594 223.128906 165.117188 C 222.097656 165.289062 221.171875 165.871094 220.589844 166.71875 C 219.441406 168.425781 219.894531 170.808594 221.625 172.019531 C 221.679688 172.0625 221.769531 172.074219 221.847656 172.046875 C 221.886719 172.035156 221.9375 171.996094 221.96875 171.960938 Z M 187.554688 213.230469 C 187.65625 213.152344 187.683594 212.992188 187.601562 212.871094 C 186.648438 211.625 186.640625 209.894531 187.589844 208.707031 C 188.453125 207.632812 189.921875 207.203125 191.25 207.632812 C 191.371094 207.675781 191.519531 207.601562 191.5625 207.480469 C 191.605469 207.359375 191.53125 207.214844 191.410156 207.171875 C 189.871094 206.683594 188.183594 207.171875 187.207031 208.414062 C 186.109375 209.785156 186.117188 211.746094 187.222656 213.195312 C 187.296875 213.277344 187.417969 213.320312 187.511719 213.289062 C 187.5 213.25 187.519531 213.242188 187.554688 213.230469 Z M 200.125 189.417969 C 199.992188 189.464844 199.859375 189.382812 199.816406 189.269531 C 199.769531 189.136719 199.851562 189 199.964844 188.960938 C 201.695312 188.351562 202.609375 186.449219 202 184.71875 C 201.390625 182.984375 199.488281 182.074219 197.757812 182.683594 C 197.625 182.730469 197.488281 182.648438 197.449219 182.535156 C 197.410156 182.421875 197.480469 182.265625 197.597656 182.226562 C 199.59375 181.523438 201.78125 182.570312 202.480469 184.570312 C 203.171875 186.527344 202.125 188.714844 200.125 189.417969 " fill-opacity="1" fill-rule="nonzero"/></g></g></g><g clip-path="url(#71e127989e)"><g clip-path="url(#629a520342)"><g clip-path="url(#5362521f1f)"><path fill="#f9b53f" d="M 144.59375 150.398438 C 148.230469 148.136719 152.546875 146.066406 157.542969 144.5625 C 167.78125 141.519531 176.605469 142.21875 181.597656 142.988281 C 180.15625 144.574219 178.058594 146.710938 175.285156 149.015625 C 171.019531 152.519531 165.148438 156.390625 157.59375 159.128906 C 146.117188 163.324219 136.121094 163.035156 130.78125 162.496094 C 132.964844 159.835938 137.511719 154.796875 144.59375 150.398438 " fill-opacity="1" fill-rule="nonzero"/></g></g></g><g clip-path="url(#19c00e6f93)"><g clip-path="url(#8b6c54613c)"><g clip-path="url(#34f996818b)"><path fill="#3ba27a" d="M 195.039062 115.542969 C 194.25 114.789062 192.988281 114.808594 192.214844 115.589844 L 186.34375 121.6875 C 185.589844 122.476562 185.609375 123.742188 186.390625 124.511719 C 187.179688 125.265625 188.441406 125.242188 189.214844 124.464844 L 195.089844 118.367188 C 195.226562 118.234375 195.335938 118.0625 195.421875 117.902344 C 195.824219 117.132812 195.6875 116.175781 195.039062 115.542969 Z M 144.519531 107.238281 L 137.457031 99.242188 C 136.722656 98.429688 135.472656 98.339844 134.65625 99.074219 C 133.820312 99.800781 133.753906 101.0625 134.488281 101.878906 L 141.550781 109.871094 C 142.28125 110.6875 143.535156 110.773438 144.351562 110.039062 C 144.535156 109.863281 144.699219 109.675781 144.804688 109.480469 C 145.167969 108.78125 145.09375 107.878906 144.519531 107.238281 Z M 122.074219 145.675781 C 121.984375 144.582031 121 143.773438 119.925781 143.871094 L 112.019531 144.582031 C 110.925781 144.671875 110.113281 145.660156 110.214844 146.734375 C 110.300781 147.828125 111.289062 148.636719 112.363281 148.539062 L 120.269531 147.828125 C 120.964844 147.757812 121.546875 147.335938 121.847656 146.765625 C 122.035156 146.453125 122.113281 146.082031 122.074219 145.675781 Z M 166.234375 155.183594 C 166.054688 155.523438 165.789062 155.816406 165.417969 156.007812 C 164.460938 156.53125 163.238281 156.164062 162.714844 155.210938 C 161.414062 152.824219 159.371094 148.113281 160.292969 143.566406 C 161.402344 138.183594 164.960938 134.46875 168.390625 130.867188 C 169.308594 129.894531 170.191406 128.988281 171.011719 128.03125 C 172.824219 125.953125 174.582031 123.683594 174.992188 121.285156 C 175.445312 118.675781 174.554688 115.773438 173.605469 113.277344 C 173.210938 112.25 173.746094 111.097656 174.761719 110.71875 C 175.789062 110.320312 176.941406 110.855469 177.320312 111.875 C 178.457031 114.878906 179.539062 118.425781 178.914062 121.96875 C 178.320312 125.320312 176.195312 128.125 173.996094 130.636719 C 173.101562 131.648438 172.171875 132.640625 171.242188 133.589844 C 168.0625 136.933594 165.054688 140.070312 164.167969 144.339844 C 163.671875 146.765625 164.40625 150.015625 166.179688 153.289062 C 166.535156 153.90625 166.53125 154.609375 166.234375 155.183594 " fill-opacity="1" fill-rule="nonzero"/></g></g></g><g clip-path="url(#2a298828eb)"><g clip-path="url(#d5b409f7bb)"><g clip-path="url(#ff8454f088)"><g clip-path="url(#e043eabdc1)"><path fill="#f14947" d="M 195.007812 137.667969 C 195.289062 136.605469 194.660156 135.503906 193.601562 135.222656 L 188.746094 133.933594 C 187.6875 133.65625 186.601562 134.292969 186.300781 135.34375 C 186.019531 136.402344 186.652344 137.503906 187.710938 137.785156 L 192.566406 139.074219 C 193.480469 139.324219 194.417969 138.882812 194.839844 138.078125 C 194.921875 137.960938 194.980469 137.808594 195.007812 137.667969 Z M 173.675781 102.390625 C 173.253906 101.371094 172.097656 100.882812 171.082031 101.304688 C 169.4375 101.972656 167.09375 103.316406 165.199219 105.898438 C 163.027344 108.835938 162.574219 111.921875 162.5 113.5 C 162.453125 114.589844 163.300781 115.535156 164.390625 115.582031 C 165.480469 115.628906 166.425781 114.777344 166.472656 113.6875 C 166.519531 112.550781 166.847656 110.359375 168.402344 108.257812 C 169.742188 106.433594 171.429688 105.472656 172.609375 104.996094 C 173.066406 104.824219 173.40625 104.480469 173.609375 104.085938 C 173.882812 103.566406 173.929688 102.953125 173.675781 102.390625 Z M 159.363281 160.054688 C 159.082031 160.589844 158.578125 160.988281 157.953125 161.09375 C 156.878906 161.28125 155.84375 160.558594 155.65625 159.484375 C 154.773438 154.558594 152.929688 150.773438 150.140625 148.269531 C 146.832031 145.289062 142.886719 144.566406 138.703125 143.8125 C 134.15625 142.984375 128.996094 142.058594 124.488281 137.929688 C 121.730469 135.414062 119.660156 132.148438 118.332031 128.246094 C 117.992188 127.203125 118.535156 126.078125 119.578125 125.734375 C 120.621094 125.394531 121.746094 125.9375 122.089844 126.980469 C 123.203125 130.246094 124.902344 132.957031 127.15625 135 C 130.820312 138.347656 135.003906 139.101562 139.40625 139.902344 C 143.957031 140.734375 148.65625 141.578125 152.800781 145.316406 C 156.261719 148.445312 158.535156 152.976562 159.566406 158.796875 C 159.648438 159.25 159.558594 159.679688 159.363281 160.054688 " fill-opacity="1" fill-rule="nonzero"/></g></g></g></g><g clip-path="url(#84e089fb0c)"><g clip-path="url(#11f06e13bf)"><g clip-path="url(#ee629f4921)"><g clip-path="url(#0c8a8155b8)"><path fill="#446db7" d="M 126.566406 158.105469 C 125.730469 157.398438 124.476562 157.492188 123.765625 158.328125 L 119.636719 163.175781 C 118.929688 164.011719 119.023438 165.265625 119.855469 165.976562 C 120.691406 166.6875 121.949219 166.589844 122.65625 165.757812 L 126.785156 160.90625 C 126.886719 160.800781 126.960938 160.65625 127.027344 160.53125 C 127.449219 159.726562 127.277344 158.707031 126.566406 158.105469 Z M 157.613281 159.140625 C 154.316406 160.351562 151.152344 161.175781 148.191406 161.746094 C 145.695312 162.214844 143.335938 162.507812 141.1875 162.65625 C 136.914062 162.949219 133.328125 162.757812 130.816406 162.511719 L 149.164062 183.691406 L 153.777344 189.015625 L 181.464844 220.921875 L 181.484375 213.445312 L 181.5 207.0625 L 181.554688 174.84375 L 181.574219 167.800781 L 181.617188 142.996094 C 177.9375 147.035156 170.078125 154.578125 157.613281 159.140625 Z M 137.28125 123.863281 C 136.992188 124.417969 136.433594 124.832031 135.757812 124.910156 C 134.660156 125.042969 133.675781 124.277344 133.542969 123.183594 C 133.417969 122.160156 132.875 119.582031 130.546875 117.679688 C 128.761719 116.222656 126.808594 115.90625 125.792969 115.855469 C 124.691406 115.78125 123.863281 114.84375 123.9375 113.746094 C 124.007812 112.644531 124.945312 111.816406 126.042969 111.890625 C 127.523438 111.980469 130.417969 112.445312 133.066406 114.605469 C 136.515625 117.410156 137.3125 121.195312 137.5 122.703125 C 137.539062 123.109375 137.457031 123.523438 137.28125 123.863281 " fill-opacity="1" fill-rule="nonzero"/></g></g></g></g><g clip-path="url(#314b301ff1)"><g clip-path="url(#f8233dca78)"><g clip-path="url(#d244559db9)"><path fill="#f9b53f" d="M 177.734375 169.660156 C 176.816406 171.410156 177.480469 173.578125 179.25 174.503906 C 179.984375 174.886719 180.792969 174.992188 181.542969 174.863281 L 181.5625 167.816406 C 180.054688 167.527344 178.472656 168.25 177.734375 169.660156 Z M 149.164062 183.691406 L 153.777344 189.015625 C 154.332031 188.691406 154.785156 188.222656 155.101562 187.613281 C 156.015625 185.863281 155.351562 183.695312 153.582031 182.769531 C 152.066406 181.976562 150.207031 182.390625 149.164062 183.691406 Z M 172.621094 155.019531 C 171.707031 156.769531 172.390625 158.949219 174.140625 159.863281 C 175.890625 160.777344 178.058594 160.113281 178.984375 158.347656 C 179.898438 156.59375 179.234375 154.425781 177.46875 153.5 C 175.714844 152.585938 173.546875 153.25 172.621094 155.019531 Z M 165.992188 184.410156 C 165.078125 186.164062 165.742188 188.328125 167.507812 189.253906 C 169.261719 190.171875 171.429688 189.507812 172.351562 187.738281 C 173.277344 185.96875 172.605469 183.820312 170.835938 182.894531 C 169.066406 181.96875 166.90625 182.660156 165.992188 184.410156 Z M 176.691406 208.597656 C 175.777344 210.347656 176.441406 212.515625 178.210938 213.441406 C 179.28125 214.003906 180.480469 213.96875 181.492188 213.472656 L 181.5 207.0625 C 179.738281 206.164062 177.609375 206.847656 176.691406 208.597656 Z M 141.167969 162.648438 C 141.144531 163.953125 141.84375 165.230469 143.09375 165.882812 C 144.84375 166.800781 147.011719 166.136719 147.9375 164.367188 C 148.375 163.527344 148.449219 162.5625 148.203125 161.730469 C 145.695312 162.214844 143.335938 162.507812 141.167969 162.648438 Z M 154.539062 102.785156 C 152.367188 104.675781 148.53125 108.835938 147.125 115.265625 C 145.324219 123.542969 148.6875 130.125 150.230469 132.570312 C 150.808594 133.507812 152.027344 133.78125 152.96875 133.203125 C 153.277344 133.003906 153.527344 132.746094 153.683594 132.441406 C 154.003906 131.835938 153.988281 131.078125 153.605469 130.464844 C 152.324219 128.429688 149.535156 122.96875 151.023438 116.121094 C 152.167969 110.804688 155.375 107.363281 157.15625 105.789062 C 157.988281 105.066406 158.058594 103.804688 157.351562 102.980469 C 156.644531 102.152344 155.375 102.058594 154.539062 102.785156 " fill-opacity="1" fill-rule="nonzero"/></g></g></g><g clip-path="url(#3f191061d6)"><g clip-path="url(#d9480e59f8)"><g clip-path="url(#ca3a45cce4)"><path fill="#3a5471" d="M 193.601562 137.179688 C 193.632812 137.035156 193.5625 136.910156 193.417969 136.878906 L 188.203125 135.539062 C 188.058594 135.511719 187.929688 135.582031 187.902344 135.722656 C 187.871094 135.867188 187.941406 135.996094 188.085938 136.023438 L 193.300781 137.363281 C 193.417969 137.402344 193.535156 137.351562 193.589844 137.242188 C 193.582031 137.214844 193.59375 137.199219 193.601562 137.179688 Z M 120.484375 145.847656 C 120.46875 145.703125 120.363281 145.601562 120.21875 145.617188 L 112.070312 146.269531 C 111.925781 146.285156 111.84375 146.402344 111.839844 146.539062 C 111.855469 146.683594 111.960938 146.785156 112.105469 146.769531 L 120.253906 146.113281 C 120.34375 146.113281 120.417969 146.0625 120.453125 145.992188 C 120.464844 145.929688 120.484375 145.890625 120.484375 145.847656 Z M 151.671875 131.683594 C 150.417969 129.597656 147.652344 123.960938 148.902344 116.789062 C 150.082031 109.828125 154.382812 105.476562 156.152344 103.921875 C 156.242188 103.832031 156.253906 103.679688 156.175781 103.570312 C 156.097656 103.460938 155.917969 103.457031 155.824219 103.546875 C 153.570312 105.507812 149.578125 109.835938 148.40625 116.6875 C 147.144531 124.015625 149.972656 129.796875 151.242188 131.9375 C 151.3125 132.066406 151.453125 132.09375 151.582031 132.023438 C 151.617188 132 151.65625 131.972656 151.675781 131.9375 C 151.710938 131.863281 151.714844 131.773438 151.671875 131.683594 Z M 159.664062 158.347656 C 159.613281 158.230469 159.46875 158.152344 159.351562 158.207031 C 154.734375 160.023438 149.90625 161.300781 145.003906 161.96875 C 141.398438 162.472656 137.714844 162.636719 134.0625 162.480469 C 133.929688 162.480469 133.808594 162.578125 133.808594 162.710938 C 133.804688 162.847656 133.902344 162.964844 134.035156 162.96875 C 137.714844 163.117188 141.414062 162.957031 145.066406 162.457031 C 150.015625 161.789062 154.890625 160.515625 159.523438 158.660156 C 159.578125 158.644531 159.625 158.597656 159.652344 158.546875 C 159.679688 158.492188 159.699219 158.410156 159.664062 158.347656 Z M 176.613281 160.179688 C 176.597656 160.035156 176.464844 159.941406 176.339844 159.964844 C 174.523438 160.222656 172.804688 158.980469 172.527344 157.199219 C 172.390625 156.332031 172.625 155.40625 173.1875 154.679688 C 173.761719 153.929688 174.597656 153.457031 175.539062 153.359375 C 175.683594 153.34375 175.765625 153.226562 175.75 153.082031 C 175.734375 152.9375 175.621094 152.855469 175.476562 152.871094 C 174.390625 152.984375 173.453125 153.519531 172.796875 154.382812 C 172.160156 155.210938 171.878906 156.269531 172.03125 157.28125 C 172.355469 159.316406 174.3125 160.75 176.402344 160.453125 C 176.476562 160.445312 176.546875 160.394531 176.585938 160.324219 C 176.605469 160.285156 176.613281 160.222656 176.613281 160.179688 Z M 179.601562 213.828125 C 179.621094 213.703125 179.535156 213.566406 179.390625 213.535156 C 177.84375 213.273438 176.65625 212.015625 176.539062 210.496094 C 176.4375 209.125 177.21875 207.804688 178.484375 207.214844 C 178.601562 207.160156 178.660156 207.007812 178.609375 206.890625 C 178.554688 206.773438 178.402344 206.714844 178.285156 206.769531 C 176.828125 207.464844 175.929688 208.972656 176.0625 210.542969 C 176.191406 212.296875 177.539062 213.726562 179.335938 214.03125 C 179.445312 214.039062 179.5625 213.988281 179.609375 213.898438 C 179.574219 213.878906 179.582031 213.863281 179.601562 213.828125 Z M 172.550781 187.839844 C 172.484375 187.964844 172.332031 188 172.222656 187.941406 C 172.097656 187.875 172.066406 187.722656 172.121094 187.617188 C 172.972656 185.988281 172.339844 183.976562 170.714844 183.125 C 169.089844 182.273438 167.074219 182.90625 166.222656 184.53125 C 166.160156 184.65625 166.003906 184.691406 165.898438 184.632812 C 165.789062 184.578125 165.738281 184.414062 165.796875 184.308594 C 166.777344 182.429688 169.089844 181.707031 170.964844 182.6875 C 172.808594 183.652344 173.53125 185.964844 172.550781 187.839844 " fill-opacity="1" fill-rule="nonzero"/></g></g></g><g clip-path="url(#2be6b8e292)"><g clip-path="url(#553cb48e88)"><g clip-path="url(#d767c4b5c1)"><g clip-path="url(#32f47f65ea)"><path fill="#f9b53f" d="M 103.640625 196.585938 C 104.671875 192.433594 106.324219 187.953125 108.851562 183.398438 C 114.066406 174.09375 120.875 168.457031 124.980469 165.535156 C 125.050781 167.679688 125.035156 170.667969 124.652344 174.25 C 124.03125 179.726562 122.523438 186.585938 119.019531 193.804688 C 113.71875 204.792969 106.359375 211.539062 102.164062 214.867188 C 101.882812 211.441406 101.632812 204.664062 103.640625 196.585938 " fill-opacity="1" fill-rule="nonzero"/></g></g></g></g><g clip-path="url(#c07de259ed)"><g clip-path="url(#a06b98b156)"><g clip-path="url(#aeaa11ca0f)"><g clip-path="url(#8472d9cade)"><path fill="#3ba27a" d="M 115.519531 136.511719 C 114.429688 136.519531 113.539062 137.414062 113.527344 138.507812 L 113.566406 146.96875 C 113.574219 148.058594 114.46875 148.949219 115.5625 148.957031 C 116.652344 148.949219 117.539062 148.054688 117.550781 146.960938 L 117.515625 138.503906 C 117.523438 138.3125 117.484375 138.113281 117.433594 137.9375 C 117.183594 137.109375 116.421875 136.515625 115.519531 136.511719 Z M 73.574219 165.699219 L 62.960938 164.878906 C 61.871094 164.804688 60.914062 165.613281 60.839844 166.707031 C 60.746094 167.808594 61.574219 168.757812 62.667969 168.835938 L 73.28125 169.652344 C 74.371094 169.726562 75.328125 168.917969 75.402344 167.824219 C 75.410156 167.570312 75.402344 167.320312 75.335938 167.109375 C 75.113281 166.355469 74.433594 165.757812 73.574219 165.699219 Z M 84.238281 208.867188 C 83.414062 208.144531 82.144531 208.25 81.441406 209.066406 L 76.277344 215.078125 C 75.558594 215.898438 75.664062 217.171875 76.480469 217.875 C 77.304688 218.597656 78.574219 218.492188 79.277344 217.675781 L 84.4375 211.664062 C 84.890625 211.132812 85.015625 210.421875 84.832031 209.804688 C 84.746094 209.449219 84.546875 209.132812 84.238281 208.867188 Z M 122.460938 184.964844 C 122.570312 185.332031 122.582031 185.726562 122.449219 186.125 C 122.128906 187.164062 121 187.753906 119.960938 187.429688 C 117.371094 186.625 112.632812 184.671875 110.128906 180.769531 C 107.179688 176.140625 107.144531 171.003906 107.097656 166.035156 C 107.078125 164.699219 107.078125 163.4375 107 162.179688 C 106.855469 159.425781 106.53125 156.578125 105.160156 154.570312 C 103.671875 152.386719 101.011719 150.929688 98.597656 149.796875 C 97.601562 149.335938 97.179688 148.136719 97.644531 147.15625 C 98.105469 146.160156 99.304688 145.742188 100.28125 146.207031 C 103.183594 147.570312 106.425781 149.363281 108.441406 152.335938 C 110.347656 155.152344 110.777344 158.640625 110.949219 161.972656 C 111.011719 163.320312 111.039062 164.675781 111.03125 166.003906 C 111.078125 170.609375 111.109375 174.953125 113.441406 178.628906 C 114.773438 180.714844 117.558594 182.535156 121.101562 183.644531 C 121.789062 183.839844 122.277344 184.347656 122.460938 184.964844 " fill-opacity="1" fill-rule="nonzero"/></g></g></g></g><g clip-path="url(#829ca05368)"><g clip-path="url(#0034e4c86d)"><g clip-path="url(#520083d0b0)"><g clip-path="url(#86057f1952)"><g clip-path="url(#66adb1f5ae)"><path fill="#446db7" d="M 130.878906 152.394531 C 130.34375 151.4375 129.125 151.085938 128.171875 151.621094 L 123.800781 154.078125 C 122.847656 154.613281 122.515625 155.824219 123.03125 156.785156 C 123.566406 157.738281 124.785156 158.09375 125.738281 157.558594 L 130.109375 155.101562 C 130.941406 154.644531 131.300781 153.675781 131.042969 152.808594 C 131.023438 152.667969 130.957031 152.515625 130.878906 152.394531 Z M 91.078125 141.941406 C 90.070312 141.507812 88.902344 141.960938 88.46875 142.972656 C 87.75 144.59375 87.011719 147.1875 87.449219 150.355469 C 87.9375 153.972656 89.757812 156.5 90.800781 157.679688 C 91.527344 158.496094 92.789062 158.582031 93.601562 157.855469 C 94.417969 157.132812 94.503906 155.867188 93.777344 155.050781 C 93.023438 154.207031 91.730469 152.402344 91.382812 149.816406 C 91.074219 147.578125 91.613281 145.714844 92.128906 144.550781 C 92.332031 144.113281 92.335938 143.628906 92.210938 143.203125 C 92.042969 142.644531 91.652344 142.171875 91.078125 141.941406 Z M 120.929688 193.238281 C 121.101562 193.816406 121.015625 194.453125 120.644531 194.960938 C 120.003906 195.84375 118.761719 196.046875 117.878906 195.40625 C 113.820312 192.492188 109.871094 191.058594 106.132812 191.203125 C 101.691406 191.367188 98.363281 193.59375 94.847656 195.964844 C 91.011719 198.53125 86.675781 201.460938 80.578125 201.632812 C 76.855469 201.75 73.101562 200.847656 69.4375 198.972656 C 68.46875 198.464844 68.074219 197.277344 68.582031 196.308594 C 69.09375 195.335938 70.277344 194.941406 71.246094 195.453125 C 74.316406 197.019531 77.417969 197.78125 80.453125 197.675781 C 85.402344 197.53125 88.921875 195.160156 92.632812 192.671875 C 96.464844 190.105469 100.417969 187.4375 105.984375 187.234375 C 110.636719 187.070312 115.414062 188.738281 120.199219 192.195312 C 120.574219 192.460938 120.808594 192.832031 120.929688 193.238281 " fill-opacity="1" fill-rule="nonzero"/></g></g></g></g></g><g clip-path="url(#bac572ad2b)"><g clip-path="url(#48ffd6c82a)"><g clip-path="url(#ab194edab5)"><g clip-path="url(#5ff2bd2b25)"><g clip-path="url(#55cc19ea07)"><path fill="#f14947" d="M 96.097656 214.652344 C 95.003906 214.722656 94.171875 215.664062 94.246094 216.757812 L 94.660156 223.105469 C 94.734375 224.199219 95.675781 225.03125 96.765625 224.960938 C 97.855469 224.886719 98.691406 223.949219 98.617188 222.855469 L 98.199219 216.507812 C 98.199219 216.359375 98.152344 216.207031 98.113281 216.070312 C 97.855469 215.203125 97.023438 214.585938 96.097656 214.652344 Z M 119.039062 193.800781 C 117.523438 196.960938 115.832031 199.753906 114.109375 202.21875 C 112.648438 204.292969 111.160156 206.140625 109.726562 207.746094 C 106.871094 210.925781 104.171875 213.285156 102.203125 214.855469 L 130.066406 217.273438 L 137.066406 217.882812 L 179.078125 221.5 L 173.890625 216.125 L 169.464844 211.535156 L 147.097656 188.40625 L 142.214844 183.339844 L 125 165.53125 C 125.171875 170.984375 124.789062 181.855469 119.039062 193.800781 Z M 79.957031 182.652344 C 80.132812 183.25 80.023438 183.933594 79.589844 184.464844 C 78.902344 185.320312 77.660156 185.457031 76.804688 184.765625 C 76.003906 184.121094 73.824219 182.644531 70.835938 182.902344 C 68.542969 183.101562 66.925781 184.234375 66.160156 184.902344 C 65.320312 185.613281 64.078125 185.519531 63.367188 184.679688 C 62.652344 183.84375 62.746094 182.59375 63.585938 181.882812 C 64.703125 180.921875 67.101562 179.242188 70.5 178.949219 C 74.917969 178.558594 78.121094 180.71875 79.308594 181.667969 C 79.617188 181.933594 79.847656 182.285156 79.957031 182.652344 " fill-opacity="1" fill-rule="nonzero"/></g></g></g></g></g><g clip-path="url(#c4db55fa98)"><g clip-path="url(#62d1876f50)"><g clip-path="url(#d9dc0c78a3)"><g clip-path="url(#7f5220f19f)"><path fill="#f9b53f" d="M 140.757812 187.347656 C 141.320312 189.238281 143.304688 190.332031 145.214844 189.761719 C 146.003906 189.527344 146.65625 189.039062 147.105469 188.425781 L 142.21875 183.359375 C 140.9375 184.203125 140.304688 185.820312 140.757812 187.347656 Z M 130.066406 217.273438 L 137.066406 217.882812 C 137.242188 217.265625 137.238281 216.613281 137.042969 215.957031 C 136.480469 214.066406 134.496094 212.972656 132.585938 213.539062 C 130.949219 214.027344 129.910156 215.617188 130.066406 217.273438 Z M 126.921875 180.40625 C 127.484375 182.296875 129.484375 183.382812 131.375 182.820312 C 133.265625 182.261719 134.355469 180.277344 133.789062 178.363281 C 133.226562 176.472656 131.242188 175.378906 129.332031 175.949219 C 127.441406 176.507812 126.351562 178.492188 126.921875 180.40625 Z M 142.613281 206.085938 C 143.171875 207.980469 145.15625 209.070312 147.066406 208.503906 C 148.957031 207.941406 150.046875 205.957031 149.480469 204.046875 C 148.910156 202.136719 146.933594 201.0625 145.023438 201.628906 C 143.113281 202.195312 142.050781 204.195312 142.613281 206.085938 Z M 167.089844 215.984375 C 167.652344 217.875 169.636719 218.96875 171.542969 218.398438 C 172.703125 218.054688 173.539062 217.199219 173.917969 216.140625 L 169.464844 211.535156 C 167.578125 212.117188 166.527344 214.089844 167.089844 215.984375 Z M 109.707031 207.75 C 110.597656 208.703125 111.984375 209.132812 113.335938 208.730469 C 115.226562 208.171875 116.316406 206.1875 115.75 204.273438 C 115.480469 203.367188 114.859375 202.625 114.101562 202.199219 C 112.648438 204.292969 111.160156 206.144531 109.707031 207.75 Z M 77.652344 155.535156 C 77.410156 158.402344 77.558594 164.054688 81.023438 169.644531 C 85.488281 176.828125 92.472656 179.207031 95.277344 179.886719 C 96.34375 180.15625 97.410156 179.503906 97.679688 178.4375 C 97.761719 178.078125 97.761719 177.71875 97.664062 177.390625 C 97.46875 176.734375 96.933594 176.199219 96.230469 176.03125 C 93.898438 175.460938 88.105469 173.484375 84.410156 167.542969 C 81.53125 162.9375 81.433594 158.238281 81.613281 155.871094 C 81.707031 154.773438 80.878906 153.820312 79.800781 153.722656 C 78.71875 153.621094 77.746094 154.4375 77.652344 155.535156 " fill-opacity="1" fill-rule="nonzero"/></g></g></g></g><g clip-path="url(#6d63e152c7)"><g clip-path="url(#1cfce9abcb)"><g clip-path="url(#7d441b151c)"><g clip-path="url(#f962a30243)"><path fill="#3a5471" d="M 129.535156 153.023438 C 129.457031 152.902344 129.316406 152.859375 129.191406 152.9375 L 124.527344 155.605469 C 124.402344 155.683594 124.363281 155.820312 124.441406 155.945312 C 124.519531 156.070312 124.65625 156.113281 124.78125 156.035156 L 129.445312 153.367188 C 129.558594 153.3125 129.605469 153.191406 129.570312 153.078125 C 129.546875 153.0625 129.539062 153.042969 129.535156 153.023438 Z M 83.21875 210.09375 C 83.105469 210 82.960938 210.003906 82.867188 210.113281 L 77.488281 216.25 C 77.398438 216.363281 77.417969 216.503906 77.507812 216.601562 C 77.621094 216.695312 77.765625 216.695312 77.859375 216.582031 L 83.238281 210.445312 C 83.304688 210.382812 83.320312 210.296875 83.296875 210.21875 C 83.261719 210.164062 83.25 210.125 83.21875 210.09375 Z M 95.695312 178.25 C 93.347656 177.625 87.449219 175.507812 83.351562 169.496094 C 79.359375 163.6875 79.414062 157.578125 79.597656 155.230469 C 79.601562 155.101562 79.503906 154.984375 79.371094 154.960938 C 79.238281 154.9375 79.105469 155.0625 79.101562 155.1875 C 78.851562 158.164062 79.003906 164.042969 82.929688 169.769531 C 87.125 175.898438 93.164062 178.078125 95.5625 178.730469 C 95.703125 178.773438 95.824219 178.695312 95.867188 178.554688 C 95.875 178.511719 95.882812 178.464844 95.871094 178.429688 C 95.851562 178.351562 95.789062 178.285156 95.695312 178.25 Z M 119.957031 191.804688 C 119.839844 191.753906 119.683594 191.800781 119.636719 191.921875 C 117.597656 196.433594 115.023438 200.707031 111.980469 204.597656 C 109.746094 207.464844 107.226562 210.148438 104.503906 212.574219 C 104.40625 212.667969 104.390625 212.820312 104.480469 212.917969 C 104.574219 213.015625 104.726562 213.035156 104.824219 212.941406 C 107.558594 210.488281 110.101562 207.800781 112.367188 204.902344 C 115.441406 200.984375 118.046875 196.679688 120.074219 192.125 C 120.101562 192.074219 120.101562 192.011719 120.085938 191.953125 C 120.070312 191.894531 120.027344 191.824219 119.957031 191.804688 Z M 133.367188 181.328125 C 133.253906 181.234375 133.09375 181.261719 133.019531 181.367188 C 131.898438 182.8125 129.804688 183.121094 128.371094 182.035156 C 127.667969 181.507812 127.191406 180.679688 127.085938 179.765625 C 126.976562 178.832031 127.25 177.910156 127.851562 177.183594 C 127.945312 177.074219 127.925781 176.933594 127.8125 176.839844 C 127.703125 176.746094 127.5625 176.769531 127.46875 176.878906 C 126.773438 177.714844 126.472656 178.75 126.601562 179.828125 C 126.71875 180.863281 127.257812 181.816406 128.070312 182.4375 C 129.71875 183.671875 132.117188 183.335938 133.40625 181.671875 C 133.453125 181.617188 133.46875 181.527344 133.445312 181.449219 C 133.433594 181.410156 133.398438 181.359375 133.367188 181.328125 Z M 172.808594 217.710938 C 172.734375 217.605469 172.578125 217.566406 172.453125 217.644531 C 171.164062 218.53125 169.441406 218.457031 168.300781 217.449219 C 167.273438 216.535156 166.917969 215.046875 167.410156 213.742188 C 167.460938 213.625 167.394531 213.476562 167.273438 213.425781 C 167.15625 213.378906 167.007812 213.445312 166.957031 213.5625 C 166.398438 215.074219 166.800781 216.78125 167.992188 217.816406 C 169.304688 218.980469 171.261719 219.070312 172.761719 218.039062 C 172.84375 217.972656 172.894531 217.851562 172.863281 217.753906 C 172.824219 217.765625 172.820312 217.746094 172.808594 217.710938 Z M 149.691406 203.984375 C 149.730469 204.117188 149.644531 204.25 149.527344 204.285156 C 149.394531 204.324219 149.261719 204.238281 149.226562 204.121094 C 148.707031 202.363281 146.855469 201.359375 145.097656 201.878906 C 143.34375 202.402344 142.339844 204.253906 142.863281 206.011719 C 142.902344 206.148438 142.816406 206.277344 142.699219 206.3125 C 142.582031 206.347656 142.433594 206.265625 142.398438 206.148438 C 141.796875 204.121094 142.949219 201.992188 144.972656 201.390625 C 146.960938 200.800781 149.089844 201.957031 149.691406 203.984375 " fill-opacity="1" fill-rule="nonzero"/></g></g></g></g><g clip-path="url(#885e0385ef)"><g clip-path="url(#805b62abf4)"><g clip-path="url(#7f7774ab63)"><path fill="#f14947" d="M 255.40625 178.203125 C 257.902344 181.6875 260.246094 185.855469 262.074219 190.742188 C 265.78125 200.761719 265.65625 209.613281 265.214844 214.648438 C 263.535156 213.308594 261.269531 211.355469 258.789062 208.738281 C 255.015625 204.710938 250.769531 199.105469 247.542969 191.746094 C 242.609375 180.566406 242.246094 170.570312 242.433594 165.207031 C 245.230469 167.214844 250.554688 171.425781 255.40625 178.203125 " fill-opacity="1" fill-rule="nonzero"/></g></g></g><g clip-path="url(#11933c525d)"><g clip-path="url(#d8d71a77e0)"><g clip-path="url(#9b0ed1ef29)"><path fill="#3ba27a" d="M 293.480469 226.269531 C 294.183594 225.433594 294.078125 224.171875 293.25 223.453125 L 286.78125 217.988281 C 285.941406 217.289062 284.683594 217.394531 283.964844 218.222656 C 283.265625 219.058594 283.367188 220.316406 284.195312 221.035156 L 290.667969 226.5 C 290.808594 226.628906 290.984375 226.730469 291.148438 226.804688 C 291.941406 227.152344 292.890625 226.957031 293.480469 226.269531 Z M 298.472656 175.3125 L 305.988281 167.746094 C 306.753906 166.960938 306.757812 165.703125 305.972656 164.9375 C 305.195312 164.152344 303.929688 164.167969 303.164062 164.953125 L 295.648438 172.519531 C 294.882812 173.304688 294.878906 174.5625 295.664062 175.328125 C 295.851562 175.5 296.050781 175.652344 296.253906 175.742188 C 296.972656 176.058594 297.867188 175.929688 298.472656 175.3125 Z M 258.648438 155.425781 C 259.734375 155.265625 260.480469 154.226562 260.3125 153.160156 L 259.082031 145.320312 C 258.925781 144.234375 257.886719 143.488281 256.820312 143.65625 C 255.734375 143.816406 254.992188 144.851562 255.15625 145.917969 L 256.386719 153.761719 C 256.5 154.453125 256.957031 155.007812 257.550781 155.269531 C 257.871094 155.433594 258.246094 155.488281 258.648438 155.425781 Z M 252.042969 200.109375 C 251.695312 199.953125 251.382812 199.707031 251.167969 199.347656 C 250.582031 198.425781 250.867188 197.1875 251.789062 196.601562 C 254.085938 195.148438 258.652344 192.800781 263.25 193.421875 C 268.691406 194.179688 272.632812 197.484375 276.445312 200.671875 C 277.480469 201.527344 278.441406 202.347656 279.449219 203.105469 C 281.640625 204.78125 284.019531 206.382812 286.441406 206.640625 C 289.074219 206.921875 291.914062 205.839844 294.34375 204.730469 C 295.339844 204.269531 296.527344 204.726562 296.972656 205.71875 C 297.433594 206.714844 296.976562 207.902344 295.984375 208.347656 C 293.058594 209.675781 289.589844 210.988281 286.015625 210.59375 C 282.628906 210.222656 279.695312 208.285156 277.042969 206.25 C 275.976562 205.425781 274.925781 204.5625 273.917969 203.699219 C 270.375 200.742188 267.046875 197.949219 262.730469 197.339844 C 260.277344 197.003906 257.078125 197.949219 253.933594 199.929688 C 253.335938 200.328125 252.632812 200.371094 252.042969 200.109375 " fill-opacity="1" fill-rule="nonzero"/></g></g></g><g clip-path="url(#0530ff63fb)"><g clip-path="url(#c1cf14943a)"><g clip-path="url(#1391b7f3ac)"><g clip-path="url(#2fcffd74bd)"><path fill="#446db7" d="M 271.402344 227.679688 C 272.476562 227.890625 273.535156 227.191406 273.746094 226.117188 L 274.714844 221.1875 C 274.925781 220.109375 274.21875 219.070312 273.152344 218.839844 C 272.074219 218.628906 271.015625 219.328125 270.804688 220.40625 L 269.835938 225.335938 C 269.644531 226.265625 270.148438 227.171875 270.980469 227.539062 C 271.101562 227.613281 271.257812 227.660156 271.402344 227.679688 Z M 305.210938 204.09375 C 306.199219 203.605469 306.613281 202.417969 306.121094 201.429688 C 305.351562 199.832031 303.855469 197.585938 301.15625 195.859375 C 298.082031 193.882812 294.976562 193.632812 293.394531 193.664062 C 292.304688 193.6875 291.417969 194.597656 291.441406 195.6875 C 291.46875 196.777344 292.375 197.664062 293.464844 197.640625 C 294.601562 197.613281 296.816406 197.800781 299.011719 199.210938 C 300.921875 200.429688 301.988281 202.050781 302.539062 203.199219 C 302.742188 203.640625 303.109375 203.957031 303.515625 204.136719 C 304.050781 204.375 304.664062 204.378906 305.210938 204.09375 Z M 246.734375 193.570312 C 246.179688 193.328125 245.753906 192.851562 245.605469 192.234375 C 245.347656 191.171875 246 190.09375 247.0625 189.835938 C 251.917969 188.632812 255.574219 186.546875 257.890625 183.601562 C 260.652344 180.101562 261.113281 176.117188 261.59375 171.898438 C 262.125 167.304688 262.710938 162.09375 266.539062 157.328125 C 268.867188 154.410156 271.988281 152.132812 275.796875 150.554688 C 276.816406 150.144531 277.976562 150.613281 278.386719 151.632812 C 278.792969 152.652344 278.324219 153.808594 277.308594 154.21875 C 274.121094 155.542969 271.527344 157.417969 269.632812 159.800781 C 266.53125 163.675781 266.054688 167.894531 265.539062 172.34375 C 265.007812 176.9375 264.472656 181.683594 261.015625 186.0625 C 258.117188 189.71875 253.742188 192.285156 248.003906 193.691406 C 247.558594 193.804688 247.121094 193.742188 246.734375 193.570312 " fill-opacity="1" fill-rule="nonzero"/></g></g></g></g><g clip-path="url(#e0b027a947)"><g clip-path="url(#3c8da2690c)"><g clip-path="url(#341624a0d8)"><g clip-path="url(#ed9f694260)"><path fill="#f9b53f" d="M 246.539062 160.71875 C 247.191406 159.839844 247.015625 158.589844 246.136719 157.9375 L 241.027344 154.132812 C 240.148438 153.480469 238.902344 153.65625 238.246094 154.535156 C 237.59375 155.414062 237.769531 156.664062 238.648438 157.316406 L 243.757812 161.121094 C 243.871094 161.214844 244.019531 161.277344 244.148438 161.335938 C 244.976562 161.703125 245.988281 161.464844 246.539062 160.71875 Z M 247.535156 191.765625 C 246.109375 188.554688 245.078125 185.453125 244.316406 182.535156 C 243.6875 180.074219 243.242188 177.738281 242.953125 175.601562 C 242.382812 171.359375 242.339844 167.769531 242.417969 165.246094 L 222.484375 184.9375 L 217.472656 189.886719 L 187.4375 219.597656 L 194.898438 219.128906 L 201.273438 218.730469 L 233.425781 216.679688 L 240.453125 216.238281 L 265.207031 214.664062 C 260.9375 211.253906 252.902344 203.90625 247.535156 191.765625 Z M 281.40625 169.175781 C 280.835938 168.921875 280.386719 168.394531 280.265625 167.722656 C 280.058594 166.636719 280.761719 165.605469 281.84375 165.398438 C 282.855469 165.207031 285.394531 164.5 287.136719 162.050781 C 288.476562 160.175781 288.664062 158.207031 288.652344 157.1875 C 288.652344 156.085938 289.53125 155.195312 290.632812 155.199219 C 291.734375 155.199219 292.625 156.078125 292.621094 157.179688 C 292.628906 158.660156 292.351562 161.582031 290.371094 164.363281 C 287.796875 167.988281 284.074219 169.03125 282.578125 169.320312 C 282.175781 169.382812 281.757812 169.332031 281.40625 169.175781 " fill-opacity="1" fill-rule="nonzero"/></g></g></g></g><g clip-path="url(#64ef3b7c07)"><g clip-path="url(#25bbeb590b)"><g clip-path="url(#3098927b9c)"><path fill="#f14947" d="M 238.347656 212.527344 C 236.539062 211.730469 234.421875 212.535156 233.613281 214.359375 C 233.277344 215.113281 233.226562 215.929688 233.40625 216.671875 L 240.4375 216.230469 C 240.625 214.707031 239.804688 213.171875 238.347656 212.527344 Z M 222.484375 184.9375 L 217.472656 189.886719 C 217.832031 190.421875 218.328125 190.839844 218.957031 191.117188 C 220.765625 191.917969 222.882812 191.113281 223.691406 189.285156 C 224.386719 187.71875 223.847656 185.894531 222.484375 184.9375 Z M 252.625 206.472656 C 250.816406 205.675781 248.691406 206.496094 247.890625 208.304688 C 247.089844 210.113281 247.894531 212.230469 249.71875 213.039062 C 251.527344 213.839844 253.648438 213.035156 254.453125 211.207031 C 255.253906 209.402344 254.449219 207.28125 252.625 206.472656 Z M 222.863281 201.773438 C 221.054688 200.976562 218.9375 201.78125 218.128906 203.605469 C 217.328125 205.414062 218.132812 207.53125 219.957031 208.339844 C 221.785156 209.148438 223.886719 208.335938 224.691406 206.511719 C 225.5 204.683594 224.671875 202.574219 222.863281 201.773438 Z M 199.425781 214.03125 C 197.617188 213.230469 195.5 214.035156 194.691406 215.859375 C 194.203125 216.96875 194.3125 218.164062 194.875 219.140625 L 201.273438 218.730469 C 202.054688 216.914062 201.234375 214.832031 199.425781 214.03125 Z M 242.960938 175.585938 C 241.65625 175.644531 240.425781 176.425781 239.855469 177.71875 C 239.058594 179.523438 239.859375 181.644531 241.6875 182.453125 C 242.554688 182.835938 243.519531 182.84375 244.335938 182.542969 C 243.6875 180.074219 243.242188 177.738281 242.960938 175.585938 Z M 303.570312 185.019531 C 301.539062 182.976562 297.140625 179.417969 290.628906 178.4375 C 282.253906 177.179688 275.90625 180.964844 273.566406 182.664062 C 272.667969 183.300781 272.472656 184.539062 273.109375 185.4375 C 273.332031 185.734375 273.605469 185.964844 273.917969 186.105469 C 274.542969 186.382812 275.300781 186.320312 275.886719 185.894531 C 277.832031 184.484375 283.101562 181.347656 290.027344 182.382812 C 295.410156 183.175781 299.054688 186.15625 300.742188 187.828125 C 301.519531 188.613281 302.78125 188.597656 303.558594 187.839844 C 304.335938 187.078125 304.347656 185.804688 303.570312 185.019531 " fill-opacity="1" fill-rule="nonzero"/></g></g></g><g clip-path="url(#d1de9a27e3)"><g clip-path="url(#6595f14742)"><g clip-path="url(#6b19dde0c5)"><path fill="#3a5471" d="M 271.792969 226.246094 C 271.941406 226.265625 272.0625 226.1875 272.082031 226.042969 L 273.078125 220.75 C 273.097656 220.601562 273.019531 220.480469 272.875 220.460938 C 272.730469 220.441406 272.609375 220.519531 272.585938 220.664062 L 271.589844 225.957031 C 271.558594 226.074219 271.621094 226.1875 271.730469 226.238281 C 271.757812 226.226562 271.777344 226.234375 271.792969 226.246094 Z M 258.375 153.847656 C 258.519531 153.824219 258.613281 153.710938 258.589844 153.566406 L 257.402344 145.480469 C 257.378906 145.335938 257.257812 145.261719 257.121094 145.269531 C 256.980469 145.292969 256.886719 145.40625 256.910156 145.550781 L 258.09375 153.636719 C 258.097656 153.726562 258.15625 153.796875 258.230469 153.828125 C 258.292969 153.835938 258.332031 153.851562 258.375 153.847656 Z M 274.542969 184.042969 C 276.546875 182.65625 281.984375 179.53125 289.226562 180.308594 C 296.25 181.035156 300.871094 185.039062 302.539062 186.703125 C 302.632812 186.789062 302.785156 186.792969 302.890625 186.707031 C 302.996094 186.621094 302.988281 186.4375 302.890625 186.351562 C 300.789062 184.230469 296.207031 180.53125 289.292969 179.808594 C 281.898438 179.027344 276.316406 182.226562 274.261719 183.632812 C 274.140625 183.710938 274.117188 183.855469 274.195312 183.980469 C 274.226562 184.011719 274.253906 184.046875 274.292969 184.0625 C 274.363281 184.097656 274.457031 184.09375 274.542969 184.042969 Z M 248.457031 193.761719 C 248.574219 193.699219 248.636719 193.554688 248.578125 193.4375 C 246.460938 188.953125 244.875 184.214844 243.886719 179.367188 C 243.152344 175.800781 242.742188 172.136719 242.660156 168.484375 C 242.65625 168.347656 242.550781 168.238281 242.414062 168.242188 C 242.28125 168.25 242.167969 168.355469 242.175781 168.488281 C 242.265625 172.167969 242.667969 175.851562 243.40625 179.464844 C 244.394531 184.355469 245.984375 189.136719 248.136719 193.640625 C 248.15625 193.695312 248.203125 193.738281 248.261719 193.761719 C 248.316406 193.785156 248.398438 193.800781 248.457031 193.761719 Z M 247.738281 210.792969 C 247.878906 210.769531 247.964844 210.628906 247.929688 210.503906 C 247.558594 208.707031 248.683594 206.914062 250.441406 206.523438 C 251.300781 206.328125 252.238281 206.5 253.003906 207.015625 C 253.785156 207.539062 254.3125 208.34375 254.472656 209.277344 C 254.496094 209.417969 254.617188 209.496094 254.761719 209.46875 C 254.90625 209.445312 254.980469 209.324219 254.957031 209.179688 C 254.769531 208.105469 254.175781 207.203125 253.273438 206.605469 C 252.40625 206.023438 251.328125 205.8125 250.328125 206.03125 C 248.320312 206.488281 247.015625 208.535156 247.449219 210.601562 C 247.460938 210.671875 247.515625 210.742188 247.589844 210.773438 C 247.628906 210.789062 247.691406 210.796875 247.738281 210.792969 Z M 194.398438 217.273438 C 194.523438 217.285156 194.65625 217.191406 194.675781 217.042969 C 194.835938 215.484375 196.015625 214.21875 197.519531 214.003906 C 198.882812 213.8125 200.253906 214.507812 200.921875 215.730469 C 200.984375 215.84375 201.140625 215.890625 201.253906 215.832031 C 201.367188 215.773438 201.414062 215.617188 201.355469 215.5 C 200.566406 214.09375 199.003906 213.292969 197.445312 213.527344 C 195.703125 213.773438 194.363281 215.207031 194.175781 217.023438 C 194.175781 217.132812 194.234375 217.246094 194.324219 217.289062 C 194.34375 217.25 194.359375 217.257812 194.398438 217.273438 Z M 219.871094 208.542969 C 219.738281 208.484375 219.695312 208.335938 219.746094 208.222656 C 219.804688 208.09375 219.953125 208.050781 220.066406 208.101562 C 221.742188 208.84375 223.710938 208.082031 224.453125 206.402344 C 225.195312 204.726562 224.433594 202.757812 222.757812 202.015625 C 222.628906 201.957031 222.585938 201.808594 222.632812 201.695312 C 222.683594 201.585938 222.84375 201.523438 222.953125 201.574219 C 224.890625 202.429688 225.761719 204.691406 224.90625 206.625 C 224.066406 208.527344 221.804688 209.398438 219.871094 208.542969 " fill-opacity="1" fill-rule="nonzero"/></g></g></g><g fill="#272727" fill-opacity="1"><g transform="translate(63.379423, 265.604714)"><g><path d="M 7.890625 -18.375 L 7.890625 -13.6875 L 15.765625 -13.6875 L 15.765625 -9.546875 L 7.890625 -9.546875 L 7.890625 -4.265625 L 16.40625 -4.265625 L 16.40625 0 L 2.265625 0 L 2.265625 -22.65625 L 16.40625 -22.65625 L 16.40625 -18.375 Z M 7.890625 -18.375 "/></g></g></g><g fill="#272727" fill-opacity="1"><g transform="translate(81.139474, 265.604714)"><g><path d="M 21.546875 -16.703125 C 23.015625 -16.703125 24.203125 -16.257812 25.109375 -15.375 C 26.015625 -14.488281 26.46875 -13.3125 26.46875 -11.84375 L 26.46875 0 L 21.09375 0 L 21.09375 -10.71875 C 21.09375 -11.382812 20.898438 -11.914062 20.515625 -12.3125 C 20.128906 -12.707031 19.625 -12.90625 19 -12.90625 C 18.351562 -12.90625 17.820312 -12.785156 17.40625 -12.546875 C 17 -12.316406 16.796875 -12.203125 16.796875 -12.203125 L 16.828125 0 L 11.453125 0 L 11.453125 -10.71875 C 11.453125 -11.382812 11.253906 -11.914062 10.859375 -12.3125 C 10.460938 -12.707031 9.945312 -12.90625 9.3125 -12.90625 C 8.6875 -12.90625 8.171875 -12.785156 7.765625 -12.546875 C 7.359375 -12.316406 7.15625 -12.203125 7.15625 -12.203125 L 7.15625 0 L 1.78125 0 L 1.78125 -16.4375 L 7.15625 -16.4375 L 7.15625 -14.046875 L 7.4375 -14.046875 C 7.78125 -14.835938 8.359375 -15.476562 9.171875 -15.96875 C 9.984375 -16.457031 10.925781 -16.703125 12 -16.703125 C 13.144531 -16.703125 14.132812 -16.445312 14.96875 -15.9375 C 15.800781 -15.425781 16.3125 -14.765625 16.5 -13.953125 L 16.828125 -13.953125 C 17.171875 -14.765625 17.765625 -15.425781 18.609375 -15.9375 C 19.453125 -16.445312 20.429688 -16.703125 21.546875 -16.703125 Z M 21.546875 -16.703125 "/></g></g></g><g fill="#272727" fill-opacity="1"><g transform="translate(109.122071, 265.604714)"><g><path d="M 11.234375 -16.53125 C 12.484375 -16.53125 13.570312 -16.15625 14.5 -15.40625 C 15.425781 -14.664062 16.144531 -13.632812 16.65625 -12.3125 C 17.175781 -10.988281 17.4375 -9.441406 17.4375 -7.671875 C 17.4375 -6.078125 17.195312 -4.671875 16.71875 -3.453125 C 16.25 -2.234375 15.59375 -1.285156 14.75 -0.609375 C 13.914062 0.0546875 12.925781 0.390625 11.78125 0.390625 C 10.789062 0.390625 9.894531 0.140625 9.09375 -0.359375 C 8.289062 -0.867188 7.738281 -1.535156 7.4375 -2.359375 L 7.1875 -2.359375 L 7.1875 5.078125 L 1.8125 5.078125 L 1.8125 -16.34375 L 6.796875 -16.34375 L 6.796875 -13.390625 L 7.125 -13.390625 C 7.1875 -14.316406 7.597656 -15.070312 8.359375 -15.65625 C 9.128906 -16.238281 10.085938 -16.53125 11.234375 -16.53125 Z M 12.0625 -8.0625 C 12.0625 -9.457031 11.84375 -10.578125 11.40625 -11.421875 C 10.96875 -12.265625 10.367188 -12.6875 9.609375 -12.6875 C 8.878906 -12.6875 8.289062 -12.550781 7.84375 -12.28125 C 7.40625 -12.007812 7.1875 -11.875 7.1875 -11.875 L 7.1875 -5.921875 C 7.1875 -5.210938 7.421875 -4.617188 7.890625 -4.140625 C 8.367188 -3.671875 8.953125 -3.4375 9.640625 -3.4375 C 10.378906 -3.4375 10.96875 -3.859375 11.40625 -4.703125 C 11.84375 -5.554688 12.0625 -6.675781 12.0625 -8.0625 Z M 12.0625 -8.0625 "/></g></g></g><g fill="#272727" fill-opacity="1"><g transform="translate(127.820269, 265.604714)"><g><path d="M 16.34375 -4.890625 L 16.40625 -1.203125 C 16.0625 -0.984375 15.550781 -0.757812 14.875 -0.53125 C 14.207031 -0.300781 13.445312 -0.113281 12.59375 0.03125 C 11.75 0.1875 10.875 0.273438 9.96875 0.296875 C 8.90625 0.296875 7.859375 0.15625 6.828125 -0.125 C 5.796875 -0.40625 4.863281 -0.867188 4.03125 -1.515625 C 3.195312 -2.160156 2.53125 -3.03125 2.03125 -4.125 C 1.539062 -5.21875 1.296875 -6.582031 1.296875 -8.21875 C 1.296875 -9.945312 1.617188 -11.441406 2.265625 -12.703125 C 2.910156 -13.960938 3.816406 -14.941406 4.984375 -15.640625 C 6.148438 -16.347656 7.507812 -16.703125 9.0625 -16.703125 C 11.757812 -16.703125 13.703125 -16.007812 14.890625 -14.625 C 16.078125 -13.25 16.722656 -11.082031 16.828125 -8.125 L 16.828125 -7.4375 L 6.3125 -7.4375 L 6.3125 -7.21875 C 6.394531 -6.25 6.785156 -5.5 7.484375 -4.96875 C 8.191406 -4.4375 9.128906 -4.140625 10.296875 -4.078125 C 11.148438 -4.015625 12.125 -4.046875 13.21875 -4.171875 C 14.3125 -4.304688 15.351562 -4.546875 16.34375 -4.890625 Z M 6.34375 -9.484375 L 11.84375 -9.515625 C 11.84375 -10.523438 11.601562 -11.304688 11.125 -11.859375 C 10.65625 -12.410156 10.007812 -12.6875 9.1875 -12.6875 C 8.394531 -12.6875 7.734375 -12.394531 7.203125 -11.8125 C 6.671875 -11.226562 6.382812 -10.453125 6.34375 -9.484375 Z M 6.34375 -9.484375 "/></g></g></g><g fill="#272727" fill-opacity="1"><g transform="translate(145.936168, 265.604714)"><g><path d="M 11.875 -16.703125 C 13.101562 -16.703125 14.085938 -16.269531 14.828125 -15.40625 C 15.578125 -14.539062 15.960938 -13.40625 15.984375 -12 L 15.984375 -9.546875 L 10.640625 -9.546875 L 10.640625 -11.03125 C 10.617188 -11.59375 10.460938 -12.046875 10.171875 -12.390625 C 9.878906 -12.734375 9.488281 -12.90625 9 -12.90625 C 8.457031 -12.90625 8.015625 -12.785156 7.671875 -12.546875 C 7.328125 -12.316406 7.15625 -12.203125 7.15625 -12.203125 L 7.15625 0 L 1.78125 0 L 1.78125 -16.4375 L 7.15625 -16.4375 L 7.15625 -14.015625 L 7.4375 -14.015625 C 7.851562 -14.828125 8.460938 -15.476562 9.265625 -15.96875 C 10.078125 -16.457031 10.945312 -16.703125 11.875 -16.703125 Z M 11.875 -16.703125 "/></g></g></g><g fill="#272727" fill-opacity="1"><g transform="translate(162.66103, 265.604714)"><g><path d="M 17.671875 -3.921875 L 17.671875 0 L 15.859375 0 C 14.734375 0 13.878906 -0.320312 13.296875 -0.96875 C 12.710938 -1.613281 12.5 -2.46875 12.65625 -3.53125 L 12.71875 -4.078125 L 12.484375 -4.078125 C 12.015625 -2.785156 11.222656 -1.742188 10.109375 -0.953125 C 9.003906 -0.171875 7.789062 0.21875 6.46875 0.21875 C 4.894531 0.21875 3.632812 -0.226562 2.6875 -1.125 C 1.738281 -2.03125 1.265625 -3.21875 1.265625 -4.6875 C 1.265625 -5.894531 1.65625 -6.90625 2.4375 -7.71875 C 3.226562 -8.53125 4.3125 -9.007812 5.6875 -9.15625 C 6.8125 -9.257812 7.664062 -9.335938 8.25 -9.390625 C 8.832031 -9.453125 9.257812 -9.503906 9.53125 -9.546875 C 9.800781 -9.585938 10.007812 -9.617188 10.15625 -9.640625 C 10.632812 -9.753906 11.007812 -9.882812 11.28125 -10.03125 C 11.550781 -10.1875 11.6875 -10.347656 11.6875 -10.515625 C 11.6875 -11.203125 11.4375 -11.75 10.9375 -12.15625 C 10.4375 -12.570312 9.78125 -12.78125 8.96875 -12.78125 C 8.144531 -12.78125 7.503906 -12.550781 7.046875 -12.09375 C 6.597656 -11.644531 6.375 -11.171875 6.375 -10.671875 L 1.359375 -10.671875 C 1.359375 -11.816406 1.679688 -12.84375 2.328125 -13.75 C 2.972656 -14.65625 3.875 -15.375 5.03125 -15.90625 C 6.1875 -16.4375 7.5 -16.703125 8.96875 -16.703125 C 10.519531 -16.703125 11.875 -16.390625 13.03125 -15.765625 C 14.195312 -15.140625 15.097656 -14.265625 15.734375 -13.140625 C 16.378906 -12.015625 16.703125 -10.695312 16.703125 -9.1875 L 16.703125 -4.53125 C 16.703125 -4.125 16.863281 -3.921875 17.1875 -3.921875 Z M 8.34375 -3.59375 C 9.25 -3.59375 10.007812 -3.84375 10.625 -4.34375 C 11.238281 -4.851562 11.59375 -5.53125 11.6875 -6.375 L 11.6875 -7.765625 L 11.578125 -7.765625 C 11.273438 -7.484375 10.835938 -7.285156 10.265625 -7.171875 C 9.703125 -7.066406 9.125 -6.96875 8.53125 -6.875 C 7.9375 -6.78125 7.425781 -6.617188 7 -6.390625 C 6.582031 -6.160156 6.375 -5.78125 6.375 -5.25 C 6.375 -4.75 6.550781 -4.347656 6.90625 -4.046875 C 7.257812 -3.742188 7.738281 -3.59375 8.34375 -3.59375 Z M 8.34375 -3.59375 "/></g></g></g><g fill="#272727" fill-opacity="1"><g transform="translate(180.873982, 265.604714)"><g><path d="M 1.78125 0 L 1.78125 -23.296875 L 7.15625 -23.296875 L 7.15625 0 Z M 1.78125 0 "/></g></g></g><g fill="#272727" fill-opacity="1"><g transform="translate(189.77018, 265.604714)"><g/></g></g><g fill="#272727" fill-opacity="1"><g transform="translate(196.822439, 265.604714)"><g><path d="M 17.984375 -22.84375 L 17.984375 -18.578125 L 12.03125 -18.578125 L 12.03125 0 L 6.40625 0 L 6.40625 -18.578125 L 0.453125 -18.578125 L 0.453125 -22.84375 Z M 17.984375 -22.84375 "/></g></g></g><g fill="#272727" fill-opacity="1"><g transform="translate(215.294186, 265.604714)"><g><path d="M 11.875 -16.703125 C 13.101562 -16.703125 14.085938 -16.269531 14.828125 -15.40625 C 15.578125 -14.539062 15.960938 -13.40625 15.984375 -12 L 15.984375 -9.546875 L 10.640625 -9.546875 L 10.640625 -11.03125 C 10.617188 -11.59375 10.460938 -12.046875 10.171875 -12.390625 C 9.878906 -12.734375 9.488281 -12.90625 9 -12.90625 C 8.457031 -12.90625 8.015625 -12.785156 7.671875 -12.546875 C 7.328125 -12.316406 7.15625 -12.203125 7.15625 -12.203125 L 7.15625 0 L 1.78125 0 L 1.78125 -16.4375 L 7.15625 -16.4375 L 7.15625 -14.015625 L 7.4375 -14.015625 C 7.851562 -14.828125 8.460938 -15.476562 9.265625 -15.96875 C 10.078125 -16.457031 10.945312 -16.703125 11.875 -16.703125 Z M 11.875 -16.703125 "/></g></g></g><g fill="#272727" fill-opacity="1"><g transform="translate(232.019048, 265.604714)"><g><path d="M 17.671875 -3.921875 L 17.671875 0 L 15.859375 0 C 14.734375 0 13.878906 -0.320312 13.296875 -0.96875 C 12.710938 -1.613281 12.5 -2.46875 12.65625 -3.53125 L 12.71875 -4.078125 L 12.484375 -4.078125 C 12.015625 -2.785156 11.222656 -1.742188 10.109375 -0.953125 C 9.003906 -0.171875 7.789062 0.21875 6.46875 0.21875 C 4.894531 0.21875 3.632812 -0.226562 2.6875 -1.125 C 1.738281 -2.03125 1.265625 -3.21875 1.265625 -4.6875 C 1.265625 -5.894531 1.65625 -6.90625 2.4375 -7.71875 C 3.226562 -8.53125 4.3125 -9.007812 5.6875 -9.15625 C 6.8125 -9.257812 7.664062 -9.335938 8.25 -9.390625 C 8.832031 -9.453125 9.257812 -9.503906 9.53125 -9.546875 C 9.800781 -9.585938 10.007812 -9.617188 10.15625 -9.640625 C 10.632812 -9.753906 11.007812 -9.882812 11.28125 -10.03125 C 11.550781 -10.1875 11.6875 -10.347656 11.6875 -10.515625 C 11.6875 -11.203125 11.4375 -11.75 10.9375 -12.15625 C 10.4375 -12.570312 9.78125 -12.78125 8.96875 -12.78125 C 8.144531 -12.78125 7.503906 -12.550781 7.046875 -12.09375 C 6.597656 -11.644531 6.375 -11.171875 6.375 -10.671875 L 1.359375 -10.671875 C 1.359375 -11.816406 1.679688 -12.84375 2.328125 -13.75 C 2.972656 -14.65625 3.875 -15.375 5.03125 -15.90625 C 6.1875 -16.4375 7.5 -16.703125 8.96875 -16.703125 C 10.519531 -16.703125 11.875 -16.390625 13.03125 -15.765625 C 14.195312 -15.140625 15.097656 -14.265625 15.734375 -13.140625 C 16.378906 -12.015625 16.703125 -10.695312 16.703125 -9.1875 L 16.703125 -4.53125 C 16.703125 -4.125 16.863281 -3.921875 17.1875 -3.921875 Z M 8.34375 -3.59375 C 9.25 -3.59375 10.007812 -3.84375 10.625 -4.34375 C 11.238281 -4.851562 11.59375 -5.53125 11.6875 -6.375 L 11.6875 -7.765625 L 11.578125 -7.765625 C 11.273438 -7.484375 10.835938 -7.285156 10.265625 -7.171875 C 9.703125 -7.066406 9.125 -6.96875 8.53125 -6.875 C 7.9375 -6.78125 7.425781 -6.617188 7 -6.390625 C 6.582031 -6.160156 6.375 -5.78125 6.375 -5.25 C 6.375 -4.75 6.550781 -4.347656 6.90625 -4.046875 C 7.257812 -3.742188 7.738281 -3.59375 8.34375 -3.59375 Z M 8.34375 -3.59375 "/></g></g></g><g fill="#272727" fill-opacity="1"><g transform="translate(250.232, 265.604714)"><g><path d="M 4.59375 0 L 0.15625 -16.34375 L 5.65625 -16.34375 L 8.0625 -4.140625 L 8.453125 -4.140625 L 10.875 -16.34375 L 16.375 -16.34375 L 11.9375 0 Z M 4.59375 0 "/></g></g></g><g fill="#272727" fill-opacity="1"><g transform="translate(266.7304, 265.604714)"><g><path d="M 16.34375 -4.890625 L 16.40625 -1.203125 C 16.0625 -0.984375 15.550781 -0.757812 14.875 -0.53125 C 14.207031 -0.300781 13.445312 -0.113281 12.59375 0.03125 C 11.75 0.1875 10.875 0.273438 9.96875 0.296875 C 8.90625 0.296875 7.859375 0.15625 6.828125 -0.125 C 5.796875 -0.40625 4.863281 -0.867188 4.03125 -1.515625 C 3.195312 -2.160156 2.53125 -3.03125 2.03125 -4.125 C 1.539062 -5.21875 1.296875 -6.582031 1.296875 -8.21875 C 1.296875 -9.945312 1.617188 -11.441406 2.265625 -12.703125 C 2.910156 -13.960938 3.816406 -14.941406 4.984375 -15.640625 C 6.148438 -16.347656 7.507812 -16.703125 9.0625 -16.703125 C 11.757812 -16.703125 13.703125 -16.007812 14.890625 -14.625 C 16.078125 -13.25 16.722656 -11.082031 16.828125 -8.125 L 16.828125 -7.4375 L 6.3125 -7.4375 L 6.3125 -7.21875 C 6.394531 -6.25 6.785156 -5.5 7.484375 -4.96875 C 8.191406 -4.4375 9.128906 -4.140625 10.296875 -4.078125 C 11.148438 -4.015625 12.125 -4.046875 13.21875 -4.171875 C 14.3125 -4.304688 15.351562 -4.546875 16.34375 -4.890625 Z M 6.34375 -9.484375 L 11.84375 -9.515625 C 11.84375 -10.523438 11.601562 -11.304688 11.125 -11.859375 C 10.65625 -12.410156 10.007812 -12.6875 9.1875 -12.6875 C 8.394531 -12.6875 7.734375 -12.394531 7.203125 -11.8125 C 6.671875 -11.226562 6.382812 -10.453125 6.34375 -9.484375 Z M 6.34375 -9.484375 "/></g></g></g><g fill="#272727" fill-opacity="1"><g transform="translate(284.846299, 265.604714)"><g><path d="M 1.78125 0 L 1.78125 -23.296875 L 7.15625 -23.296875 L 7.15625 0 Z M 1.78125 0 "/></g></g></g><g fill="#272727" fill-opacity="1"><g transform="translate(293.742496, 265.604714)"><g><path d="M 9.9375 -9.125 C 10.6875 -9.019531 11.445312 -8.890625 12.21875 -8.734375 C 13 -8.585938 13.722656 -8.378906 14.390625 -8.109375 C 15.066406 -7.835938 15.609375 -7.453125 16.015625 -6.953125 C 16.421875 -6.460938 16.625 -5.804688 16.625 -4.984375 C 16.625 -4.359375 16.46875 -3.71875 16.15625 -3.0625 C 15.84375 -2.40625 15.351562 -1.800781 14.6875 -1.25 C 14.019531 -0.695312 13.132812 -0.265625 12.03125 0.046875 C 10.9375 0.359375 9.613281 0.472656 8.0625 0.390625 C 7.457031 0.347656 6.859375 0.289062 6.265625 0.21875 C 5.671875 0.15625 5.007812 0.0507812 4.28125 -0.09375 C 3.5625 -0.25 2.707031 -0.476562 1.71875 -0.78125 L 2.265625 -4.953125 C 3.410156 -4.585938 4.453125 -4.304688 5.390625 -4.109375 C 6.328125 -3.910156 7.148438 -3.789062 7.859375 -3.75 C 9.085938 -3.664062 10 -3.78125 10.59375 -4.09375 C 11.1875 -4.40625 11.484375 -4.773438 11.484375 -5.203125 C 11.484375 -5.660156 11.140625 -5.953125 10.453125 -6.078125 C 9.765625 -6.210938 8.726562 -6.375 7.34375 -6.5625 C 6.675781 -6.675781 5.96875 -6.847656 5.21875 -7.078125 C 4.476562 -7.316406 3.796875 -7.660156 3.171875 -8.109375 C 2.546875 -8.566406 2.0625 -9.144531 1.71875 -9.84375 C 1.375 -10.550781 1.253906 -11.410156 1.359375 -12.421875 C 1.460938 -13.242188 1.765625 -13.9375 2.265625 -14.5 C 2.765625 -15.0625 3.382812 -15.507812 4.125 -15.84375 C 4.875 -16.175781 5.660156 -16.414062 6.484375 -16.5625 C 7.316406 -16.71875 8.125 -16.796875 8.90625 -16.796875 C 10.21875 -16.796875 11.347656 -16.664062 12.296875 -16.40625 C 13.242188 -16.144531 14.019531 -15.863281 14.625 -15.5625 C 15.226562 -15.257812 15.660156 -15.023438 15.921875 -14.859375 L 14.921875 -11.203125 C 13.859375 -11.753906 12.84375 -12.160156 11.875 -12.421875 C 10.90625 -12.679688 10.039062 -12.820312 9.28125 -12.84375 C 8.289062 -12.863281 7.507812 -12.722656 6.9375 -12.421875 C 6.363281 -12.117188 6.078125 -11.664062 6.078125 -11.0625 C 6.078125 -10.4375 6.457031 -10 7.21875 -9.75 C 7.988281 -9.507812 8.894531 -9.300781 9.9375 -9.125 Z M 9.9375 -9.125 "/></g></g></g></svg>