<svg width="17" height="17" viewBox="0 0 17 17" fill="none" xmlns="http://www.w3.org/2000/svg">
<g id="Item" clip-path="url(#clip0_1_5102)">
<path id="Vector" d="M3.94665 16.2366C3.73331 16.3077 3.54665 16.281 3.38665 16.1566C3.22665 16.0322 3.16443 15.8455 3.19998 15.5966L3.99998 10.9033L0.479981 7.54327C0.337758 7.36549 0.293314 7.16994 0.346647 6.9566C0.399981 6.74327 0.551092 6.61882 0.799981 6.58327L5.65331 5.88994L7.83998 1.56994C7.94665 1.3566 8.10665 1.24994 8.31998 1.24994C8.53331 1.24994 8.69331 1.3566 8.79998 1.56994L10.9866 5.88994L15.8933 6.58327C16.1066 6.61882 16.24 6.74327 16.2933 6.9566C16.3466 7.16994 16.3022 7.36549 16.16 7.54327L12.64 10.9033L13.44 15.5966C13.4755 15.8455 13.4133 16.0322 13.2533 16.1566C13.0933 16.281 12.9066 16.3077 12.6933 16.2366L8.31998 13.9433L3.94665 16.2366Z" fill="#FFC107"/>
</g>
<defs>
<clipPath id="clip0_1_5102">
<rect width="16" height="16" fill="white" transform="matrix(1 0 0 -1 0.319946 16.77)"/>
</clipPath>
</defs>
</svg>
