<svg width="100" height="22" viewBox="0 0 100 22" fill="none" xmlns="http://www.w3.org/2000/svg">
<g id="tripadvisor-logo-2.svg" clip-path="url(#clip0_1_5178)">
<g id="Clip path group">
<mask id="mask0_1_5178" style="mask-type:luminance" maskUnits="userSpaceOnUse" x="0" y="0" width="100" height="21">
<g id="a">
<path id="Vector" d="M99.9937 0.129883H0.00622559V20.9637H99.9937V0.129883Z" fill="white"/>
</g>
</mask>
<g mask="url(#mask0_1_5178)">
<g id="Group">
<path id="Vector_2" d="M83.76 13.1519C83.5137 13.1519 83.3137 13.3441 83.3137 13.5805C83.3137 13.8171 83.5137 14.0092 83.76 14.0092C84.0062 14.0092 84.2063 13.8171 84.2063 13.5805C84.2063 13.3441 84.0062 13.1519 83.76 13.1519ZM83.76 13.9412C83.5524 13.9412 83.3845 13.7789 83.3845 13.5805C83.3845 13.3812 83.5534 13.2199 83.76 13.2199C83.9676 13.2199 84.1364 13.3821 84.1364 13.5805C84.1364 13.779 83.9675 13.9412 83.76 13.9412ZM83.9052 13.5071C83.9052 13.4292 83.8477 13.383 83.7628 13.383H83.6203V13.7736H83.6901V13.6322H83.7665L83.8402 13.7736H83.9156L83.8345 13.6177C83.8779 13.5987 83.9052 13.5606 83.9052 13.5071ZM83.76 13.5715H83.6911V13.4419H83.76C83.8072 13.4419 83.8354 13.4646 83.8354 13.5062C83.8354 13.5489 83.8062 13.5715 83.76 13.5715ZM29.9893 8.81428V7.77767H28.3344V13.9448H29.9893V10.2469C29.9893 9.57725 30.4364 9.24835 31.1337 9.24835H32.0394V7.77769H31.2658C30.6601 7.77767 30.1336 8.08122 29.9893 8.81428ZM33.5895 5.33838C33.0234 5.33838 32.5895 5.76789 32.5895 6.31156C32.5895 6.84256 33.0234 7.27207 33.5895 7.27207C34.1556 7.27207 34.5896 6.84256 34.5896 6.31156C34.5896 5.76787 34.1556 5.33838 33.5895 5.33838ZM32.764 13.9448H34.415V7.77767H32.764V13.9448ZM42.2797 10.8612C42.2797 12.6219 40.7938 14.049 38.9606 14.049C38.221 14.049 37.5502 13.8161 37.0123 13.4228V15.7553H35.3613V7.77767H37.0123V8.29959C37.5502 7.90633 38.221 7.67346 38.9606 7.67346C40.7938 7.67346 42.2797 9.10065 42.2797 10.8612ZM40.6183 10.8612C40.6183 9.90528 39.8107 9.12959 38.8154 9.12959C37.82 9.12959 37.0123 9.90528 37.0123 10.8612C37.0123 11.8172 37.82 12.5928 38.8154 12.5928C39.8107 12.5928 40.6183 11.8181 40.6183 10.8612ZM70.9761 10.3203L70.0128 10.0666C69.3788 9.908 69.1325 9.72136 69.1325 9.39964C69.1325 9.08609 69.4798 8.86684 69.976 8.86684C70.4487 8.86684 70.8194 9.16406 70.8194 9.54462V9.57997H72.3412V9.54462C72.3412 8.42553 71.3912 7.67344 69.976 7.67344C68.575 7.67344 67.5569 8.42462 67.5569 9.46034C67.5569 10.2659 68.1127 10.873 69.0825 11.1249L70.0052 11.3669C70.7062 11.5535 70.9666 11.7601 70.9666 12.1307C70.9666 12.5213 70.5902 12.784 70.0298 12.784C69.4457 12.784 69.0524 12.4288 69.0524 11.9014V11.8661H67.4371V11.9014C67.4371 13.1665 68.4976 14.0508 70.0166 14.0508C71.4799 14.0508 72.5423 13.1872 72.5423 11.9984C72.5422 11.4148 72.2705 10.6519 70.9761 10.3203ZM48.1367 7.77767H49.7878V13.9448H48.1367V13.4228C47.599 13.8161 46.9281 14.049 46.1885 14.049C44.3554 14.049 42.8694 12.6219 42.8694 10.8612C42.8694 9.10056 44.3554 7.67344 46.1885 7.67344C46.9281 7.67344 47.599 7.90631 48.1367 8.29956V7.77767ZM48.1367 10.8612C48.1367 9.90432 47.3291 9.12959 46.3338 9.12959C45.3384 9.12959 44.5309 9.90528 44.5309 10.8612C44.5309 11.8172 45.3384 12.5928 46.3338 12.5928C47.3301 12.5928 48.1367 11.8181 48.1367 10.8612ZM55.7496 5.58302H57.4007V13.9457H55.7496V13.4238C55.2117 13.817 54.5409 14.0499 53.8013 14.0499C51.9681 14.0499 50.4821 12.6227 50.4821 10.8621C50.4821 9.10152 51.9681 7.67435 53.8013 7.67435C54.5409 7.67435 55.2117 7.90722 55.7496 8.30047V5.58302ZM55.7496 10.8612C55.7496 9.90528 54.9419 9.12959 53.9465 9.12959C52.9512 9.12959 52.1436 9.90528 52.1436 10.8612C52.1436 11.8172 52.9503 12.5928 53.9465 12.5928C54.9419 12.5928 55.7496 11.8181 55.7496 10.8612ZM65.0662 13.9448H66.7173V7.77767H65.0662V13.9448ZM65.8917 5.33838C65.3256 5.33838 64.8917 5.76789 64.8917 6.31156C64.8917 6.84256 65.3256 7.27207 65.8917 7.27207C66.4579 7.27207 66.8918 6.84256 66.8918 6.31156C66.8918 5.76787 66.4579 5.33838 65.8917 5.33838ZM79.6786 10.8612C79.6786 12.6219 78.1926 14.049 76.3594 14.049C74.5263 14.049 73.0404 12.6219 73.0404 10.8612C73.0404 9.10056 74.5263 7.67346 76.3594 7.67346C78.1926 7.67346 79.6786 9.10065 79.6786 10.8612ZM78.1624 10.8612C78.1624 9.90528 77.3548 9.12959 76.3594 9.12959C75.3641 9.12959 74.5565 9.90528 74.5565 10.8612C74.5565 11.8172 75.3631 12.5928 76.3594 12.5928C77.3548 12.5928 78.1624 11.8181 78.1624 10.8612ZM29.1438 5.58302H22.8104V6.99751H25.155V13.9448H26.8004V6.99751H29.1449V5.58302H29.1438ZM61.1735 12.2558L59.7046 7.77769H57.9704L60.1735 13.9448H62.1603L64.3765 7.77769H62.6425L61.1735 12.2558ZM82.0976 8.81428V7.77767H80.4428V13.9448H82.0976V10.2469C82.0976 9.57725 82.5448 9.24835 83.242 9.24835H84.1478V7.77769H83.3741C82.7684 7.77767 82.2429 8.08122 82.0976 8.81428Z" fill="#100C08"/>
<path id="Vector_3" d="M10.641 20.9637C16.5145 20.9637 21.2758 16.2999 21.2758 10.5467C21.2758 4.79369 16.5145 0.129883 10.641 0.129883C4.7676 0.129883 0.00622559 4.79369 0.00622559 10.5467C0.00622559 16.2999 4.7676 20.9637 10.641 20.9637Z" fill="#34E0A1"/>
<path id="Vector_4" d="M17.2098 8.51469L18.4931 7.1471H15.6473C14.2226 6.19385 12.502 5.63867 10.6412 5.63867C8.78274 5.63867 7.06695 6.19504 5.6446 7.1471H2.79163L4.07494 8.51469C3.28833 9.21765 2.7952 10.2302 2.7952 11.3546C2.7952 13.4764 4.55146 15.1966 6.71763 15.1966C7.74666 15.1966 8.68416 14.8079 9.38406 14.1724L10.6412 15.5132L11.8984 14.1736C12.5983 14.8091 13.5346 15.1966 14.5636 15.1966C16.7298 15.1966 18.4884 13.4764 18.4884 11.3546C18.4896 10.2291 17.9965 9.21651 17.2098 8.51469ZM6.71879 13.9548C5.25248 13.9548 4.06427 12.7909 4.06427 11.3546C4.06427 9.91835 5.25251 8.75444 6.71879 8.75444C8.18508 8.75444 9.37336 9.91835 9.37336 11.3546C9.37336 12.7909 8.18508 13.9548 6.71879 13.9548ZM10.6424 11.279C10.6424 9.56804 9.37214 8.09917 7.69553 7.47182C8.60215 7.10052 9.59676 6.89452 10.6412 6.89452C11.6856 6.89452 12.6814 7.10052 13.588 7.47182C11.9126 8.10035 10.6424 9.56804 10.6424 11.279ZM14.5648 13.9548C13.0985 13.9548 11.9102 12.7909 11.9102 11.3546C11.9102 9.91835 13.0985 8.75444 14.5648 8.75444C16.0311 8.75444 17.2193 9.91835 17.2193 11.3546C17.2193 12.7909 16.0311 13.9548 14.5648 13.9548ZM14.5648 9.99053C13.796 9.99053 13.1733 10.6004 13.1733 11.3534C13.1733 12.1065 13.796 12.7163 14.5648 12.7163C15.3336 12.7163 15.9562 12.1065 15.9562 11.3534C15.9562 10.6015 15.3336 9.99053 14.5648 9.99053ZM8.11022 11.3546C8.11022 12.1076 7.48757 12.7176 6.71879 12.7176C5.95001 12.7176 5.32736 12.1076 5.32736 11.3546C5.32736 10.6015 5.95001 9.99167 6.71879 9.99167C7.48757 9.99053 8.11022 10.6015 8.11022 11.3546Z" fill="black"/>
</g>
</g>
</g>
</g>
<defs>
<clipPath id="clip0_1_5178">
<rect width="99.9875" height="21.05" fill="white" transform="translate(0.00622559 0.129883)"/>
</clipPath>
</defs>
</svg>
