<svg width="18" height="21" viewBox="0 0 18 21" fill="none" xmlns="http://www.w3.org/2000/svg">
<g id="SVG">
<g id="Group">
<path id="Vector" d="M17.5107 14.4802L14.9988 11.9682C14.1016 11.0711 12.5765 11.43 12.2177 12.5962C11.9485 13.4037 11.0514 13.8522 10.244 13.6728C8.44974 13.2242 6.0275 10.8917 5.57894 9.00774C5.3098 8.20029 5.84808 7.30316 6.65549 7.03406C7.82176 6.67521 8.18061 5.15009 7.28348 4.25297L4.77153 1.74101C4.05382 1.11302 2.97727 1.11302 2.34929 1.74101L0.644747 3.44555C-1.0598 5.2398 0.824172 9.99457 5.04066 14.211C9.25716 18.4275 14.0119 20.4013 15.8062 18.607L17.5107 16.9024C18.1387 16.1847 18.1387 15.1082 17.5107 14.4802Z" fill="#FBB03B" fill-opacity="0.8"/>
</g>
</g>
</svg>
