<svg width="18" height="21" viewBox="0 0 18 21" fill="none" xmlns="http://www.w3.org/2000/svg">
<g id="SVG">
<g id="Group">
<path id="Vector" d="M14.3281 4.35243C13.2357 2.46721 11.2954 1.31546 9.13767 1.27144C9.04556 1.26954 8.95285 1.26954 8.86071 1.27144C6.70303 1.31546 4.76268 2.46721 3.67024 4.35243C2.5536 6.27942 2.52305 8.5941 3.5885 10.5443L8.05204 18.7141C8.05405 18.7177 8.05605 18.7213 8.05812 18.7249C8.25451 19.0663 8.60632 19.27 8.99926 19.27C9.39216 19.27 9.74397 19.0662 9.94032 18.7249C9.94239 18.7213 9.9444 18.7177 9.9464 18.7141L14.4099 10.5443C15.4753 8.5941 15.4448 6.27942 14.3281 4.35243ZM8.99919 9.42629C7.60345 9.42629 6.46794 8.29078 6.46794 6.89504C6.46794 5.4993 7.60345 4.36379 8.99919 4.36379C10.3949 4.36379 11.5304 5.4993 11.5304 6.89504C11.5304 8.29078 10.395 9.42629 8.99919 9.42629Z" fill="#FBB03B" fill-opacity="0.8"/>
</g>
</g>
</svg>
