<svg width="18" height="21" viewBox="0 0 18 21" fill="none" xmlns="http://www.w3.org/2000/svg">
<g id="SVG">
<g id="Group">
<path id="Vector" d="M6.56266 14.4791V17.9576C6.56324 18.0758 6.60099 18.1908 6.67058 18.2864C6.74017 18.382 6.83807 18.4532 6.9504 18.49C7.06274 18.5269 7.18382 18.5274 7.29648 18.4916C7.40915 18.4558 7.5077 18.3855 7.57817 18.2906L9.61292 15.5216L6.56266 14.4791ZM17.7639 1.37433C17.6794 1.31414 17.5799 1.2785 17.4764 1.27136C17.3729 1.26421 17.2694 1.28583 17.1774 1.33383L0.302415 10.1463C0.205322 10.1976 0.125322 10.2762 0.0722333 10.3723C0.0191447 10.4685 -0.00472288 10.578 0.00355981 10.6875C0.0118425 10.797 0.0519151 10.9017 0.11886 10.9888C0.185804 11.0758 0.276708 11.1414 0.380415 11.1776L5.07166 12.7811L15.0624 4.23858L7.33141 13.5528L15.1937 16.2401C15.2717 16.2663 15.3545 16.2751 15.4363 16.266C15.5181 16.2568 15.5969 16.2299 15.6672 16.1871C15.7375 16.1443 15.7976 16.0867 15.8433 16.0182C15.8889 15.9498 15.9191 15.8721 15.9317 15.7908L17.9942 1.91583C18.0094 1.81311 17.996 1.70818 17.9554 1.61262C17.9147 1.51706 17.8485 1.43459 17.7639 1.37433Z" fill="#FBB03B" fill-opacity="0.8"/>
</g>
</g>
</svg>
